<svg xmlns="http://www.w3.org/2000/svg" xmlns:xlink="http://www.w3.org/1999/xlink" viewBox="0 0 495.95 495.95"><defs><style>.cls-1{isolation:isolate;}.cls-2{opacity:0.97;mix-blend-mode:screen;}.cls-10,.cls-11,.cls-12,.cls-13,.cls-14,.cls-15,.cls-16,.cls-17,.cls-18,.cls-19,.cls-20,.cls-21,.cls-22,.cls-23,.cls-24,.cls-25,.cls-26,.cls-27,.cls-28,.cls-29,.cls-3,.cls-30,.cls-31,.cls-32,.cls-33,.cls-34,.cls-35,.cls-36,.cls-37,.cls-38,.cls-39,.cls-4,.cls-40,.cls-41,.cls-42,.cls-43,.cls-44,.cls-45,.cls-46,.cls-47,.cls-48,.cls-49,.cls-5,.cls-50,.cls-51,.cls-52,.cls-53,.cls-54,.cls-55,.cls-56,.cls-57,.cls-58,.cls-59,.cls-6,.cls-60,.cls-61,.cls-62,.cls-63,.cls-64,.cls-65,.cls-66,.cls-7,.cls-8,.cls-9{stroke:#000;stroke-miterlimit:10;stroke-width:0.5px;}.cls-3{fill:url(#Mahogany);}.cls-4{fill:url(#Mahogany-2);}.cls-5{fill:url(#Black_Walnut);}.cls-6{fill:url(#Black_Walnut-2);}.cls-7{fill:url(#Mahogany-3);}.cls-8{fill:url(#Mahogany-4);}.cls-9{fill:url(#Black_Walnut-3);}.cls-10{fill:url(#Black_Walnut-4);}.cls-11{fill:url(#Mahogany-5);}.cls-12{fill:url(#Mahogany-6);}.cls-13{fill:url(#Black_Walnut-5);}.cls-14{fill:url(#Black_Walnut-6);}.cls-15{fill:url(#Mahogany-7);}.cls-16{fill:url(#Mahogany-8);}.cls-17{fill:url(#Black_Walnut-7);}.cls-18{fill:url(#Black_Walnut-8);}.cls-19{fill:url(#Mahogany-9);}.cls-20{fill:url(#Mahogany-10);}.cls-21{fill:url(#Black_Walnut-9);}.cls-22{fill:url(#Black_Walnut-10);}.cls-23{fill:url(#Mahogany-11);}.cls-24{fill:url(#Mahogany-12);}.cls-25{fill:url(#Black_Walnut-11);}.cls-26{fill:url(#Black_Walnut-12);}.cls-27{fill:url(#Mahogany-13);}.cls-28{fill:url(#Mahogany-14);}.cls-29{fill:url(#Black_Walnut-13);}.cls-30{fill:url(#Black_Walnut-14);}.cls-31{fill:url(#Mahogany-15);}.cls-32{fill:url(#Mahogany-16);}.cls-33{fill:url(#Black_Walnut-15);}.cls-34{fill:url(#Black_Walnut-16);}.cls-35{fill:url(#Mahogany-17);}.cls-36{fill:url(#Mahogany-18);}.cls-37{fill:url(#Black_Walnut-17);}.cls-38{fill:url(#Black_Walnut-18);}.cls-39{fill:url(#Mahogany-19);}.cls-40{fill:url(#Mahogany-20);}.cls-41{fill:url(#Black_Walnut-19);}.cls-42{fill:url(#Black_Walnut-20);}.cls-43{fill:url(#Mahogany-21);}.cls-44{fill:url(#Mahogany-22);}.cls-45{fill:url(#Black_Walnut-21);}.cls-46{fill:url(#Black_Walnut-22);}.cls-47{fill:url(#Mahogany-23);}.cls-48{fill:url(#Mahogany-24);}.cls-49{fill:url(#Black_Walnut-23);}.cls-50{fill:url(#Black_Walnut-24);}.cls-51{fill:url(#Mahogany-25);}.cls-52{fill:url(#Mahogany-26);}.cls-53{fill:url(#Black_Walnut-25);}.cls-54{fill:url(#Black_Walnut-26);}.cls-55{fill:url(#Mahogany-27);}.cls-56{fill:url(#Mahogany-28);}.cls-57{fill:url(#Black_Walnut-27);}.cls-58{fill:url(#Black_Walnut-28);}.cls-59{fill:url(#Mahogany-29);}.cls-60{fill:url(#Mahogany-30);}.cls-61{fill:url(#Black_Walnut-29);}.cls-62{fill:url(#Black_Walnut-30);}.cls-63{fill:url(#Mahogany-31);}.cls-64{fill:url(#Mahogany-32);}.cls-65{fill:url(#Black_Walnut-31);}.cls-66{fill:url(#Black_Walnut-32);}</style><linearGradient id="Mahogany" x1="73.59" y1="70.94" x2="73.59" y2="70.94" gradientTransform="translate(248.98 -100.21) rotate(45)" gradientUnits="userSpaceOnUse"><stop offset="0" stop-color="#804114"/><stop offset="0.25" stop-color="#c27c51"/><stop offset="0.45" stop-color="#8f4819"/><stop offset="0.63" stop-color="#652611"/><stop offset="0.79" stop-color="#a3512c"/><stop offset="0.98" stop-color="#69350d"/></linearGradient><linearGradient id="Mahogany-2" x1="84.48" y1="191.97" x2="192" y2="84.45" xlink:href="#Mahogany"/><linearGradient id="Black_Walnut" x1="84.47" y1="81.89" x2="84.47" y2="81.89" gradientTransform="translate(248.98 -100.21) rotate(45)" gradientUnits="userSpaceOnUse"><stop offset="0" stop-color="#6b360d"/><stop offset="0.11" stop-color="#854c18"/><stop offset="0.25" stop-color="#4e2d1a"/><stop offset="0.39" stop-color="#925d1e"/><stop offset="0.57" stop-color="#5b2700"/><stop offset="0.68" stop-color="#5c2902"/><stop offset="0.78" stop-color="#52301d"/><stop offset="0.88" stop-color="#824215"/><stop offset="1" stop-color="#4e2d1a"/></linearGradient><linearGradient id="Black_Walnut-2" x1="93.71" y1="187.51" x2="188.92" y2="92.3" xlink:href="#Black_Walnut"/><linearGradient id="Mahogany-3" x1="95.35" y1="92.85" x2="95.35" y2="92.85" xlink:href="#Mahogany"/><linearGradient id="Mahogany-4" x1="103.24" y1="183.34" x2="184.98" y2="101.59" xlink:href="#Mahogany"/><linearGradient id="Black_Walnut-3" x1="106.23" y1="103.79" x2="106.23" y2="103.79" xlink:href="#Black_Walnut"/><linearGradient id="Black_Walnut-4" x1="113.19" y1="179.6" x2="179.75" y2="113.04" xlink:href="#Black_Walnut"/><linearGradient id="Mahogany-5" x1="-167.8" y1="385.85" x2="-167.8" y2="385.85" gradientTransform="translate(-151.35 -142.52) rotate(-45)" xlink:href="#Mahogany"/><linearGradient id="Mahogany-6" x1="-157.29" y1="506.41" x2="-45.86" y2="394.98" gradientTransform="translate(-151.35 -142.52) rotate(-45)" xlink:href="#Mahogany"/><linearGradient id="Black_Walnut-5" x1="-156.91" y1="396.81" x2="-156.91" y2="396.81" gradientTransform="translate(-151.35 -142.52) rotate(-45)" xlink:href="#Black_Walnut"/><linearGradient id="Black_Walnut-6" x1="-147.72" y1="502.3" x2="-50.31" y2="404.89" gradientTransform="translate(-151.35 -142.52) rotate(-45)" xlink:href="#Black_Walnut"/><linearGradient id="Mahogany-7" x1="-146.02" y1="407.77" x2="-146.02" y2="407.77" gradientTransform="translate(-151.35 -142.52) rotate(-45)" xlink:href="#Mahogany"/><linearGradient id="Mahogany-8" x1="-138.14" y1="498.19" x2="-55.33" y2="415.38" gradientTransform="translate(-151.35 -142.52) rotate(-45)" xlink:href="#Mahogany"/><linearGradient id="Black_Walnut-7" x1="-135.14" y1="418.73" x2="-135.14" y2="418.73" gradientTransform="translate(-151.35 -142.52) rotate(-45)" xlink:href="#Black_Walnut"/><linearGradient id="Black_Walnut-8" x1="-128.57" y1="494.08" x2="-59.79" y2="425.3" gradientTransform="translate(-151.35 -142.52) rotate(-45)" xlink:href="#Black_Walnut"/><linearGradient id="Mahogany-9" x1="-482.7" y1="-145.06" x2="-482.7" y2="-145.06" gradientTransform="translate(11.04 53.1) rotate(-135)" xlink:href="#Mahogany"/><linearGradient id="Mahogany-10" x1="-472.29" y1="-24.5" x2="-362.46" y2="-134.33" gradientTransform="translate(11.04 53.1) rotate(-135)" xlink:href="#Mahogany"/><linearGradient id="Black_Walnut-9" x1="-471.83" y1="-134.11" x2="-471.83" y2="-134.11" gradientTransform="translate(11.04 53.1) rotate(-135)" xlink:href="#Black_Walnut"/><linearGradient id="Black_Walnut-10" x1="-462.72" y1="-28.62" x2="-366.35" y2="-124.99" gradientTransform="translate(11.04 53.1) rotate(-135)" xlink:href="#Black_Walnut"/><linearGradient id="Mahogany-11" x1="-460.95" y1="-123.16" x2="-460.95" y2="-123.16" gradientTransform="translate(11.04 53.1) rotate(-135)" xlink:href="#Mahogany"/><linearGradient id="Mahogany-12" x1="-453.14" y1="-32.74" x2="-369.08" y2="-116.8" gradientTransform="translate(11.04 53.1) rotate(-135)" xlink:href="#Mahogany"/><linearGradient id="Black_Walnut-11" x1="-450.07" y1="-112.2" x2="-450.07" y2="-112.2" gradientTransform="translate(11.04 53.1) rotate(-135)" xlink:href="#Black_Walnut"/><linearGradient id="Black_Walnut-12" x1="-443.56" y1="-36.86" x2="-374.69" y2="-105.73" gradientTransform="translate(11.04 53.1) rotate(-135)" xlink:href="#Black_Walnut"/><linearGradient id="Mahogany-13" x1="48.2" y1="-170.45" x2="48.2" y2="-170.45" gradientTransform="translate(411.37 95.42) rotate(135)" xlink:href="#Mahogany"/><linearGradient id="Mahogany-14" x1="59.15" y1="-49.46" x2="166.76" y2="-157.07" gradientTransform="translate(411.37 95.42) rotate(135)" xlink:href="#Mahogany"/><linearGradient id="Black_Walnut-13" x1="59.09" y1="-159.49" x2="59.09" y2="-159.49" gradientTransform="translate(411.37 95.42) rotate(135)" xlink:href="#Black_Walnut"/><linearGradient id="Black_Walnut-14" x1="68.66" y1="-53.62" x2="162.83" y2="-147.78" gradientTransform="translate(411.37 95.42) rotate(135)" xlink:href="#Black_Walnut"/><linearGradient id="Mahogany-15" x1="69.98" y1="-148.53" x2="69.98" y2="-148.53" gradientTransform="translate(411.37 95.42) rotate(135)" xlink:href="#Mahogany"/><linearGradient id="Mahogany-16" x1="78.62" y1="-57.35" x2="157.61" y2="-136.34" gradientTransform="translate(411.37 95.42) rotate(135)" xlink:href="#Mahogany"/><linearGradient id="Black_Walnut-15" x1="80.86" y1="-137.57" x2="80.86" y2="-137.57" gradientTransform="translate(411.37 95.42) rotate(135)" xlink:href="#Black_Walnut"/><linearGradient id="Black_Walnut-16" x1="87.84" y1="-61.8" x2="154.54" y2="-128.5" gradientTransform="translate(411.37 95.42) rotate(135)" xlink:href="#Black_Walnut"/><linearGradient id="Mahogany-17" x1="-83.83" y1="-93.9" x2="-83.83" y2="-93.9" gradientTransform="translate(331.95 158.7) rotate(90)" xlink:href="#Mahogany"/><linearGradient id="Mahogany-18" x1="-73.01" y1="27.12" x2="34.68" y2="-80.56" gradientTransform="translate(331.95 158.7) rotate(90)" xlink:href="#Mahogany"/><linearGradient id="Black_Walnut-17" x1="-72.96" y1="-82.94" x2="-72.96" y2="-82.94" gradientTransform="translate(331.95 158.7) rotate(90)" xlink:href="#Black_Walnut"/><linearGradient id="Black_Walnut-18" x1="-63.53" y1="22.91" x2="30.86" y2="-71.48" gradientTransform="translate(331.95 158.7) rotate(90)" xlink:href="#Black_Walnut"/><linearGradient id="Mahogany-19" x1="-62.08" y1="-71.98" x2="-62.08" y2="-71.98" gradientTransform="translate(331.95 158.7) rotate(90)" xlink:href="#Mahogany"/><linearGradient id="Mahogany-20" x1="-53.92" y1="18.83" x2="26.68" y2="-61.77" gradientTransform="translate(331.95 158.7) rotate(90)" xlink:href="#Mahogany"/><linearGradient id="Black_Walnut-19" x1="-51.21" y1="-61.02" x2="-51.21" y2="-61.02" gradientTransform="translate(331.95 158.7) rotate(90)" xlink:href="#Black_Walnut"/><linearGradient id="Black_Walnut-20" x1="-44.19" y1="14.87" x2="22.12" y2="-51.44" gradientTransform="translate(331.95 158.7) rotate(90)" xlink:href="#Black_Walnut"/><linearGradient id="Mahogany-21" x1="-3.25" y1="228.56" x2="-3.25" y2="228.56" gradientTransform="translate(78.95 -154.3)" xlink:href="#Mahogany"/><linearGradient id="Mahogany-22" x1="7.82" y1="349.63" x2="115" y2="242.46" gradientTransform="translate(78.95 -154.3)" xlink:href="#Mahogany"/><linearGradient id="Black_Walnut-21" x1="7.64" y1="239.51" x2="7.64" y2="239.51" gradientTransform="translate(78.95 -154.3)" xlink:href="#Black_Walnut"/><linearGradient id="Black_Walnut-22" x1="17.18" y1="345.3" x2="111.55" y2="250.92" gradientTransform="translate(78.95 -154.3)" xlink:href="#Black_Walnut"/><linearGradient id="Mahogany-23" x1="18.52" y1="250.46" x2="18.52" y2="250.46" gradientTransform="translate(78.95 -154.3)" xlink:href="#Mahogany"/><linearGradient id="Mahogany-24" x1="27.03" y1="341.47" x2="106.62" y2="261.88" gradientTransform="translate(78.95 -154.3)" xlink:href="#Mahogany"/><linearGradient id="Black_Walnut-23" x1="29.41" y1="261.41" x2="29.41" y2="261.41" gradientTransform="translate(78.95 -154.3)" xlink:href="#Black_Walnut"/><linearGradient id="Black_Walnut-24" x1="36" y1="336.76" x2="104.27" y2="268.48" gradientTransform="translate(78.95 -154.3)" xlink:href="#Black_Walnut"/><linearGradient id="Mahogany-25" x1="-325.42" y1="19.34" x2="-325.42" y2="19.34" gradientTransform="translate(55.45 98.7) rotate(-90)" xlink:href="#Mahogany"/><linearGradient id="Mahogany-26" x1="-314.92" y1="140.04" x2="-205.95" y2="31.06" gradientTransform="translate(55.45 98.7) rotate(-90)" xlink:href="#Mahogany"/><linearGradient id="Black_Walnut-25" x1="-314.55" y1="30.3" x2="-314.55" y2="30.3" gradientTransform="translate(55.45 98.7) rotate(-90)" xlink:href="#Black_Walnut"/><linearGradient id="Black_Walnut-26" x1="-305.43" y1="135.84" x2="-208.24" y2="38.65" gradientTransform="translate(55.45 98.7) rotate(-90)" xlink:href="#Black_Walnut"/><linearGradient id="Mahogany-27" x1="-303.67" y1="41.27" x2="-303.67" y2="41.27" gradientTransform="translate(55.45 98.7) rotate(-90)" xlink:href="#Mahogany"/><linearGradient id="Mahogany-28" x1="-295.86" y1="131.72" x2="-211.47" y2="47.33" gradientTransform="translate(55.45 98.7) rotate(-90)" xlink:href="#Mahogany"/><linearGradient id="Black_Walnut-27" x1="-292.79" y1="52.22" x2="-292.79" y2="52.22" gradientTransform="translate(55.45 98.7) rotate(-90)" xlink:href="#Black_Walnut"/><linearGradient id="Black_Walnut-28" x1="-286.28" y1="127.61" x2="-217.86" y2="59.19" gradientTransform="translate(55.45 98.7) rotate(-90)" xlink:href="#Black_Walnut"/><linearGradient id="Mahogany-29" x1="-116.5" y1="-13.03" x2="-116.5" y2="-13.03" gradientTransform="translate(308.45 411.7) rotate(180)" xlink:href="#Mahogany"/><linearGradient id="Mahogany-30" x1="-105.99" y1="107.47" x2="4.65" y2="-3.18" gradientTransform="translate(308.45 411.7) rotate(180)" xlink:href="#Mahogany"/><linearGradient id="Black_Walnut-29" x1="-105.61" y1="-2.07" x2="-105.61" y2="-2.07" gradientTransform="translate(308.45 411.7) rotate(180)" xlink:href="#Black_Walnut"/><linearGradient id="Black_Walnut-30" x1="-96.42" y1="103.36" x2="0.93" y2="6" gradientTransform="translate(308.45 411.7) rotate(180)" xlink:href="#Black_Walnut"/><linearGradient id="Mahogany-31" x1="-94.72" y1="8.87" x2="-94.72" y2="8.87" gradientTransform="translate(308.45 411.7) rotate(180)" xlink:href="#Mahogany"/><linearGradient id="Mahogany-32" x1="-86.85" y1="99.25" x2="-4.27" y2="16.68" gradientTransform="translate(308.45 411.7) rotate(180)" xlink:href="#Mahogany"/><linearGradient id="Black_Walnut-31" x1="-83.84" y1="19.83" x2="-83.84" y2="19.83" gradientTransform="translate(308.45 411.7) rotate(180)" xlink:href="#Black_Walnut"/><linearGradient id="Black_Walnut-32" x1="-77.28" y1="95.13" x2="-7.5" y2="25.36" gradientTransform="translate(308.45 411.7) rotate(180)" xlink:href="#Black_Walnut"/></defs><title>JourneyOfTaro_Logo_Compass</title><g class="cls-1"><g id="Layer_2"><g class="cls-2"><path class="cls-3" d="M250.85,2" transform="translate(-2.32 -1.53)"/><path class="cls-4" d="M173,172l15.66,15.22c34.76-34.73,87.51-33.41,122.27,1.32l13.91-14.33.21.21c-19.31-19.29-60.47-32.19-60.47-32.19,42.48,3.86,23.83-23.81,23.83-23.81-11.58-11.58-15.11-.33-15.11-.33s7.88-7.88,11.75,3.69-19.23,11.5-23.09-.08,3.9-11.62,19.35-27.06S250.41,2,250.41,2s-46.34,77.16-30.89,92.6,23.18,15.43,19.31,27-27,11.57-23.16,0,11.58-3.86,11.58-3.86-3.86-11.57-15.44,0c0,0-19.31,27,23.17,23.15,0,0-42.48,11.58-61.79,30.87" transform="translate(-2.32 -1.53)"/></g><g class="cls-2"><path class="cls-5" d="M250.8,17.43" transform="translate(-2.32 -1.53)"/><path class="cls-6" d="M182.65,166.18l13.71,13.32c30.41-30.39,77.37-30,107.78.35l13-13.33.19.18c-16.9-16.88-53.71-27.36-53.71-27.36C300.76,142.71,284,118.9,284,118.9c-10.14-10.13-13.43-.09-13.43-.09s6.8-6.79,10.18,3.33-16.87,10.11-20.25,0,3.39-10.14,16.91-23.64-27-81-27-81-40.55,67.52-27,81,20.28,13.5,16.9,23.63-23.66,10.13-20.28,0,10.14-3.37,10.14-3.37-3.38-10.14-13.52,0c0,0-16.89,23.63,20.28,20.25,0,0-37.17,10.13-54.07,27" transform="translate(-2.32 -1.53)"/></g><g class="cls-2"><path class="cls-7" d="M250.75,32.87" transform="translate(-2.32 -1.53)"/><path class="cls-8" d="M192.34,160.37l11.74,11.41c26.07-26.05,66.41-25.84,92.48.21l11.22-11.54.16.16c-14.48-14.47-46.14-23.35-46.14-23.35,31.87,2.89,17.49-17.47,17.49-17.47-8.69-8.68-11.54-.05-11.54-.05s5.82-5.81,8.72,2.87-14.47,8.67-17.37,0,2.9-8.68,14.49-20.26-23.17-69.46-23.17-69.46-34.75,57.88-23.17,69.46,17.38,11.57,14.49,20.25-20.28,8.69-17.38,0,8.69-2.89,8.69-2.89-2.9-8.68-11.59,0c0,0-14.48,20.26,17.38,17.36,0,0-31.86,8.68-46.34,23.15" transform="translate(-2.32 -1.53)"/></g><g class="cls-2"><path class="cls-9" d="M250.7,48.3" transform="translate(-2.32 -1.53)"/><path class="cls-10" d="M202,154.55l9.79,9.51c21.72-21.7,54.24-20.43,76,1.28l8.24-8.51.14.14c-12.07-12.06-37.35-20.57-37.35-20.57,26.56,2.41,15.12-15.11,15.12-15.11-7.24-7.23-9.33-.32-9.33-.32s5-5,7.4,2.25-12,7.16-14.4-.08,2.45-7.27,12.11-16.92-19.29-57.9-19.29-57.9-29,48.23-19.31,57.87,14.49,9.65,12.08,16.88-16.89,7.23-14.48,0,7.25-2.42,7.25-2.42-2.42-7.23-9.66,0c0,0-12.07,16.89,14.48,14.47,0,0-26.55,7.24-38.62,19.3" transform="translate(-2.32 -1.53)"/></g><g class="cls-2"><path class="cls-11" d="M2.83,249" transform="translate(-2.32 -1.53)"/><path class="cls-12" d="M173,326.77l15.24-15.65c-34.76-34.72-36.27-90.26-1.51-125l-17.18-16.73.22-.22c-19.31,19.3-29.39,63.25-29.39,63.25C144.21,190,117.93,210,117.93,210c-11.58,11.58.38,15.82.38,15.82s-7.53-7.53,4-11.39,11.68,19.39.1,23.25-11.54-3.82-27-19.25S2.81,249.36,2.81,249.36s77.25,46.32,92.69,30.88S111,257.1,122.55,261s11.59,27,0,23.15-3.86-11.57-3.86-11.57-11.59,3.86,0,15.43c0,0,27,19.3,23.17-23.15,0,0,11.59,42.45,30.9,61.74" transform="translate(-2.32 -1.53)"/></g><g class="cls-2"><path class="cls-13" d="M18.28,249" transform="translate(-2.32 -1.53)"/><path class="cls-14" d="M167.15,317.1l13.33-13.69c-30.41-30.39-31.66-78.91-1.25-109.3l-15-14.57.18-.19c-16.89,16.88-25.77,55.28-25.77,55.28C142.06,197.48,119,215,119,215c-10.14,10.13.31,13.82.31,13.82s-6.6-6.59,3.54-10,10.21,17,.08,20.34-10.1-3.34-23.62-16.85-81.08,27-81.08,27,67.6,40.52,81.11,27,13.52-20.26,23.66-16.88,10.14,23.64,0,20.26-3.37-10.13-3.37-10.13-10.14,3.38,0,13.51c0,0,23.65,16.88,20.27-20.26,0,0,10.14,37.14,27,54" transform="translate(-2.32 -1.53)"/></g><g class="cls-2"><path class="cls-15" d="M33.73,249.06" transform="translate(-2.32 -1.53)"/><path class="cls-16" d="M161.33,307.43l11.43-11.74c-26.07-26.05-26.66-67.16-.59-93.2l-12.34-12,.16-.16c-14.48,14.47-22.58,46.9-22.58,46.9,2.9-31.84-17.09-17.07-17.09-17.07-8.68,8.68.15,11.72.15,11.72s-5.71-5.71,3-8.6,8.73,14.5,0,17.39-8.67-2.87-20.25-14.45-69.51,23.17-69.51,23.17,57.93,34.73,69.52,23.15,11.59-17.36,20.27-14.47,8.7,20.27,0,17.37-2.9-8.68-2.9-8.68-8.69,2.89,0,11.58c0,0,20.28,14.47,17.38-17.37,0,0,8.69,31.84,23.17,46.31" transform="translate(-2.32 -1.53)"/></g><g class="cls-2"><path class="cls-17" d="M49.18,249.11" transform="translate(-2.32 -1.53)"/><path class="cls-18" d="M155.51,297.75,165,288c-21.72-21.7-22.05-55.8-.33-77.51l-10.13-9.84.14-.14c-12.07,12.06-19,38.92-19,38.92,2.42-26.53-14.31-14.3-14.31-14.3-7.24,7.23.08,9.73.08,9.73s-4.78-4.78,2.46-7.19,7.26,12.08,0,14.49-7.23-2.4-16.89-12-57.92,19.3-57.92,19.3,48.28,28.94,57.93,19.29,9.66-14.46,16.9-12.05,7.24,16.88,0,14.47-2.41-7.24-2.41-7.24-7.24,2.42,0,9.65c0,0,16.89,12.06,14.48-14.47,0,0,7.24,26.53,19.31,38.59" transform="translate(-2.32 -1.53)"/></g><g class="cls-2"><path class="cls-19" d="M249.78,497" transform="translate(-2.32 -1.53)"/><path class="cls-20" d="M327.66,327,312,311.77c-34.76,34.73-89.13,35-123.89.31l-15.55,16-.21-.21c19.31,19.29,62.1,30.56,62.1,30.56-42.48-3.86-23,23-23,23C223,393,227,381.3,227,381.3s-7.68,7.68-11.54-3.89,19.32-11.6,23.18,0-3.84,11.56-19.29,27S250.2,497,250.2,497s46.36-77.19,30.91-92.62-23.18-15.43-19.31-27,27-11.58,23.17,0-11.59,3.87-11.59,3.87,3.87,11.58,15.45,0c0,0,19.31-27-23.17-23.16,0,0,42.48-11.57,61.79-30.87" transform="translate(-2.32 -1.53)"/></g><g class="cls-2"><path class="cls-21" d="M249.84,481.56" transform="translate(-2.32 -1.53)"/><path class="cls-22" d="M318,332.8l-13.7-13.31c-30.41,30.39-78.19,30.85-108.6.46l-13.79,14.16-.19-.19c16.9,16.88,54.53,26.55,54.53,26.55-37.18-3.38-20,20-20,20,10.13,10.13,13.63-.11,13.63-.11s-6.7,6.69-10.08-3.44,16.92-10.15,20.3,0-3.36,10.12-16.88,23.63,27,81,27,81,40.56-67.53,27-81S257,387,260.35,376.89s23.65-10.13,20.28,0-10.14,3.38-10.14,3.38,3.38,10.13,13.51,0c0,0,16.9-23.63-20.27-20.25,0,0,37.17-10.14,54.06-27" transform="translate(-2.32 -1.53)"/></g><g class="cls-2"><path class="cls-23" d="M249.89,466.12" transform="translate(-2.32 -1.53)"/><path class="cls-24" d="M308.3,338.62,296.56,327.2c-26.07,26.05-68.05,27.48-94.12,1.43L189.58,341.8l-.16-.17c14.49,14.47,47.77,21.73,47.77,21.73C205.33,360.47,220.53,380,220.53,380c8.69,8.68,11.95-.36,11.95-.36s-5.62,5.62-8.52-3.06,14.58-8.78,17.47-.1-2.85,8.64-14.44,20.22,23.2,69.43,23.2,69.43,34.77-57.89,23.18-69.47S256,385.09,258.89,376.41s20.28-8.69,17.39,0-8.69,2.9-8.69,2.9,2.89,8.68,11.59,0c0,0,14.48-20.26-17.38-17.37,0,0,31.86-8.68,46.34-23.15" transform="translate(-2.32 -1.53)"/></g><g class="cls-2"><path class="cls-25" d="M249.94,450.68" transform="translate(-2.32 -1.53)"/><path class="cls-26" d="M298.62,344.43l-9.79-9.51c-21.72,21.71-55.87,22.06-77.6.36l-9.88,10.14-.13-.13c12.07,12,39,18.93,39,18.93-26.55-2.41-14.3,14.29-14.3,14.29,7.24,7.24,9.74-.09,9.74-.09s-4.78,4.78-7.2-2.46,12.09-7.25,14.51,0-2.4,7.23-12.06,16.88,19.31,57.87,19.31,57.87,29-48.24,19.32-57.88-14.48-9.65-12.07-16.89,16.9-7.24,14.48,0-7.24,2.41-7.24,2.41,2.41,7.24,9.66,0c0,0,12.07-16.88-14.48-14.47,0,0,26.55-7.23,38.62-19.29" transform="translate(-2.32 -1.53)"/></g><g class="cls-2"><path class="cls-27" d="M497.81,250" transform="translate(-2.32 -1.53)"/><path class="cls-28" d="M327.66,172.21l-15.23,15.65c34.76,34.73,33.57,87.56-1.19,122.29l14.47,14-.21.22c19.31-19.3,32.09-60.55,32.09-60.55-3.87,42.44,23.76,23.74,23.76,23.74,11.59-11.57.3-15.14.3-15.14s7.87,7.87-3.71,11.73S366.42,265,378,261.1s11.62,3.9,27.07,19.33,92.71-30.85,92.71-30.85-77.23-46.3-92.68-30.86-15.44,23.16-27,19.3-11.58-27,0-23.15S382,226.45,382,226.45s11.58-3.86,0-15.44c0,0-27-19.29-23.17,23.16,0,0-11.59-42.45-30.9-61.74" transform="translate(-2.32 -1.53)"/></g><g class="cls-2"><path class="cls-29" d="M482.36,250" transform="translate(-2.32 -1.53)"/><path class="cls-30" d="M333.49,181.88l-13.34,13.7c30.42,30.39,29.38,76.61-1,107l12.66,12.28-.19.19c16.9-16.88,28.07-53,28.07-53-3.37,37.15,20.8,20.79,20.8,20.79,10.14-10.13.26-13.25.26-13.25s6.89,6.88-3.25,10.26-10.07-16.82.07-20.2,10.17,3.41,23.68,16.92,81.12-27,81.12-27-67.57-40.51-81.09-27-13.52,20.26-23.65,16.89-10.14-23.64,0-20.26S381,229.34,381,229.34s10.14-3.38,0-13.51c0,0-23.65-16.88-20.27,20.27,0,0-10.14-37.15-27-54" transform="translate(-2.32 -1.53)"/></g><g class="cls-2"><path class="cls-31" d="M466.91,249.92" transform="translate(-2.32 -1.53)"/><path class="cls-32" d="M339.3,191.56,327.88,203.3c26.07,26,24,64.46-2.11,90.5l9.64,9.3-.17.16c14.49-14.47,25.29-44.19,25.29-44.19C357.63,290.9,379,277.49,379,277.49c8.69-8.69.53-11.05.53-11.05s6.05,6.05-2.63,8.94S368.3,261,377,258.15s8.75,3,20.34,14.54,69.55-23.13,69.55-23.13-57.92-34.71-69.5-23.13-11.58,17.37-20.27,14.48-8.68-20.25,0-17.36,2.89,8.68,2.89,8.68,8.7-2.89,0-11.57c0,0-20.28-14.47-17.38,17.36,0,0-8.69-31.83-23.18-46.3" transform="translate(-2.32 -1.53)"/></g><g class="cls-2"><path class="cls-33" d="M451.46,249.87" transform="translate(-2.32 -1.53)"/><path class="cls-34" d="M345.12,201.23,335.6,211c21.73,21.71,20.58,54.33-1.14,76l8.64,8.36-.13.14c12.07-12.06,20.45-37.45,20.45-37.45-2.41,26.53,15.06,15,15.06,15,7.24-7.24.28-9.37.28-9.37s5,5-2.27,7.38-7.17-12,.08-14.39,7.27,2.44,16.93,12.09,57.94-19.28,57.94-19.28-48.26-28.93-57.91-19.28-9.66,14.47-16.9,12.06-7.24-16.88,0-14.47,2.42,7.24,2.42,7.24,7.24-2.41,0-9.65c0,0-16.89-12.06-14.48,14.47,0,0-7.25-26.53-19.31-38.58" transform="translate(-2.32 -1.53)"/></g><g class="cls-2"><path class="cls-35" d="M425.85,74.87" transform="translate(-2.32 -1.53)"/><path class="cls-36" d="M250.47,140.05l.3,21.83c49.16,0,85.73,38.19,85.73,87.31l20.2-.3v.3c0-27.29-20.2-65.49-20.2-65.49,27.31,32.75,33.6,0,33.6,0,0-16.37-10.51-10.91-10.51-10.91s11.13,0,5.67,10.91-21.74-5.45-16.28-16.37,11-5.45,32.82-5.45,43.72-87.32,43.72-87.32-87.37,21.83-87.37,43.66,5.47,27.28-5.45,32.74-27.31-10.91-16.39-16.37,10.93,5.46,10.93,5.46,5.46-10.92-10.93-10.92c0,0-32.76,5.46,0,32.75,0,0-38.23-21.83-65.54-21.83" transform="translate(-2.32 -1.53)"/></g><g class="cls-2"><path class="cls-37" d="M414.89,85.74" transform="translate(-2.32 -1.53)"/><path class="cls-38" d="M261.43,142.77l.27,19.1c43,0,75.17,33.43,75.17,76.41l17.84-.27v.27c0-23.88-17.83-57.3-17.83-57.3,23.89,28.64,29.31,0,29.31,0,0-14.32-9.24-9.54-9.24-9.54s9.72,0,4.94,9.54-19-4.77-14.25-14.32,9.59-4.77,28.71-4.77,38.25-76.4,38.25-76.4-76.45,19.1-76.45,38.2,4.78,23.87-4.77,28.65S309.48,142.78,319,138s9.56,4.78,9.56,4.78,4.78-9.55-9.56-9.55c0,0-28.67,4.77,0,28.64,0,0-33.46-19.1-57.35-19.1" transform="translate(-2.32 -1.53)"/></g><g class="cls-2"><path class="cls-39" d="M403.93,96.62" transform="translate(-2.32 -1.53)"/><path class="cls-40" d="M272.39,145.5l.23,16.38c36.87,0,64.13,28.65,64.13,65.48l15-.23v.23c0-20.46-15-49.11-15-49.11,20.49,24.55,25.28,0,25.28,0,0-12.28-7.83-8.19-7.83-8.19s8.36,0,4.26,8.19-16.29-4.1-12.2-12.28,8.24-4.09,24.62-4.09,32.8-65.49,32.8-65.49-65.53,16.37-65.53,32.74,4.1,20.47-4.09,24.56-20.48-8.19-12.29-12.28,8.2,4.1,8.2,4.1,4.09-8.19-8.2-8.19c0,0-24.57,4.09,0,24.56,0,0-28.67-16.38-49.15-16.38" transform="translate(-2.32 -1.53)"/></g><g class="cls-2"><path class="cls-41" d="M393,107.49" transform="translate(-2.32 -1.53)"/><path class="cls-42" d="M283.35,148.23l.19,13.65c30.73,0,52.6,23.87,52.6,54.57l11.62-.19v.19c0-17.06-11.62-40.93-11.62-40.93,17.06,20.46,21.49,0,21.49,0,0-10.23-6.32-6.83-6.32-6.83s7.08,0,3.67,6.83-13.53-3.41-10.12-10.24,6.9-3.4,20.55-3.4,27.33-54.58,27.33-54.58-54.6,13.65-54.6,27.29,3.42,17-3.4,20.46-17.07-6.82-10.24-10.23,6.83,3.41,6.83,3.41,3.42-6.82-6.83-6.82c0,0-20.48,3.41,0,20.47,0,0-23.89-13.65-41-13.65" transform="translate(-2.32 -1.53)"/></g><g class="cls-2"><path class="cls-43" d="M75.7,74.26" transform="translate(-2.32 -1.53)"/><path class="cls-44" d="M140.93,249.49l21.85-.3c0-49.12,38.23-85.15,87.39-85.15l-.31-19.66h.31c-27.31,0-65.54,19.66-65.54,19.66,32.77-27.28,0-33.83,0-33.83-16.39,0-10.93,10.38-10.93,10.38s0-11.19,10.93-5.73-5.47,21.7-16.39,16.24-5.46-11-5.46-32.82S75.39,74.6,75.39,74.6s21.85,87.29,43.7,87.29,27.31-5.46,32.77,5.45-10.93,27.28-16.39,16.37,5.46-10.92,5.46-10.92S130,167.33,130,183.71c0,0,5.46,32.74,32.77,0,0,0-21.84,38.2-21.85,65.49" transform="translate(-2.32 -1.53)"/></g><g class="cls-2"><path class="cls-45" d="M86.58,85.21" transform="translate(-2.32 -1.53)"/><path class="cls-46" d="M143.67,238.54l19.11-.26c0-43,33.46-75.11,76.47-75.11l-.27-17.8h.27c-23.9,0-57.35,17.8-57.35,17.8,28.67-23.87,0-29.29,0-29.29-14.34,0-9.56,9.22-9.56,9.22s0-9.71,9.56-4.94-4.78,19-14.34,14.25-4.78-9.59-4.78-28.69S86.32,85.5,86.32,85.5s19.12,76.38,38.23,76.38,23.89-4.77,28.68,4.77-9.56,23.88-14.34,14.33,4.77-9.55,4.77-9.55-9.55-4.78-9.55,9.54c0,0,4.78,28.65,28.67,0,0,0-19.11,33.43-19.11,57.3" transform="translate(-2.32 -1.53)"/></g><g class="cls-2"><path class="cls-47" d="M97.47,96.16" transform="translate(-2.32 -1.53)"/><path class="cls-48" d="M146.4,227.59l16.38-.23c0-36.83,28.67-63.07,65.54-63.07l-.23-14h.23c-20.48,0-49.15,14-49.15,14,24.57-20.46,0-25.77,0-25.77-12.29,0-8.2,7.59-8.2,7.59s0-8.49,8.2-4.4-4.1,16.22-12.29,12.13-4.1-8.26-4.1-24.63S97.24,96.43,97.24,96.43s16.39,65.46,32.77,65.46,20.48-4.1,24.58,4.09-8.2,20.46-12.29,12.27,4.1-8.19,4.1-8.19-8.2-4.09-8.2,8.19c0,0,4.1,24.55,24.58,0,0,0-16.38,28.65-16.38,49.11" transform="translate(-2.32 -1.53)"/></g><g class="cls-2"><path class="cls-49" d="M108.36,107.11" transform="translate(-2.32 -1.53)"/><path class="cls-50" d="M149.13,216.64l13.65-.19c0-30.7,23.9-54.51,54.62-54.51l-.19-13.58h.18c-17.06,0-41,13.58-41,13.58,20.48-17.05,0-20.5,0-20.5-10.24,0-6.82,6.81-6.82,6.81s0-6.83,6.82-3.42S173,158.47,166.2,155.06s-3.42-6.82-3.42-20.47-54.61-27.29-54.61-27.29,13.65,54.58,27.3,54.58,17.07-3.41,20.49,3.4-6.83,17.06-10.25,10.24,3.42-6.83,3.42-6.83-6.83-3.41-6.83,6.83c0,0,3.41,20.46,20.48,0,0,0-13.65,23.87-13.65,40.92" transform="translate(-2.32 -1.53)"/></g><g class="cls-2"><path class="cls-51" d="M74.79,424.12" transform="translate(-2.32 -1.53)"/><path class="cls-52" d="M250.17,358.94l-.31-21.83c-49.15,0-87-38.2-87-87.31l-21.47.3v-.3c0,27.29,21.48,65.48,21.48,65.48-27.31-32.74-33,0-33,0,0,16.37,10.83,10.92,10.83,10.92s-11,0-5.5-10.92,21.82,5.46,16.36,16.37-10.94,5.46-32.79,5.46S75.1,424.42,75.1,424.42s87.38-21.82,87.38-43.65S157,353.48,167.94,348s27.31,10.91,16.38,16.37-10.92-5.46-10.92-5.46-5.46,10.91,10.93,10.91c0,0,32.76-5.46,0-32.74,0,0,38.22,21.83,65.53,21.83" transform="translate(-2.32 -1.53)"/></g><g class="cls-2"><path class="cls-53" d="M85.75,413.24" transform="translate(-2.32 -1.53)"/><path class="cls-54" d="M239.21,356.21l-.27-19.1c-43,0-78-33.42-78-76.4l-20.63.27v-.27C140.33,284.58,161,318,161,318c-23.89-28.65-27.91,0-27.91,0,0,14.32,9.93,9.55,9.93,9.55s-9.37,0-4.59-9.55,19.21,4.78,14.43,14.33-9.51,4.77-28.62,4.77S86,413.51,86,413.51s76.48-19.1,76.48-38.2-4.78-23.87,4.78-28.65,23.9,9.55,14.34,14.33-9.55-4.78-9.55-4.78-4.78,9.55,9.55,9.55c0,0,28.68-4.78,0-28.65,0,0,33.46,19.1,57.35,19.1" transform="translate(-2.32 -1.53)"/></g><g class="cls-2"><path class="cls-55" d="M96.71,402.37" transform="translate(-2.32 -1.53)"/><path class="cls-56" d="M228.25,353.48,228,337.11c-36.87,0-67.93-28.65-67.93-65.49l-18.77.23v-.23c0,20.47,18.77,49.12,18.77,49.12-20.48-24.56-23.38,0-23.38,0,0,12.28,8.79,8.18,8.79,8.18s-7.9,0-3.8-8.18,16.53,4.09,12.44,12.28-8.12,4.09-24.51,4.09S96.9,402.6,96.9,402.6s65.56-16.38,65.56-32.75-4.09-20.46,4.1-24.56,20.49,8.19,12.3,12.28-8.19-4.09-8.19-4.09-4.1,8.18,8.19,8.19c0,0,24.58-4.1,0-24.56,0,0,28.67,16.37,49.16,16.37" transform="translate(-2.32 -1.53)"/></g><g class="cls-2"><path class="cls-57" d="M107.67,391.49" transform="translate(-2.32 -1.53)"/><path class="cls-58" d="M217.28,350.75l-.19-13.64c-30.72,0-54.69-23.88-54.7-54.57l-13.73.19v-.19c0,17,13.74,40.93,13.74,40.93-17.07-20.47-20.44,0-20.44,0,0,10.23,6.84,6.82,6.84,6.82s-6.82,0-3.4-6.82,13.66,3.41,10.25,10.23-6.83,3.41-20.48,3.41-27.31,54.57-27.31,54.57,54.62-13.64,54.62-27.29-3.42-17.05,3.41-20.46,17.07,6.82,10.24,10.23-6.83-3.41-6.83-3.41-3.41,6.82,6.83,6.82c0,0,20.48-3.41,0-20.46,0,0,23.9,13.64,41,13.64" transform="translate(-2.32 -1.53)"/></g><g class="cls-2"><path class="cls-59" d="M424.94,424.73" transform="translate(-2.32 -1.53)"/><path class="cls-60" d="M359.7,249.49l-21.84.3c0,49.12-38.23,88.63-87.39,88.63l.3,23.14h-.3c27.31,0,65.54-23.14,65.54-23.14-32.77,27.29,0,32.09,0,32.09,16.38,0,10.93-11.24,10.93-11.24s0,10.75-10.93,5.29,5.46-21.91,16.39-16.45,5.46,10.87,5.46,32.7,87.38,43.63,87.38,43.63-21.84-87.32-43.69-87.32-27.31,5.45-32.77-5.46,10.92-27.29,16.38-16.38-5.46,10.92-5.46,10.92,10.93,5.45,10.92-10.92c0,0-5.46-32.74-32.76,0,0,0,21.84-38.2,21.84-65.49" transform="translate(-2.32 -1.53)"/></g><g class="cls-2"><path class="cls-61" d="M414.05,413.77" transform="translate(-2.32 -1.53)"/><path class="cls-62" d="M357,260.44l-19.11.27c0,43-33.46,78.08-76.47,78.09l.27,20.78h-.27c23.9,0,57.35-20.78,57.35-20.78-28.67,23.87,0,27.8,0,27.8,14.33,0,9.56-10,9.56-10s0,9.34-9.56,4.57,4.78-19.21,14.34-14.44,4.78,9.5,4.78,28.6,76.46,38.18,76.46,38.18-19.12-76.42-38.23-76.42-23.9,4.77-28.68-4.78S357,308.46,361.75,318s-4.78,9.55-4.78,9.55,9.56,4.78,9.56-9.55c0,0-4.78-28.65-28.67,0,0,0,19.11-33.43,19.11-57.3" transform="translate(-2.32 -1.53)"/></g><g class="cls-2"><path class="cls-63" d="M403.17,402.82" transform="translate(-2.32 -1.53)"/><path class="cls-64" d="M354.24,271.4l-16.38.22c0,36.84-28.68,66.06-65.54,66.06l.23,16.94h-.23c20.48,0,49.15-16.94,49.15-16.94-24.58,20.46,0,24.27,0,24.27,12.29,0,8.19-8.33,8.19-8.33s0,8.12-8.19,4,4.1-16.4,12.29-12.31,4.1,8.17,4.1,24.54S403.4,402.6,403.4,402.6,387,337.12,370.63,337.12s-20.48,4.08-24.58-4.1,8.19-20.46,12.29-12.28-4.1,8.18-4.1,8.18,8.19,4.1,8.19-8.18c0,0-4.09-24.56-24.57,0,0,0,16.38-28.65,16.38-49.12" transform="translate(-2.32 -1.53)"/></g><g class="cls-2"><path class="cls-65" d="M392.28,391.87" transform="translate(-2.32 -1.53)"/><path class="cls-66" d="M351.51,282.35l-13.65.19c0,30.69-23.9,56-54.62,56l.19,15.08h-.19c17.07,0,41-15.08,41-15.08-20.48,17.05,0,19.74,0,19.74,10.24,0,6.83-7.18,6.83-7.18s0,6.65-6.83,3.23,3.42-13.73,10.24-10.32,3.42,6.78,3.42,20.42,54.61,27.26,54.61,27.26-13.65-54.58-27.31-54.58-17.06,3.41-20.48-3.42,6.83-17.05,10.25-10.23-3.42,6.82-3.42,6.82,6.83,3.41,6.82-6.82c0,0-3.4-20.47-20.47,0,0,0,13.65-23.88,13.65-40.93" transform="translate(-2.32 -1.53)"/></g></g></g></svg>