<svg id="Layer_2" data-name="Layer 2" xmlns="http://www.w3.org/2000/svg" viewBox="0 0 496.24 111.37"><defs><style>.cls-1,.cls-2{stroke:#231f20;stroke-miterlimit:10;stroke-width:0.25px;}.cls-2{fill:#fff;}</style></defs><title>DigiGam_Logo_Text</title><path class="cls-1" d="M157,42.43c1.27.15,2.56.23,3.8.49a25.24,25.24,0,0,1,4.47,1.22,4.53,4.53,0,0,1,2.81,6.15,36.69,36.69,0,0,1-2.16,4.63c-.57,1.15-1.23,2.26-1.82,3.41a7.62,7.62,0,0,0-.5,1.41,1.84,1.84,0,0,0,1.3,2.55,24.59,24.59,0,0,0,3.54.68,6,6,0,0,0,1,0c1.55-5.3,5-9.13,9.3-12.24a6.43,6.43,0,0,1,2.57-.83c.61-.11,1.07.35,1.29,1a1.38,1.38,0,0,1-.23,1.61c-3.76,3.74-4.49,8.32-3.85,13.34.42,3.31.9,6.63,1,10a38.18,38.18,0,0,1-.62,7.84,9.38,9.38,0,0,1-7.31,7.83,20.92,20.92,0,0,1-8.77.38,10,10,0,0,1-3.51-1.49,4.89,4.89,0,0,1,.92-8.57,16.58,16.58,0,0,1,3-.84,1.55,1.55,0,0,1,1.8,2.14c-.44,1.18-.34,1.42.78,1.91,2.11.92,3.51.41,4.26-1.84a36.78,36.78,0,0,0,1.27-5.59c.43-2.57.72-5.16,1.07-7.74.25-1.87-.22-2.47-2.09-2.59-2.44-.17-4.9-.18-7.32-.48a19,19,0,0,1-4.7-1.23c-2.6-1-3.53-3.07-2.71-5.74.42-1.38,1.1-2.67,1.65-4,.27-.66.56-1.31.76-2,.36-1.21,0-2-1.21-2.19a22.94,22.94,0,0,0-4.3-.4,12.17,12.17,0,0,0-3.11.45c-1.41.38-1.79,1.14-1.25,2.5.39,1,.94,1.93,1.41,2.89a31.23,31.23,0,0,1,1.74,3.71c.78,2.32-.07,4.08-2.33,5.05a17,17,0,0,1-7.5,1.24c-2.8-.11-4.44,1.21-5.5,3.6a27.4,27.4,0,0,0-2,8.16,87.16,87.16,0,0,0-.31,16.86c.82,9.88,4,18.83,10.59,26.4,2.71,3.13,5.86,5.66,10,6.69a11.93,11.93,0,0,0,9.21-1.23,7.37,7.37,0,0,0,3.76-5.27,16.36,16.36,0,0,0,.07-6,7.27,7.27,0,0,0-7.93-6.15,9.36,9.36,0,0,0-5.18,1.67,1.26,1.26,0,0,1-1,.19,29.17,29.17,0,0,1-3.23-1.57,1.14,1.14,0,0,1-.38-1.72c1-1.49,2-3,3-4.41a1.84,1.84,0,0,1,1.29-.54q16.71,0,33.41,0a1.45,1.45,0,0,1,1.66,1.32c.22,1.39-.11,2.07-1.12,2.44-1.25.47-2.5.94-3.73,1.48a3,3,0,0,0-1.82,2.76,27.06,27.06,0,0,1-4.52,12.72,23,23,0,0,1-14.31,9.51c-8.56,2-17,1.65-25-2.24a36.08,36.08,0,0,1-13-10.94,41.59,41.59,0,0,1-8.86-25.15,64.06,64.06,0,0,1,7.13-30.47,20.34,20.34,0,0,1,3.22-4.35,4.54,4.54,0,0,1,5.25-1.23,28.17,28.17,0,0,0,7.95,1.86c2.27.12,3-.65,2.43-2.88s-1.21-4.36-1.71-6.56a10.05,10.05,0,0,1-.17-3,5.83,5.83,0,0,1,3.5-4.9,16.3,16.3,0,0,1,5.78-1.45,6.06,6.06,0,0,0,.74-.15Zm14.77,21.86a18.79,18.79,0,0,1-7.25-.71c-1.93-.72-2.82-2.19-2.15-4.12s1.69-3.59,2.52-5.4A46.8,46.8,0,0,0,167,49.17a2.7,2.7,0,0,0-1.24-3.23,9.31,9.31,0,0,0-2.41-1.13,37.86,37.86,0,0,0-12.05-1,16.83,16.83,0,0,0-6.22,1.24,4.71,4.71,0,0,0-3.14,4.89,25.86,25.86,0,0,0,.64,3.79c.43,1.87,1,3.7,1.38,5.58a2.67,2.67,0,0,1-2.56,3.35,5.45,5.45,0,0,1-1.8,0,76.1,76.1,0,0,1-7.65-1.85,3.87,3.87,0,0,0-4.34,1.06A17.29,17.29,0,0,0,124.16,67a67.15,67.15,0,0,0-6.2,23.5,41.36,41.36,0,0,0,7.1,27.55c3.78,5.52,8.46,10.07,14.64,12.85,7.86,3.53,16,3.72,24.22,1.57a21.44,21.44,0,0,0,14-10.91,26.27,26.27,0,0,0,3-10.22A3.7,3.7,0,0,1,183,108a42.3,42.3,0,0,1,4-1.73c.47-.17.62-.37.58-.85s-.4-.46-.74-.46H154.39a1.43,1.43,0,0,0-1,.3c-1,1.28-1.9,2.61-3,4.08,1,.48,1.78.88,2.6,1.23a.83.83,0,0,0,.64-.12,10.28,10.28,0,0,1,5.52-1.68c4.58-.15,8.31,2.16,9.32,7.08a17.16,17.16,0,0,1-.08,6.66,8.07,8.07,0,0,1-2.93,5.08,12.78,12.78,0,0,1-9.93,2.68A18.15,18.15,0,0,1,145,124.74c-6.86-6.88-10.6-15.3-12.15-24.79a63.23,63.23,0,0,1-.68-13.53c.21-3.7.56-7.4,1-11.07a15.73,15.73,0,0,1,2.57-7,5.31,5.31,0,0,1,4.64-2.51,26.77,26.77,0,0,0,3.23-.16,12.72,12.72,0,0,0,5.31-1.34,2.2,2.2,0,0,0,1.15-2.87,22.79,22.79,0,0,0-1.23-2.89c-.63-1.3-1.42-2.53-1.95-3.87-.86-2.2-.07-3.69,2.21-4.33a16.1,16.1,0,0,1,6.18-.37,9.86,9.86,0,0,1,2.52.6,2.29,2.29,0,0,1,1.56,2.55,10.53,10.53,0,0,1-.6,2.35c-.36,1-.86,1.86-1.27,2.8a14.37,14.37,0,0,0-.65,1.69c-.64,2.09-.1,3.36,1.88,4.32a16.35,16.35,0,0,0,6,1.36c2.07.16,4.15.16,6.22.33,1.86.15,2.74,1.22,2.74,3.1a7,7,0,0,1,0,.79c-.52,3.59-1,7.18-1.59,10.76a9.5,9.5,0,0,1-1.82,4.73,3,3,0,0,1-2.64,1.35,10,10,0,0,1-3.06-.89,2.07,2.07,0,0,1-1-2.88c.08-.2.14-.41.21-.62l-.15-.23c-1,.29-2,.52-2.89.9a3.21,3.21,0,0,0-2.2,2.82,3.53,3.53,0,0,0,1.76,3.62,9.23,9.23,0,0,0,3,1.17,19.71,19.71,0,0,0,7.76-.38,8.1,8.1,0,0,0,6.5-6.83,48.73,48.73,0,0,0,.6-9c-.11-3.22-.77-6.41-1.1-9.63-.5-4.88.57-9.3,4.08-12.94.09-.09.15-.2.41-.54a4,4,0,0,0-1.19.11,11,11,0,0,0-2,1.16A26.34,26.34,0,0,0,172,60C171.28,61.29,170.45,62.63,171.76,64.29Z" transform="translate(-1.29 -42.3)"/><path class="cls-1" d="M278.61,42.43c1.3.16,2.61.23,3.89.49a24.35,24.35,0,0,1,4.39,1.2c2.82,1.18,3.82,3.4,2.82,6.29A38.8,38.8,0,0,1,287.52,55c-.6,1.2-1.26,2.37-1.87,3.56a4.91,4.91,0,0,0-.4,1.19,1.87,1.87,0,0,0,1.35,2.54,21.51,21.51,0,0,0,3.31.64,9.92,9.92,0,0,0,1.45,0,9.41,9.41,0,0,1,2.1-5.09,24.31,24.31,0,0,1,6.94-7.13,7.77,7.77,0,0,1,2.57-.84c.62-.12,1.07.33,1.31.93a1.36,1.36,0,0,1-.21,1.61c-3.68,3.63-4.49,8.11-3.88,13,.36,2.87.83,5.73,1,8.61a35.53,35.53,0,0,1-.55,9.43,9.59,9.59,0,0,1-7.44,7.92,19.76,19.76,0,0,1-9.3.25,8.45,8.45,0,0,1-3.14-1.54,4.85,4.85,0,0,1,1-8.35,15.07,15.07,0,0,1,3.25-.91A1.53,1.53,0,0,1,286.68,83c-.45,1.2-.34,1.47.82,2,2.06.88,3.43.4,4.17-1.75A35.57,35.57,0,0,0,293,77.72c.43-2.51.7-5,1.07-7.58.33-2.3-.2-2.9-2.58-3s-4.58-.14-6.84-.42a19.85,19.85,0,0,1-4.56-1.17,4.37,4.37,0,0,1-2.79-5.93c.46-1.42,1.16-2.75,1.74-4.13a12.61,12.61,0,0,0,.67-1.77c.33-1.17,0-1.9-1.2-2.13a24.58,24.58,0,0,0-4.37-.4,12.17,12.17,0,0,0-3.11.45,1.59,1.59,0,0,0-1.22,2.46c.52,1.26,1.23,2.43,1.83,3.66A23.38,23.38,0,0,1,273,60.93a3.58,3.58,0,0,1-2.29,4.78,29.5,29.5,0,0,1-5.12,1.18,25.67,25.67,0,0,1-3.62.19,3.91,3.91,0,0,0-3.08,1.51,13.47,13.47,0,0,0-2.52,5.89,60.29,60.29,0,0,0-1.26,12.06,66.36,66.36,0,0,0,1.24,16.09A42.52,42.52,0,0,0,267,123.24c3,3.09,6.42,5.35,10.81,5.83a11.39,11.39,0,0,0,8.74-2.61,6.22,6.22,0,0,0,2.1-3.37,15.19,15.19,0,0,0,.25-7,7.27,7.27,0,0,0-7.94-5.94,9.33,9.33,0,0,0-5.17,1.7,1.07,1.07,0,0,1-.87.18,32.81,32.81,0,0,1-3.38-1.63,1.1,1.1,0,0,1-.35-1.66c1-1.51,2-3,3.09-4.46a1.71,1.71,0,0,1,1.22-.52q16.71,0,33.41,0c1.08,0,1.56.44,1.73,1.53a1.8,1.8,0,0,1-1.21,2.25c-1.48.59-2.94,1.24-4.38,1.92a2,2,0,0,0-1,1.72,28.42,28.42,0,0,1-4.46,13.08,22.63,22.63,0,0,1-13.22,9.39c-8.44,2.3-16.81,2.17-24.95-1.3-6.49-2.76-11.43-7.4-15.44-13.1a42,42,0,0,1-7.73-26.15,67.84,67.84,0,0,1,6.23-26.22A19.37,19.37,0,0,1,248.34,61a4.94,4.94,0,0,1,5.59-1.36,26.39,26.39,0,0,0,7.81,1.82l.15,0c2.09.09,2.76-.59,2.34-2.62-.34-1.67-.93-3.29-1.31-5a22.22,22.22,0,0,1-.63-4A5.88,5.88,0,0,1,265.85,44a16.61,16.61,0,0,1,5.71-1.43,6.31,6.31,0,0,0,.73-.15Zm-6.49,67c1,.49,1.8.89,2.61,1.23a.8.8,0,0,0,.64-.13,10.27,10.27,0,0,1,5.52-1.67c4.31-.14,8.05,1.88,9.22,6.7a16.54,16.54,0,0,1,0,6.9,8.52,8.52,0,0,1-4,6,13.22,13.22,0,0,1-9.84,1.78,18.69,18.69,0,0,1-9.92-5.66,43.72,43.72,0,0,1-11.49-22.24,69,69,0,0,1-1.11-15.71,62.65,62.65,0,0,1,1.13-11.76,16.45,16.45,0,0,1,2.64-6.7A5.33,5.33,0,0,1,262,65.78a28.77,28.77,0,0,0,4.55-.33,16.57,16.57,0,0,0,3.92-1.11,2.19,2.19,0,0,0,1.27-3,17,17,0,0,0-1.08-2.53c-.61-1.23-1.34-2.39-1.9-3.63-1.19-2.67-.29-4.52,2.58-5a33.18,33.18,0,0,1,5.73-.22,7.24,7.24,0,0,1,2.63.7,2.32,2.32,0,0,1,1.35,2.68,21.41,21.41,0,0,1-1,2.9c-.55,1.42-1.24,2.79-1.69,4.24a2.73,2.73,0,0,0,1.4,3.42,4.22,4.22,0,0,0,1.26.62,50,50,0,0,0,5.4,1.06c2.08.24,4.2.18,6.29.36a2.63,2.63,0,0,1,2.62,3,14.72,14.72,0,0,1-.13,1.88c-.27,2.09-.49,4.19-.86,6.25a45.68,45.68,0,0,1-1.47,6.6c-1,3-3.5,3.84-6.33,2.36a2.27,2.27,0,0,1-1.24-3.26,5,5,0,0,0,.14-.54,7.3,7.3,0,0,0-3.21.82,3.54,3.54,0,0,0-.56,6.15A8.38,8.38,0,0,0,285,90.56a19.67,19.67,0,0,0,7.68-.32,8.27,8.27,0,0,0,6.57-6.43,34.57,34.57,0,0,0,.58-11.07c-.25-2.8-.76-5.57-1-8.37a15.28,15.28,0,0,1,4-12.51,5.93,5.93,0,0,0,.39-.55,2.4,2.4,0,0,0-2.15.58,24.16,24.16,0,0,0-8,9.47c-.45.94-.81,1.94.24,2.87a25.16,25.16,0,0,1-2.86.07,11.09,11.09,0,0,1-4.82-1,3,3,0,0,1-1.68-3.4,10.54,10.54,0,0,1,.82-2.45c.67-1.37,1.5-2.66,2.18-4a27.73,27.73,0,0,0,1.7-4,3,3,0,0,0-1.6-3.79,11.05,11.05,0,0,0-2.55-1A34.94,34.94,0,0,0,274,43.78a28.92,28.92,0,0,0-6.22.91c-3.38.94-4.7,3.24-4,6.68.34,1.78.93,3.5,1.35,5.27a18.88,18.88,0,0,1,.56,3.32,2.47,2.47,0,0,1-2.13,2.64,7.72,7.72,0,0,1-1.8.12,32.07,32.07,0,0,1-8.64-2,2.9,2.9,0,0,0-2.76.37,6.22,6.22,0,0,0-1.52,1.36,31.15,31.15,0,0,0-2.8,4.28,65.6,65.6,0,0,0-6.4,24.49A41.21,41.21,0,0,0,248.17,120a33.62,33.62,0,0,0,14.59,11.45,35.85,35.85,0,0,0,24.51.46,20.93,20.93,0,0,0,12-9.72,28.21,28.21,0,0,0,3.48-11.45,3,3,0,0,1,1.22-2.19,13.55,13.55,0,0,1,4.6-2.19c.93-.28,1-.4.59-1.32a.53.53,0,0,0-.16,0q-16.62,0-33.24,0a1.06,1.06,0,0,0-.74.33C274.07,106.62,273.17,107.91,272.12,109.39Z" transform="translate(-1.29 -42.3)"/><path class="cls-1" d="M1.41,132a1.83,1.83,0,0,1,1.91-1.08,14,14,0,0,0,2.75-.13c2.84-.55,4.47-2.59,5.54-5.05a10.16,10.16,0,0,0,.83-3.88q.06-31,0-62.07A4.89,4.89,0,0,0,7.3,54.56c-.65,0-1.31,0-2,0a1.48,1.48,0,0,1-1.55-1.62A1.52,1.52,0,0,1,5.4,51.36c.24,0,.48,0,.71,0,8.22,0,16.43,0,24.64,0a40.2,40.2,0,0,1,17.74,3.85C59.27,60.47,67.49,68.36,71,80c4.84,16,1.51,30.31-10.72,42.14A40.78,40.78,0,0,1,38,133.46a42.23,42.23,0,0,1-6.35.58c-9.4.06-18.8,0-28.2,0a2.06,2.06,0,0,1-2-1Zm1.33.32,0,.31a4.63,4.63,0,0,0,.89.16c9.37,0,18.74,0,28.11,0a39,39,0,0,0,5.8-.52A40.36,40.36,0,0,0,61,119.57C71.44,108.5,74,95.47,70,81.08,68,73.46,63.3,67.43,57.31,62.38a39.59,39.59,0,0,0-25.43-9.66c-7.61-.13-15.22,0-22.82,0-1.11,0-2.21,0-3.32,0a2.44,2.44,0,0,0-.67.2l0,.37h2.3c3.66.06,6.35,2.61,6.35,6.06q0,31.47,0,62.93a9.82,9.82,0,0,1-9.95,10C3.45,132.23,3.1,132.27,2.74,132.3Z" transform="translate(-1.29 -42.3)"/><path class="cls-1" d="M450.17,73.71c3.05-3.66,6-7.16,8.88-10.65q4.62-5.55,9.27-11.08a1.55,1.55,0,0,1,1-.49c6.69,0,13.37,0,20.06,0,1.05,0,1.61.41,1.76,1.22a1.47,1.47,0,0,1-1.38,1.76c-1,.14-2.11.1-3.13.31-3.15.64-5.64,2.19-6.42,5.51a14.54,14.54,0,0,0-.19,4.47c.61,7.25,1.32,14.51,2,21.76.66,7,1.34,14.09,2,21.13.44,4.69.8,9.38,1.32,14.06a11,11,0,0,0,5.29,8.37,6.52,6.52,0,0,0,3.39.87,10.22,10.22,0,0,1,2.34.31,1.27,1.27,0,0,1,1,1.65,1.35,1.35,0,0,1-1.37,1.16H461.48a2.48,2.48,0,0,1-1.33-.32,1.4,1.4,0,0,1,.32-2.43,6.43,6.43,0,0,1,2-.36,7.13,7.13,0,0,0,7.22-6.63,26.37,26.37,0,0,0-.18-5.17c-.48-5.8-1-11.58-1.52-17.37q-.84-9.44-1.69-18.87c-.45-5-.88-10.11-1.32-15.17,0-.31-.08-.61-.14-1.12L446,89.37,424.05,68c-.1,1.31-.2,2.43-.26,3.55-.39,6.64-.8,13.29-1.15,19.93-.54,10.06-1,20.12-1.57,30.17a9.62,9.62,0,0,0,2.66,7.42,5.94,5.94,0,0,0,4.44,1.91,19.44,19.44,0,0,1,3.05.29c1,.19,1.38.73,1.27,1.57s-.64,1.26-1.62,1.26H404.66c-1,0-1.5-.41-1.62-1.25a1.41,1.41,0,0,1,1.25-1.7,5,5,0,0,1,1.33-.17,7.57,7.57,0,0,0,6.16-3,10.4,10.4,0,0,0,2.5-6.26c.49-8,1-16,1.46-24,.6-10.4,1.14-20.8,1.7-31.2.07-1.23.1-2.47.18-3.7.25-4.25-2.3-6.57-5.73-7.65a22,22,0,0,0-3.57-.56c-.44-.06-.89,0-1.33-.15a1.48,1.48,0,0,1,.13-2.9,4.1,4.1,0,0,1,.7,0c6.74,0,13.48,0,20.22,0a1.64,1.64,0,0,1,1.3.55q10,10.35,19.94,20.68C449.58,73,449.83,73.32,450.17,73.71Zm-19.2,59,0-.18c-.47-.07-.95-.15-1.42-.2a22.8,22.8,0,0,1-3.22-.28c-3.36-.77-6.43-4.6-6.55-8.32-.09-2.54.06-5.1.18-7.64.27-5.68.59-11.35.89-17,.23-4.36.43-8.72.68-13.08.39-6.61.82-13.23,1.23-19.84,0-.32.1-.63.17-1.12,7.72,7.52,15.29,14.92,22.9,22.35,6.69-8.07,13.29-16,20-24.14.06.37.09.51.1.66.28,3.15.55,6.29.83,9.43q.52,6,1.06,11.94c.34,3.78.66,7.55,1,11.32l1.05,11.78,1,11.71c.18,2,.45,4-.24,5.93-1.07,3-2.81,5.31-6.08,6.06a22.31,22.31,0,0,1-2.74.26c-.29,0-.58.14-.87.21l.05.13H496v-.23c-.62-.05-1.23-.12-1.85-.13a8.5,8.5,0,0,1-5.58-2.07,12.11,12.11,0,0,1-4.14-6.56,47,47,0,0,1-.68-5.31c-.43-4.34-.82-8.69-1.23-13q-.58-6.21-1.16-12.41-.6-6.45-1.21-12.88c-.34-3.67-.7-7.33-1-11-.2-2.19-.47-4.4-.48-6.6a8.13,8.13,0,0,1,4.66-7.89,19.23,19.23,0,0,1,4.12-1.24,15.33,15.33,0,0,1,2.35-.22v-.25h-.82c-6.24,0-12.47,0-18.71,0a1.7,1.7,0,0,0-1.46.7Q459.86,64.22,451,74.88c-.21.25-.45.49-.67.73l.21-.36c-1.64-1.48-3.35-2.89-4.9-4.47-5.66-5.79-11.26-11.65-16.91-17.46a1.66,1.66,0,0,0-1.09-.46q-9.83,0-19.66,0a4.36,4.36,0,0,0-.62.07,1.31,1.31,0,0,0,.76.26c1,.09,1.94.13,2.9.29,5.36,1,8.2,4.51,7.93,9.91q-.46,9.18-1,18.36c-.3,5.7-.6,11.4-.94,17.1q-.69,11.41-1.43,22.83c-.39,6.22-4.24,10.17-10.37,10.65a4.68,4.68,0,0,0-.8.2l.05.18Z" transform="translate(-1.29 -42.3)"/><path class="cls-1" d="M382.09,134.05H365.27c-1.06,0-1.61-.46-1.67-1.37a1.46,1.46,0,0,1,1.37-1.62c.41-.07.84-.09,1.25-.16a3.72,3.72,0,0,0,3.31-4.85,6.94,6.94,0,0,0-1.82-3.44c-3.82-4-8.17-7.07-13.7-8.09-7.89-1.45-15.25-.3-21.67,4.83a24.13,24.13,0,0,0-3,3.21,1.35,1.35,0,0,0-.21,1.06,9.69,9.69,0,0,0,9.36,7.4c1,0,2,0,3,0a1.42,1.42,0,0,1,1.56,1.57,1.39,1.39,0,0,1-1.59,1.44H311c-1,0-1.5-.45-1.57-1.29s.37-1.67,1.24-1.69c3.8-.06,6.46-2.2,8.72-4.9a19,19,0,0,0,2.76-4.46q12.6-28.39,25.08-56.84c1.55-3.51,3.53-6.75,6.79-8.91A49.74,49.74,0,0,1,360,52.78c1.33-.64,2.72-1.13,4.09-1.67,1-.4,1.68-.17,2,.67a1.44,1.44,0,0,1-.83,2.17c-.62.28-1.27.51-1.9.77-1.27.53-1.77,1.16-1.54,2.5a29.81,29.81,0,0,0,1.4,6c3.93,9.58,8,19.09,12,28.63q6.29,14.88,12.59,29.76a19.41,19.41,0,0,0,5,7.11,7.81,7.81,0,0,0,5.86,2.27,1.47,1.47,0,0,1,1.63.84,1.49,1.49,0,0,1-1.49,2.18ZM365,132.47l.05.17h34.06v-.22a3.4,3.4,0,0,0-.63-.08,8.71,8.71,0,0,1-6.38-2.48,20.16,20.16,0,0,1-5.36-7.5q-11.33-26.81-22.69-53.59c-1.46-3.46-3-6.87-3.47-10.68-.25-2.22.22-3.61,1.87-4.41.64-.31,1.31-.54,2-.82a4.19,4.19,0,0,0,.58-.34l-.09-.2a3.56,3.56,0,0,0-.56.15c-1.41.56-2.81,1.18-4.24,1.7-5.74,2.09-9.48,6.11-11.91,11.67-8.22,18.87-16.57,37.68-24.86,56.51a19,19,0,0,1-5.18,7,11,11,0,0,1-7,3c-.13,0-.27.13-.4.19l0,.11h30.83l0-.21a5.46,5.46,0,0,0-.69-.1h-2.53a10.89,10.89,0,0,1-10.72-8.92,1.94,1.94,0,0,1,.28-1.29,17.8,17.8,0,0,1,4.61-4.71,27.09,27.09,0,0,1,16.21-4.79c8.1,0,14.62,3.4,20,9.21a7.29,7.29,0,0,1,2.1,4.9c.07,3.36-1.71,5.31-5.07,5.59C365.57,132.35,365.29,132.42,365,132.47Z" transform="translate(-1.29 -42.3)"/><path class="cls-1" d="M94.55,134.06H77.34a1.54,1.54,0,0,1-1.56-2.17,1.42,1.42,0,0,1,1.53-1c.92,0,1.85,0,2.76-.07a5.63,5.63,0,0,0,3.18-1.48,9.89,9.89,0,0,0,3.48-7.56V59.73a4.87,4.87,0,0,0-5.12-5.17c-.68,0-1.37,0-2,0A1.46,1.46,0,0,1,78.05,53a1.52,1.52,0,0,1,1.58-1.6h29.54c1.42,0,2,.56,2,1.74A1.29,1.29,0,0,1,110,54.46a16.2,16.2,0,0,1-2.2.1A5.07,5.07,0,0,0,102.37,60q0,30.92,0,61.83a9.85,9.85,0,0,0,3.46,7.5,6.13,6.13,0,0,0,4.26,1.6c.61,0,1.21,0,1.82,0,1.08,0,1.64.6,1.62,1.61s-.59,1.54-1.68,1.54Zm0-1.29h16.75a4.42,4.42,0,0,0,.63,0c.1,0,.18-.14.27-.21-.09-.11-.17-.28-.27-.3-.29,0-.58,0-.87,0a18.61,18.61,0,0,1-3.27-.38c-3.62-1.06-6.67-5.44-6.67-9.56q0-31.5,0-63a5.61,5.61,0,0,1,2-4.36,7.8,7.8,0,0,1,5.75-1.68,2.86,2.86,0,0,0,.92-.31,3.75,3.75,0,0,0-.9-.24H80.32a1.48,1.48,0,0,0-.47,0,2.14,2.14,0,0,0-.44.3c.14.09.27.24.42.25.63,0,1.26,0,1.89,0a6.14,6.14,0,0,1,6.33,6.42V121.9a11.09,11.09,0,0,1-3.82,8.35,7,7,0,0,1-4.55,1.94c-.74,0-1.48,0-2.21.05-.15,0-.29.2-.43.3a1.46,1.46,0,0,0,.43.22,2.51,2.51,0,0,0,.55,0Z" transform="translate(-1.29 -42.3)"/><path class="cls-1" d="M219.87,90.92v30.64A10.18,10.18,0,0,0,223,129a6.32,6.32,0,0,0,4.6,1.93c.66,0,1.32,0,2,0a1.56,1.56,0,0,1-.11,3.12H194.79a1.43,1.43,0,0,1-1.57-1.57,1.45,1.45,0,0,1,1.51-1.56c.61,0,1.21,0,1.82,0a6.18,6.18,0,0,0,4.61-1.89,10.22,10.22,0,0,0,3.16-7.49q0-30.79,0-61.59c0-3.46-2-5.39-5.48-5.4a14.36,14.36,0,0,1-2-.08,1.39,1.39,0,0,1-1.27-1.54A1.46,1.46,0,0,1,197,51.4a4.36,4.36,0,0,1,.63,0h29c1.22,0,1.71.28,2,1.09a1.47,1.47,0,0,1-1.25,2,14.22,14.22,0,0,1-2,.07c-3.43,0-5.53,2.09-5.53,5.49Zm9.78,41.37h-1.8a7.79,7.79,0,0,1-5.78-2.3,11.06,11.06,0,0,1-3.51-8q0-31.22,0-62.45A5.94,5.94,0,0,1,222,54a8.61,8.61,0,0,1,4.44-.81,5.53,5.53,0,0,0,.9-.11l0-.24H197l0,.24a3.12,3.12,0,0,0,.61.11c.5,0,1,0,1.5,0a6.27,6.27,0,0,1,6.56,6.56q0,30.95,0,61.9a10.66,10.66,0,0,1-1.12,5c-1.34,2.61-3.13,4.77-6.16,5.45a23.52,23.52,0,0,1-3,.25,4.57,4.57,0,0,0-.72.14C195.47,132.88,229.23,132.8,229.65,132.29Z" transform="translate(-1.29 -42.3)"/><path class="cls-2" d="M171.76,64.29c-1.31-1.66-.48-3,.27-4.3a26.34,26.34,0,0,1,6.45-7.49,11,11,0,0,1,2-1.16,4,4,0,0,1,1.19-.11c-.26.34-.32.45-.41.54-3.51,3.64-4.58,8.06-4.08,12.94.33,3.22,1,6.41,1.1,9.63a48.73,48.73,0,0,1-.6,9,8.1,8.1,0,0,1-6.5,6.83,19.71,19.71,0,0,1-7.76.38,9.23,9.23,0,0,1-3-1.17,3.53,3.53,0,0,1-1.76-3.62,3.21,3.21,0,0,1,2.2-2.82c.93-.38,1.92-.61,2.89-.9l.15.23c-.07.21-.13.42-.21.62a2.07,2.07,0,0,0,1,2.88,10,10,0,0,0,3.06.89,3,3,0,0,0,2.64-1.35,9.5,9.5,0,0,0,1.82-4.73c.59-3.58,1.07-7.17,1.59-10.76a7,7,0,0,0,0-.79c0-1.88-.88-3-2.74-3.1-2.07-.17-4.15-.17-6.22-.33a16.35,16.35,0,0,1-6-1.36c-2-1-2.52-2.23-1.88-4.32a14.37,14.37,0,0,1,.65-1.69c.41-.94.91-1.84,1.27-2.8a10.53,10.53,0,0,0,.6-2.35,2.29,2.29,0,0,0-1.56-2.55,9.86,9.86,0,0,0-2.52-.6,16.1,16.1,0,0,0-6.18.37c-2.28.64-3.07,2.13-2.21,4.33.53,1.34,1.32,2.57,1.95,3.87a22.79,22.79,0,0,1,1.23,2.89,2.2,2.2,0,0,1-1.15,2.87,12.72,12.72,0,0,1-5.31,1.34,26.77,26.77,0,0,1-3.23.16,5.31,5.31,0,0,0-4.64,2.51,15.73,15.73,0,0,0-2.57,7c-.48,3.67-.83,7.37-1,11.07a63.23,63.23,0,0,0,.68,13.53c1.55,9.49,5.29,17.91,12.15,24.79a18.15,18.15,0,0,0,10.62,5.58,12.78,12.78,0,0,0,9.93-2.68,8.07,8.07,0,0,0,2.93-5.08,17.16,17.16,0,0,0,.08-6.66c-1-4.92-4.74-7.23-9.32-7.08a10.28,10.28,0,0,0-5.52,1.68.83.83,0,0,1-.64.12c-.82-.35-1.61-.75-2.6-1.23,1.05-1.47,2-2.8,3-4.08a1.43,1.43,0,0,1,1-.3h32.53c.34,0,.69-.07.74.46s-.11.68-.58.85a42.3,42.3,0,0,0-4,1.73,3.7,3.7,0,0,0-2.07,3.27,26.27,26.27,0,0,1-3,10.22,21.44,21.44,0,0,1-14,10.91c-8.22,2.15-16.36,2-24.22-1.57-6.18-2.78-10.86-7.33-14.64-12.85A41.36,41.36,0,0,1,118,90.47a67.15,67.15,0,0,1,6.2-23.5,17.29,17.29,0,0,1,3.44-5.07,3.87,3.87,0,0,1,4.34-1.06,76.1,76.1,0,0,0,7.65,1.85,5.45,5.45,0,0,0,1.8,0A2.67,2.67,0,0,0,144,59.31c-.35-1.88-.95-3.71-1.38-5.58a25.86,25.86,0,0,1-.64-3.79,4.71,4.71,0,0,1,3.14-4.89,16.83,16.83,0,0,1,6.22-1.24,37.86,37.86,0,0,1,12.05,1,9.31,9.31,0,0,1,2.41,1.13A2.7,2.7,0,0,1,167,49.17a46.8,46.8,0,0,1-2.11,4.89c-.83,1.81-1.88,3.54-2.52,5.4s.22,3.4,2.15,4.12A18.79,18.79,0,0,0,171.76,64.29Z" transform="translate(-1.29 -42.3)"/><path class="cls-2" d="M94.52,132.77H78a2.51,2.51,0,0,1-.55,0,1.46,1.46,0,0,1-.43-.22c.14-.1.28-.29.43-.3.73,0,1.47,0,2.21-.05a7,7,0,0,0,4.55-1.94,11.09,11.09,0,0,0,3.82-8.35V59.67a6.14,6.14,0,0,0-6.33-6.42c-.63,0-1.26,0-1.89,0-.15,0-.28-.16-.42-.25a2.14,2.14,0,0,1,.44-.3,1.48,1.48,0,0,1,.47,0h28.59a3.75,3.75,0,0,1,.9.24,2.86,2.86,0,0,1-.92.31,7.8,7.8,0,0,0-5.75,1.68,5.61,5.61,0,0,0-2,4.36q0,31.5,0,63c0,4.12,3,8.5,6.67,9.56a18.61,18.61,0,0,0,3.27.38c.29,0,.58,0,.87,0,.1,0,.18.19.27.3-.09.07-.17.19-.27.21a4.42,4.42,0,0,1-.63,0Z" transform="translate(-1.29 -42.3)"/><path class="cls-1" d="M26.82,91.69q0-15.24,0-30.48a14.37,14.37,0,0,1,.11-2c.35-2.34,1.5-3.35,3.88-3.36A20.24,20.24,0,0,1,44.48,61a36.32,36.32,0,0,1,10.93,17.3,50.47,50.47,0,0,1,1.8,19.44,41.4,41.4,0,0,1-5.56,17.91A29.53,29.53,0,0,1,41.48,126.3a20.09,20.09,0,0,1-10.31,2.77,3.42,3.42,0,0,1-3.58-2.43,16.4,16.4,0,0,1-.74-4.55C26.79,112,26.82,101.82,26.82,91.69Zm1.29,0c0,10.13,0,20.26,0,30.4a16,16,0,0,0,.63,3.94,2.29,2.29,0,0,0,2.5,1.73,18.57,18.57,0,0,0,11.52-3.91c5.56-4.3,9-10,11.21-16.62a48.35,48.35,0,0,0,1.95-19,40.55,40.55,0,0,0-5.11-17.32C48.25,66.38,45,62.41,40.48,59.74a17.77,17.77,0,0,0-10.19-2.48,1.89,1.89,0,0,0-2,1.9,15.13,15.13,0,0,0-.16,2.12Q28.1,76.49,28.11,91.69Z" transform="translate(-1.29 -42.3)"/><path class="cls-1" d="M329.62,114.63,349.7,68.85c.2.41.34.65.44.9q9.5,22.48,19,45c.46,1.1.47,1.1-.71,1.64a28.44,28.44,0,0,0-19-7.45,30.68,30.68,0,0,0-19.64,5.92ZM349.71,72.2l-17.15,39.08c11.9-5.48,23.35-5.2,34.48,2Z" transform="translate(-1.29 -42.3)"/><path d="M316.44,137.53a8.62,8.62,0,0,1,6.07,2.25,7.94,7.94,0,0,1,2.44,6.13,8.9,8.9,0,0,1-.63,3.46,6,6,0,0,1-1.72,2.41,8.74,8.74,0,0,1-5.66,1.83q-2.22,0-5-.24V137.68C313.4,137.58,314.91,137.53,316.44,137.53Zm.5,15.11a7.18,7.18,0,0,0,5-1.68,6.46,6.46,0,0,0,1.89-5.07,7,7,0,0,0-2.13-5.39,7.32,7.32,0,0,0-5.24-2c-1.34,0-2.5,0-3.48.11v13.86A33.77,33.77,0,0,0,316.94,152.64Z" transform="translate(-1.29 -42.3)"/><path d="M329.57,153.41V139.13h1v14.28Z" transform="translate(-1.29 -42.3)"/><path d="M341.82,139.81a5.29,5.29,0,0,0-4.1,1.86,6.59,6.59,0,0,0-1.66,4.57,6.27,6.27,0,0,0,1.87,4.59,6,6,0,0,0,4.41,1.88,10.36,10.36,0,0,0,4-.6v-5.87h1v6.33a9.23,9.23,0,0,1-4.86,1.06,7.25,7.25,0,0,1-5.3-2.13,7.1,7.1,0,0,1-2.16-5.25,7.42,7.42,0,0,1,1.95-5.23,6.55,6.55,0,0,1,5-2.11,15.83,15.83,0,0,1,4.86.77l-.27.84A15.94,15.94,0,0,0,341.82,139.81Z" transform="translate(-1.29 -42.3)"/><path d="M352.1,153.41V139.13h1v14.28Z" transform="translate(-1.29 -42.3)"/><path d="M360.94,140H356.1v-.9h10.67v.9h-4.84v13.38h-1Z" transform="translate(-1.29 -42.3)"/><path d="M369.1,148.46l-2,4.95h-1L372,139h.59l6,14.37h-1.12l-2.07-4.95Zm3.15-7.79c-.22.66-.42,1.21-.59,1.65l-2.2,5.28h5.63l-2.18-5.26C372.57,141.52,372.35,141,372.25,140.67Z" transform="translate(-1.29 -42.3)"/><path d="M381.53,153.41V139.13h1v13.36h6.56v.92Z" transform="translate(-1.29 -42.3)"/><path d="M402.32,140.45a7.37,7.37,0,0,0-1.82,5.07,7,7,0,0,0,2.06,5.1,6.84,6.84,0,0,0,5,2.09,11.13,11.13,0,0,0,4.25-.71v-6.47h1v7a10.16,10.16,0,0,1-5.35,1.18,8.09,8.09,0,0,1-8.2-8.15,8.18,8.18,0,0,1,2.16-5.76,7.18,7.18,0,0,1,5.52-2.34,17.17,17.17,0,0,1,5.35.88l-.29.88a17.57,17.57,0,0,0-5.06-.8A6,6,0,0,0,402.32,140.45Z" transform="translate(-1.29 -42.3)"/><path d="M418.8,148.46l-2.05,4.95h-1l6-14.37h.6l6,14.37H427.2l-2.06-4.95Zm3.15-7.79q-.33,1-.6,1.65l-2.2,5.28h5.63l-2.17-5.26C422.27,141.52,422.05,141,422,140.67Z" transform="translate(-1.29 -42.3)"/><path d="M437.85,152.66h-.59l-4.16-10.1a14.46,14.46,0,0,1-.53-1.38s0,.09,0,.24-.05.34-.08.58-.06.45-.09.61l-1.65,10.8h-1L432.07,139h.59l4.44,10.54a14.38,14.38,0,0,1,.53,1.39,11.5,11.5,0,0,1,.6-1.37L443.18,139h.59L446,153.41h-1.06l-1.56-10.85a12.83,12.83,0,0,1-.15-1.43l-.64,1.46Z" transform="translate(-1.29 -42.3)"/><path d="M449.73,153.41V139.13h6.67V140h-5.66v5.19h5.11v.86h-5.11v6.43h5.88v.92Z" transform="translate(-1.29 -42.3)"/><path d="M460.67,153.41V139.13h1v13.36h6.55v.92Z" transform="translate(-1.29 -42.3)"/><path d="M471.93,148.46l-2.05,4.95h-1l6-14.37h.6l6,14.37h-1.13l-2.07-4.95Zm3.15-7.79c-.23.66-.42,1.21-.6,1.65l-2.2,5.28h5.63l-2.17-5.26C475.4,141.52,475.18,141,475.08,140.67Z" transform="translate(-1.29 -42.3)"/><path d="M484.36,153.41V139h.48l9.37,10.78c.34.39.65.76.94,1.14l.45.58c0-.35,0-1,0-2.07V139.13h1V153.5h-.49l-9.54-11-1.21-1.47c0,.29,0,1,0,2.07v10.27Z" transform="translate(-1.29 -42.3)"/></svg>