<svg xmlns="http://www.w3.org/2000/svg" xml:space="preserve" style="enable-background:new 0 0 500 500" viewBox="0 0 500 500"><style>.st0{display:none}.st1{display:inline}.st2{fill:none;stroke:#f7931e;stroke-miterlimit:10}.st3{display:inline;opacity:.97}.st69{fill:#8b1700}.st70{fill:#f8a13b}.st71{fill:#f7931e}</style><g id="Layer_5"><path d="M444.45 301.3c0 107.53-87.17 194.7-194.7 194.7s-194.7-87.17-194.7-194.7" class="st2"/><path d="M102.91 170.7c.02.13.21.19.33-.07l-.17-.34-.16.41zM104.43 169.46c.04-.36.01-.83-.36-.82.09.44-.06.44.07.93-.12.25-.35.35-.43.24.02.13-.29.32-.2.56.41-.16.67-.54.74-1.06.12-.03.14.1.18.15zM119.47 146.97l-.13.13c.05-.03.09-.08.13-.13zM128.67 132.96c-.06.11-.06.17-.04.2.05-.12.08-.21.04-.2zM130.52 130.75c-.04.05-.07.09-.11.13.06-.04.11-.09.11-.13zM119.47 146.97l.33-.32c-.07-.09-.19.15-.33.32zM105.77 165.89c-.04.09-.05.17-.06.25l.09-.21c-.01-.01-.02-.02-.03-.04zM115.71 153.33l-.07.11c.01.05.03.11.05.17l.02-.28zM112.69 158.13c.08-.1-.13-.29-.21-.4.06.12.05.23.01.34.04.03.11.06.2.06zM107.42 165.43l-.05.16c.01-.04.03-.11.05-.16zM117.95 149.95c.04.01.08.02.11.01-.03-.02-.07-.02-.11-.01zM201.8 15.31c.01.01.03.02.04.03 0-.05-.02-.07-.04-.03zM206.52 10.53l-.04.08c.04.04.08.07.12.1l-.08-.18zM133.65 126.53l-.02.02c-.04.13 0 .06.02-.02zM159.44 85.95c-.51.32.21-.92-.47-.38.13 0-.04.86.47.38zM105.88 165.79c.04-.07.08-.13.12-.2-.06.08-.1.14-.12.2zM158.97 85.57l-.07.06c.03-.03.04-.04.07-.06zM140.03 116.28c-.05-.01-.11.01-.17.04.02.01.07.01.17-.04zM134.84 123.63l.15-.17c-.07.07-.12.12-.15.17zM142.21 112.14c.08-.09.14-.1.2-.26-.02.01-.04.01-.06.02 0 .07-.02.15-.14.24zM144.84 108.05c-.03.01-.06.03-.1.04-.02.04-.05.09-.07.14l.17-.18zM193.94 27.81c.12-.05.23-.06.33-.05-.2-.05.12-.69-.33.05zM105.91 165.97a.185.185 0 0 1-.02-.19c-.03.05-.05.1-.07.14.02.04.05.07.09.05zM140.45 110.78l.45-.63c-.13.17-.3.4-.45.63zM175.16 57.17l.07-.17c-.05.06-.07.11-.07.17zM142.11 108.2c.16-.06.29-.15.4-.26 0-.04 0-.08-.01-.11l-.39.37zM194.28 27.76z" class="st70"/><path d="M196.46 23.12c-.4.61.12.49.21.73-.39.8-.45.2-.77.34-.21.51-.16 1.05-.39 1.39-.07-.01-.13.05-.14-.07-.07.65-.92 1.46-.97 2.22-.05.02-.09.03-.12.02.21.01.38.1.48.19-.17.28-.13.64-.4.62.12-.17.04-.23.03-.35l-.1.35c-.46.07.15-.46-.06-.6-.27.63-.45 1.44-.81 1.83-.34-.09.56-1.08-.07-.66l.54-.6c-.78.22.29-.39-.49-.23-.65.83-.49 1.08-1.14 1.91.03.3.28.09.31.39-.52 1.44-1.35.53-1.56 1.69.04.36.34.69-.27 1.22l-.18-.43c-.58.84.15.79-.64 1.54-.02-.24.32-.74.2-.64-.63.42-.08.53-.37.98l-.35-.09c-.54.94-.98 2.08-1.57 3.12-.05-.11-.03-.34-.27-.16-.67 1.37-1.78 2.7-2.74 3.82l-.05.63c-.07.11-.24.13-.21-.02-.4.42.14.13.09.42-.16.28-.37.27-.34.05-.33.98-1.09 2.7-1.93 3.42l.04-.22c-.54.63 0 1.11-.64 1.6l.04-.15c-1.07 1.44-1.91 3.24-3.02 4.15.22.45-1.11 1.39-.68 1.8-.8.7-.73.4-1.67 1.5-.23.31 0 .68-.2 1.11l-.27-.16-.08.72-.5.09-.17.41c.11-.14.32-.24.38-.17-.26.66-1.1 1.31-1.24 1.24l-.67 1.53c-.08-.1.03-.35.08-.58-.21.91-.36-.04-.55.79.12-.05.12.15.17.2-.37.24-.87 1-1.17 1.62l-.11-.22c-.7 1-1.3 2.22-2.05 3.37.35-.36.6-.07.41.29l-.36-.04c.03.33.33-.29.25.29-.31.41-.5.09-.43-.22l-.24.58c-.1-.02-.07-.17-.15-.27.03.32-.85.73-.76 1.23l-.1-.02c-.74 1.15-.98 1.73-1.57 2.68.23.17-.06.5-.05.91-.52.64-1.2 1.29-1.71 2.13-.26.66.09.3.06.65-.24-.1-.76.75-.63.22-.6 1.02-.77 1.3-1.41 2.68.18-.08.31-.21.34-.08-.11.25-.42.46-.51.36l.02-.07c-.59 1.62-2.73 2.87-3 4.28l.02-.08-.52 1.32c-.38.51.05-.43-.34-.11-.45 1.49-1.33 1.96-1.76 3.15-1.15.4-1.79 2.88-2.89 3.71l.19.03c-.03.37-.3.28-.47.47.14.05.33-.22.3.01-1.34 2.49-3.37 4.77-5.06 7.12-.61.87.45 1-.63 1.9l-.07-.5c-.82 2.01-2.37 3.67-3.22 5.61 0-.15-.08-.2.03-.37-.44.24-.89 1.37-.73 1.48-.19.26-.19-.03-.38.08-.36.3-.34 1.1-.67 1.17-.05.01 0-.15.03-.23-.06.31-.75 1.12-.37 1.03-.54.59-.71 1.33-1.18 1.77.04.51-.85 1.05-.55 1.4-.35-.29-1.05.96-1.14 1.49-.03-.21-.35.29-.41.02-.3.48-.51.96-.26 1-1.02.59-.77 2-1.67 2.12-.7 1.55-1.41 2.95-2.13 4.28-.35-.29.87-1.43.43-1.63-.62 1.31-.74 2.22-1.6 3.36-.25.28-.05-.28-.05-.43-.62 1.31-1.53 2.31-2.01 3.52-.03-.03 0-.17.04-.29-.12.22-.37.46-.18.54l.09-.24c.47-.18-.02 1.18.09 1.3-.26-.68-.81.98-1.06.01-.06.16-.09.39.05.43-.17.19-.28.21-.27-.09-.39.82-.04.67-.48 1.35-.08-.06-.03-.22-.08-.35-.06.45-.12.91-.56 1.44-.03-.07-.14-.04-.02-.21-.61 1.01-.66 1.98-1.52 2.97-.16-.56-.36.3-.71.15l-.28.65.3-.14c-.34.51-.4 1.11-.79 1.49l.12-.47-.56 1 .47-.47c-.17.63.43.2-.09.83.06-.16-.33.51-.69.66-.06.32-.13.65-.45.98-.16.03-.3-.3-.4-.28.1.42-.7 1.25-.63 1.75 0-.15-.16-.26-.22-.25l.08.35c-.22.19-.28.21-.38.09-.5.69.54.03-.17.77.03-.08-.03-.07.03-.23-.64.8-.93 1.74-1.54 2.46-.47.03.36-.74-.07-.64-.67 1.17-1.13 2.59-1.91 3.64l.17-.18c.35.44-.74.68-.89 1.37.05-.16-.13-.34-.11-.27-.55.71-.88 1.61-1.47 2.84l-.02-.21c-.39.38-.81 1.13-1.17 1.57.02.22-.17.48.1.42-1.6 1.06-1.45 3.04-2.84 4 .1-.16.14-.44.06-.31l-.61 1.18c.25.04.21-.07.51-.21.02.22-.09.59-.26.86.19-.58-.32-.2-.56-.05.08 0 .1.12.17.14-.72.36.33.35-.41.99l-.08-.11c-.14.33-.18.69-.41.99-.31-.01.1-.38-.07-.52-.28.46-.14 1.16-.63 1.43.06-.23.24-.51.3-.74-.55.27-.52.37-.77.67l.03-.03-.61.69.2-.15c.22.94-.63 1.22-.73 2.22.11-.97-.13-.26-.35-.48-.2.15-.46.39-.48.26-.02.49-.55.5-.57 1.2-.1-.03-.25.38-.41.17-.23.51.21-.02.29.09-.18.9-1.43 1.47-1.7 2.76-.41.99-.24 1.34-.64 2.25-.31.2-.15-.42-.15-.42-.41.37-.61.73-.78 1.21-.02-.13-.13-.08-.31-.01-.2.35.15.42-.26.79-.04-.14-.12-.33-.11-.55-.18.45-.28.95-.48 1.41-.21.02-.06-.39-.06-.6-.24.51-.65 1.3-.51 1.58l.27-.25c-.1.18-.25-.04-.21-.19.08-.51.45-.53.55-.5l-.14.33c.68 0 .69-1.24 1.1-1.82l.19.47.1-.8c.17-.07.43-.04.29.29.45-.32.12-.46.55-.7.06-.02.06.01.05.05l.16-.48c.02.13.29.09.08.31.68-.62.51-1.38.96-1.49l-.02.08c.55-1.12-.19-.27.01-1.24l.97-.12-.19-.27c.08-.1.23-.3.31-.2.08-.51-.16 0-.17-.34.57-.37.8-1.5 1.29-1.35-.08-.31-.47.4-.25-.24.54.13.33-.69.84-1.03.13.29-.27.66.23.32-.2-.53.67-.87.86-1.31-.29-.21.43-.95.75-1.68.08.11.97-1.15 1.48-1.7l.04.05c-.23-.32.24-.92.47-1.43.17.14.19.27.11.57l.28-.44c-.03-.17 0-.34.15-.64l.16.26c.36-.59.48-1.35 1.12-2-.19-.18-.98.21-.62-.67.14.05.35.14.27.38.03-.08.06-.31.2-.41l-.01.44c.31-.29-.05-.28.14-.55.16.11.25-.13.36 0-.03.08-.22.19-.22.34.23-.29.57-.6.77-.64-.11-.03-.22-.14-.1-.38.36-.59.33-.07.63-.36-.02-.22.33-.51.09-.68.11-.17.25-.13.36-.15.08-.37.87-1.43.39-1.26l-.07.07c0-.02.01-.04.02-.06.39-1.15 1.46-1.97 1.99-3.02l.08.05c.28-.65.78-1.34.87-1.88.11-.17.41-.31.47-.17.23-.49.16-.6.72-1.16-.14.54.23-.07-.19.53.45-.54.66-.58.84-1.36.08.35.55-.27.66-.58l-.41.31c.17-.33.36-.59.56-.86l.18.33c1.11-.97.8-2.52 1.95-3.07.01-.44-.55.56-.6.13.39-.52 1.16-.84 1.27-1.01.64-.65.04-.96.65-1.68-.16.04-.49-.04-.21-.69.39-.53.85-.41.71-.01-.08.14-.15.18-.18.15-.08.2-.18.46.06.31l-.05-.14c.28-.21.75-.97.8-.69.17-.48-.05-.28-.3-.01.6-.61.71-1.1 1.27-1.76-.13.08-.31.11-.24 0 .81-.98.11-.59.53-1.34.41-.31.27.38.61-.43.39-.38.33.08.29.3.23-.78.92-1.15 1.2-1.51l-.14.4c.09-.24.2-.41.31-.58l-.33.07c.17-.18.28-.35.36-.3 0-.29-.44-.05-.35-.58.28-.21.42-.9.75-.82-.64.8.33.08-.1.83.06-.16.17-.33.34-.51.05-.01.04.06.02.13.76-.67-.06-.57.49-1.42.08.2.41-.02.47-.17-.22.34-.35 0-.27-.38.47-.47.29-.65.49-.92l-.26.29c-.08-.21.12-.47.31-.88.14.04-.14.4 0 .29.01-.59.88-.78 1.08-1.48.28-.21.3.15.52-.04.23-.78.66-.58.95-1.38-.33.07-.3.14-.19-.48l-.59 1.23.18-.92c-.22.34-.34.81-.51.99.06-.45.09-.39-.19-.33.6-.28.42-1.05.97-1.46l.49.34c.75-.68.68-1.62 1.48-2.6l-.31.29c-.11-.27.39-.67.53-1.07.15.14.34-.04.54-.12-.13-.06.51-.77.24-1.08l.52-.33c.64-.8.15-1.28.74-2.07.02.36.38.07.15.7.18-.27.37-.5.25-.58.21-.09.27-.91.59-1.06 0-.16-.15-.31.06-.61.06-.01.08.05.08.05-.08-.05.2-.56-.16-.4 1.06-.51 1.48-2.39 2.4-2.84.33-.64.74-1.39 1.08-1.95.03.07.08.05 0 .15.64-.65-.18-.77.54-1.51.55-.26-.15.55.13.34.62.23.59-1.08 1.28-1.45l-.06.16c.47-.32.48-1.21.98-1.9 0 0 .03.07.08.06.04-.67.54-1.66.91-2.4.08.35-.09.39.21.39.17-.33-.41-.13-.07-.79.25-.13.63-.51.9-.42l-.36.59c.49-.11.47-.76.72-1.04l.11.12c.53-.92.21-1.15.85-2.09l-.16.04c.01-.74.47-.32.56-1l.43.05c.14-.4.46-1.42.79-2.08.02.51-.32 1.32-.46 1.86.22-.34.72-1.18.68-1.47-.06.16-.09.39-.23.49.01-.59.24-1.23.68-1.91.57.53 1.31-1.68 2.13-1.86.54-1.36 1.64-2.34 2.51-3.77-.82.18.25-.42-.32-.66.18-.35.27-.47.32-.48l.95-.8c.3-.14-.09.39.05.43.5-.69.41-.16.85-.55-.25-.02-.1-.42.23-.78l-.61.43c.37-1.18.99-.59 1.37-1.78l-.04.42c.24-.58 1.23-1.92 1.15-2.69.12-.05.34-.09.23.17.86-1.2 1.34-3.05 2.21-3.85l.07.17c.11-.26.02-.56.34-.76.04.05.07.17.14.07.04-.15.17-.76.45-1.02l-.03.35c.94-1.11.85-2.08 1.42-3.15.37.24 1.1-.64 1.47-1.07l.04.05c.95-1.38 1.23-2.6 1.92-4 .92-.55 1.93-2.64 2.99-3.8-.2.16-.27-.22-.16-.47.27-.26.29-1.01.59-.74l-.08.1c.48-.02.8-.7 1.12-1.19l-.39-.37c1.47-.87 1.92-3.52 2.95-3.85.09-.38.34-.76.42-1.14l.23.17c.61-.82.92-1.23 1.54-2.33l.03.33c.4-.59-.2-1.2.14-1.76l.46.06c.66-1.05 1.66-1.91 2-3.15.04.05.12.15.03.33.32-.49 1.46-1.75.86-1.88.33.19.72-1.06.94-1.71l.18.24c.01-.67-.07-.74.28-1.45.13-.14.28-.02.08.15.46-.45.04-.55.57-1.11v.33c.36-.53.26-.54.27-.95.12-.4.72-.99.98-.93-.08-.16-.07-.56.2-.84.11.01.08.16.07.23.74-.8.59-1.52 1.22-1.99.09.04.15.02.21-.02-.47.71-.85 1.28-.83 1.22.22.14.63-.42.63.24.14-.57.29-1.59.76-2.09.04-.01.08-.03.12-.03l-.01.07c.11-.12.16-.25.19-.38.15-.16.25-.26.37-.43.22.05.52-.6.72-.89-.25-.13.03-.48-.39-.25.05-.03-.01.07-.12.27-.02.05-.05.1-.05.14 0-.01-.01-.02-.01-.03-.11.19-.27.45-.45.73.03-.31.08-.61.41-.84-.06-.25-.11-.51-.12-.65.58-.18 1.25-.83 1.52-.81.43-.97 1.25-2.14 1.16-2.98.1-.29.31-.21.44-.26-.05.17-.17.34-.15.46.21-.58.91-1.52.68-1.83.55-.54.06.54.56-.36l.02.18c1.59-1.39.99-3.29 2.84-4.78-.12.11-.18.16-.25.15 1.67-1.98 2.59-4.62 4.41-6.47.48-.55.32-.74.41-1.21l.34.03.11-.82c.36-1.03 1.62-1.15 1.94-2.55l-.27.04c.29-.39.73-1.36.88-1.16 0-.06-.09-.25.1-.35l.14.07.41-1.15c.59-.72.45.46 1.2-.66.22-.45.38-1.45.19-1.35-.12.17-.36.38-.5.31l.18-.43c-.35-.32-.56-.88-1.44-.1l-.18.81-.33.09.34-.56c-.38.2-.35.5-.39.79a.54.54 0 0 0-.39.14l-.04.89c-.2-.02-.12-.49-.48-.11-.02.41.53-.07.32.5-.38.2-.47.02-.55.48-.13-.01-.15-.13-.1-.31-.09.41-.51.9-.41 1.21-.43.19-.66 1.15-1.01.88.02.16-.08.77-.26 1.08-.09-.84-.75 1.12-1.14.66.14.67-.77 1.59-1.01 2.46-.01-.06-.02-.18.04-.23-.29.39-.49.43-.73.64.3.26-.04.95-.05 1.42-.64.3-.19-.55-.6-.59.28.15-.29 1.04.04 1.01-.44.26-.31.27-.71.29.37.33-.16.4-.11.88-.56.42-.48-.11-.74.58-.31.28-.11-.35-.11-.35zm-8.56 14.91c.07-.13.13-.24.17-.31-.03.07-.08.16-.17.31zm-.78 1.22c.1-.14.22-.33.35-.52.11.01.16.11.08.23-.01-.1-.24.15-.43.29zm3.29-1.52c-.09.21-.18.25-.24.24.05-.09.11-.2.19-.35-.01-.01-.01-.03-.01-.04.03.05.06.1.06.15z" class="st70"/><path d="M190.32 37.19c.01-.03.01-.05.03-.09-.05.03-.09.05-.13.08l.03.12c.03-.04.06-.08.07-.11zM119.32 147.12l.02-.02a.09.09 0 0 1-.07.03c.03-.01.03-.01.05-.01zM175.91 55.74l.06.04.02-.14zM114.22 153.29c-.03 0-.07.01-.12.05.02 0 .06-.02.12-.05zM112.31 156.14l-.35.35c.16-.14.27-.25.35-.35zM110.77 158.29c.02.05.05.08.07.11l-.07-.11zM133.16 122.77c.02-.03.03-.06.04-.09.08-.23.01-.08-.04.09zM126.96 133.64c.03-.14.06-.28.11-.41-.14.18-.24.32-.11.41zM140.4 110.85s.01 0 0 0c.02-.02.03-.04.05-.07l-.05.07zM127.39 132.75c-.17.16-.26.32-.32.49.11-.15.25-.31.32-.49zM104.48 167.86l-.08.1c.02.01.03.02.03.04l.05-.14z" class="st70"/><path d="m104.43 167.99-.05.14c.04-.05.07-.1.05-.14zM104.28 168.42l.1-.29c-.05.09-.13.19-.1.29zM106.48 164.98l-.06-.09c0 .04.02.07.06.09zM107.02 164.07c-.16.2-.53.42-.66.75l.05.07c-.04-.22.63-.52.61-.82zM110.48 161.02l-.55.71c.18-.07.41-.17.21.19.88-.77-.33.06.34-.9zM112.1 158.78c-.22.43.14.08.17.13.09-.3.1-.37-.17-.13zM122.87 141.99l.19.18c.17-.33-.08-.05-.19-.18zM123.82 138.07l-.33.22.11.27zM126.57 137.16l-.06.15.26-.56zM144.58 108.91l-.33-.08c-.08.25.19.48.33.08zM152.12 96.57c.22-.05.52-.34.53-.63-.2.26-.48.46-.53.63zM175.97 60.33l-.07.31.22-.51zM399.11 171.41c.13.04.26-.12.08-.33l-.38.01.3.32zM398.62 169.52c-.31-.19-.75-.35-.89-.01.44.1.37.24.88.32.18.21.17.46.04.49.12.04.17.4.43.41.02-.44-.22-.83-.65-1.12 0-.12.12-.08.19-.09zM384.45 146.47l.06.17a.578.578 0 0 0-.06-.17zM375.55 132.26c.08.1.13.13.16.12-.08-.09-.15-.16-.16-.12zM374.31 129.66c.02.06.05.1.07.15 0-.07-.02-.13-.07-.15zM384.45 146.47l-.15-.43c-.11.03.05.23.15.43zM395.93 166.81c.06.07.13.12.2.16-.05-.06-.1-.11-.15-.17-.01 0-.03 0-.05.01zM388.66 152.54l.07.11c.05.01.11.02.17.02l-.24-.13zM391.77 157.29c-.06-.11-.32 0-.45.02.14 0 .23.05.31.13.05-.02.09-.07.14-.15zM396.2 165.12l.12.11c-.03-.02-.08-.07-.12-.11zM386.52 149.09c.03-.03.05-.07.06-.1-.03.02-.05.06-.06.1zM299.12 16.73c.02-.01.03-.02.04-.03-.04-.01-.07 0-.04.03zM296.74 10.45l.06.07c.05-.02.1-.04.14-.07h-.2zM371.79 125.05c0 .01 0 .01.01.02.1.1.05.04-.01-.02zM345.66 84.7c.08.59-.75-.57-.54.27.05-.13.77.38.54-.27zM395.88 166.66l-.13-.19c.06.09.09.15.13.19zM345.11 84.96s0 .01 0 0l.02.09c0-.03-.01-.06-.02-.09zM365.13 114.99c-.03.05-.03.11-.04.17.03-.02.04-.06.04-.17zM369.65 122.77l-.09-.21c.03.09.06.15.09.21zM362.28 111.27c-.05-.11-.04-.17-.16-.29v.06c.06.03.12.09.16.23zM359.65 107.18v.11c.03.04.06.08.1.12l-.1-.23zM307.2 29.09c.01-.13.05-.24.09-.33-.13.17-.57-.39-.09.33zM396.06 166.72c-.07.01-.13 0-.18-.06.03.05.07.09.1.13.05-.01.08-.03.08-.07zM360.3 112.3l-.38-.67c.1.2.23.44.38.67zM326.05 58.4l-.12-.13c.03.06.07.11.12.13zM358.65 109.72c.01-.17-.02-.32-.07-.47-.04-.01-.07-.04-.11-.04l.18.51zM307.29 28.76z" class="st70"/><path d="M303.99 24.84c.39.62.49.1.75.11.56.68-.01.49-.01.84.38.41.89.58 1.1.93-.03.06-.01.14-.12.1.56.33.94 1.44 1.62 1.81 0 .06-.01.1-.03.12.1-.19.25-.31.37-.36.18.27.53.39.39.62-.1-.17-.19-.14-.31-.17l.27.23c-.12.45-.36-.33-.57-.19.46.51 1.12 1.01 1.32 1.5-.23.27-.75-.95-.63-.21l-.32-.74c-.12.8-.23-.43-.41.35.48.94.78.9 1.26 1.83.29.1.19-.22.48-.12 1.09 1.07-.09 1.45.89 2.13.34.12.76-.02.99.76l-.47-.02c.52.88.78.19 1.14 1.23-.23-.08-.54-.6-.49-.45.12.74.45.29.73.74l-.23.28c.63.88 1.48 1.76 2.18 2.73-.12 0-.32-.12-.26.18.96 1.18 1.71 2.74 2.33 4.08l.55.31c.07.11.02.27-.11.19.21.54.17-.08.42.09.19.26.09.45-.1.33.75.71 2 2.12 2.3 3.18l-.18-.13c.34.76 1.01.46 1.19 1.25l-.12-.1c.86 1.57 2.15 3.09 2.51 4.48.5-.01.8 1.59 1.36 1.37.31 1.02.06.83.67 2.14.18.34.62.28.93.65l-.25.18.62.37-.13.49.31.33c-.08-.16-.09-.39 0-.42.49.51.73 1.54.61 1.64l1.11 1.24c-.12.04-.31-.17-.49-.31.74.57-.19.31.49.83 0-.13.19-.05.25-.07.06.44.55 1.21.98 1.73l-.25.01c.61 1.06 1.47 2.11 2.21 3.27-.18-.47.19-.57.44-.25l-.19.31c.31.11-.12-.42.37-.1.24.45-.13.49-.37.3l.43.46c-.06.08-.18-.01-.31.02.31.11.3 1.08.8 1.2l-.06.08c.74 1.15 1.17 1.62 1.78 2.55.25-.13.43.27.8.42.37.74.67 1.62 1.23 2.44.49.51.31.04.62.21-.19.18.36 1-.07.67.68.98.86 1.25 1.85 2.4 0-.19-.06-.37.06-.34.18.21.24.58.12.61l-.06-.05c1.23 1.21 1.47 3.67 2.64 4.51l-.06-.05.98 1.02c.31.56-.37-.22-.25.27 1.17 1.03 1.23 2.03 2.13 2.91-.12 1.21 1.88 2.83 2.17 4.17l.11-.16c.33.19.13.39.23.62.1-.1-.06-.39.13-.27 1.71 2.26 2.93 5.05 4.36 7.57.53.92 1.1.01 1.46 1.36l-.48-.14c1.49 1.58 2.35 3.68 3.76 5.26-.13-.06-.22-.01-.33-.19.04.5.87 1.38 1.04 1.28.16.29-.11.16-.08.38.12.45.86.77.78 1.1-.01.05-.13-.06-.19-.12.25.18.7 1.15.79.77.31.73.91 1.2 1.11 1.81.48.18.6 1.21 1.04 1.08-.41.2.44 1.36.88 1.66-.2-.07.11.44-.15.38.31.47.66.87.8.66.11 1.17 1.5 1.53 1.23 2.4 1.11 1.29 2.09 2.51 3 3.72-.41.2-.94-1.38-1.3-1.07.93 1.11 1.7 1.6 2.38 2.85.15.34-.28-.07-.41-.13.93 1.11 1.46 2.36 2.36 3.3-.04.02-.15-.07-.25-.16.15.2.26.53.42.39l-.18-.18c.03-.5 1.06.51 1.22.46-.73-.04.56 1.14-.43.97.12.12.32.24.41.14.1.23.07.34-.19.21.58.7.59.31 1.03 1-.09.05-.21-.07-.35-.07.39.24.77.49 1.08 1.11-.07 0-.1.11-.2-.07.67.98 1.52 1.42 2.07 2.62-.57-.09.12.45-.16.71l.47.53v-.33c.33.52.85.83 1.03 1.34l-.38-.3.68.93-.23-.62c.5.42.36-.31.71.43-.12-.12.33.52.31.91.26.19.54.39.7.82-.04.16-.4.14-.42.25.42.08.85 1.16 1.33 1.3-.13-.06-.3.04-.31.09l.35.07c.08.28.07.34-.08.38.42.74.25-.48.63.48-.06-.06-.07 0-.19-.12.46.91 1.2 1.57 1.6 2.42-.17.43-.52-.64-.61-.2.78 1.1 1.89 2.11 2.51 3.25l-.1-.23c.54-.13.3.96.87 1.38-.12-.11-.36-.02-.29-.01.41.8 1.1 1.47 1.97 2.52l-.21-.07c.18.51.69 1.2.94 1.72.21.07.36.35.42.08.29 1.89 2.16 2.59 2.45 4.25-.1-.16-.34-.31-.26-.18l.82 1.05c.14-.21.02-.22.03-.55.21.07.5.32.67.6-.45-.42-.31.2-.28.49.04-.07.15-.04.2-.1.03.8.45-.15.73.79l-.13.02c.24.26.55.45.73.79-.14.28-.31-.25-.51-.15.3.44 1 .62 1.03 1.17-.19-.15-.36-.43-.55-.58.02.61.12.62.29.98l-.01-.04.37.84-.05-.24c.95.19.84 1.08 1.72 1.59-.84-.51-.29.01-.58.12.05.24.16.59.04.55.44.23.22.7.85 1.02-.07.08.24.39-.02.44.36.43.07-.2.2-.23.74.54.75 1.91 1.79 2.7.73.79 1.11.78 1.78 1.52.05.36-.45-.04-.45-.04.17.53.41.85.78 1.22-.13-.04-.13.09-.14.28.24.33.45.04.61.56-.14-.02-.35-.02-.55-.13.33.35.74.65 1.08 1.02-.07.2-.38-.11-.57-.2.36.43.91 1.13 1.23 1.13l-.11-.35c.12.16-.14.21-.26.11-.43-.29-.29-.63-.22-.7l.24.26c.29-.61-.84-1.14-1.2-1.76l.51.02-.68-.43c.01-.19.15-.4.39-.14-.1-.54-.37-.3-.41-.79 0-.06.03-.05.07-.02l-.37-.35c.13.03.2-.23.32.06-.28-.88-1.04-1.04-.95-1.49l.06.05c-.79-.96-.32.06-1.12-.52l.3-.93-.32.06c-.06-.11-.18-.34-.05-.36-.43-.29-.07.14-.38.01-.1-.67-1.02-1.35-.69-1.73-.31-.06.17.59-.32.13.34-.44-.48-.59-.59-1.19.32 0 .49.52.39-.08-.57-.04-.51-.97-.83-1.32-.32.18-.68-.78-1.21-1.39.13-.02-.64-1.37-.93-2.06l.06-.01c-.39.08-.74-.6-1.1-1.03.2-.1.32-.06.57.14l-.28-.44c-.17-.04-.31-.14-.52-.41l.3-.04c-.39-.58-1.03-1-1.35-1.85-.24.1-.22.98-.87.28.1-.1.28-.26.46-.08-.06-.06-.25-.18-.29-.35l.4.19c-.13-.4-.28-.07-.44-.36.17-.1-.01-.28.15-.32.06.06.08.28.22.35-.17-.33-.31-.76-.26-.97-.08.09-.22.14-.39-.07-.39-.58.07-.33-.06-.72-.21-.07-.33-.52-.58-.37-.11-.17-.01-.28.01-.39-.3-.23-.94-1.39-.98-.88l.03.09-.04-.04c-.88-.83-1.18-2.15-1.92-3.06l.08-.05c-.47-.53-.89-1.27-1.34-1.57-.11-.17-.11-.51.04-.5-.35-.41-.48-.4-.75-1.14.43.36.03-.24.4.39-.3-.63-.25-.85-.88-1.33.35.08-.01-.61-.25-.85l.11.51c-.23-.29-.39-.58-.55-.86l.38-.03c-.42-1.41-1.96-1.78-1.97-3.05-.4-.19.28.74-.13.6-.31-.57-.28-1.4-.39-1.57-.33-.85-.86-.44-1.26-1.29-.04.16-.24.43-.71-.1-.32-.57-.01-.94.29-.65.09.13.1.21.06.23.15.15.34.36.31.07l-.15-.01c-.07-.34-.57-1.09-.29-1.01-.36-.35-.28-.07-.13.27-.31-.8-.7-1.1-1.07-1.89.02.15-.03.33-.1.22-.56-1.14-.49-.35-1-1.04-.11-.51.46-.09-.14-.73-.18-.51.2-.26.4-.14-.62-.54-.67-1.32-.87-1.72l.3.3c-.18-.18-.29-.35-.4-.52l-.07.33c-.1-.23-.21-.4-.12-.45-.27-.13-.23.37-.68.07-.07-.34-.64-.76-.44-1.02.46.91.21-.27.71.43-.12-.12-.23-.29-.33-.52.01-.05.07-.01.12.04-.29-.97-.54-.18-1.08-1.04.22.01.16-.38.04-.5.22.34-.14.32-.46.08-.23-.62-.47-.54-.64-.83l.15.36c-.22-.01-.38-.3-.67-.65.1-.11.3.29.27.13-.53-.25-.34-1.13-.89-1.6-.07-.34.26-.21.18-.49-.62-.53-.25-.85-.86-1.44-.07.33 0 .33-.51-.03l.87 1.05-.76-.54c.22.35.59.64.69.87-.39-.24-.31-.24-.38.03 0-.66-.77-.82-.92-1.49l.51-.3c-.3-.96-1.19-1.29-1.74-2.43l.13.4c-.29-.02-.45-.64-.75-.93.19-.07.11-.33.12-.54-.11.1-.49-.78-.88-.67l-.09-.61c-.46-.91-1.1-.67-1.57-1.53.34.13.22-.32.7.15-.17-.28-.3-.54-.42-.47 0-.23-.71-.62-.72-.97-.15-.07-.35 0-.53-.31.01-.06.08-.05.08-.05-.08.05-.42-.41-.43-.02-.02-1.18-1.56-2.34-1.58-3.37-.44-.56-.96-1.25-1.32-1.79.07 0 .08-.05.13.06-.33-.85-.77-.16-1.15-1.12-.01-.61.44.36.36.02.47-.47-.74-.98-.79-1.76l.12.12c-.1-.56-.9-.94-1.32-1.68 0 0 .07 0 .09-.05-.59-.31-1.28-1.18-1.8-1.83.35.08.31.24.45-.03-.23-.29-.29.31-.75-.26-.01-.28-.2-.79 0-1l.39.58c.11-.49-.49-.75-.64-1.09l.16-.04c-.62-.87-.95-.67-1.55-1.64l-.06.09c-.66-.32-.1-.56-.68-.93l.23-.37c-.3-.3-1.1-1.01-1.56-1.59.47.19 1.06.84 1.5 1.2-.22-.35-.77-1.15-1.05-1.23.12.12.31.24.35.41-.53-.25-1.02-.73-1.45-1.41.72-.29-.98-1.89-.8-2.71-1.02-1.06-1.44-2.47-2.38-3.86-.18.82-.28-.4-.74.01-.24-.31-.32-.44-.3-.49l-.33-1.19c0-.33.31.24.41.14-.42-.75.02-.44-.14-1.01-.12.22-.42-.08-.62-.54l.13.73c-.92-.83-.13-1.15-1.05-1.99l.37.22c-.43-.46-1.23-1.92-1.97-2.17 0-.13.06-.34.25-.14-.74-1.28-2.22-2.49-2.58-3.62l.19.01c-.19-.21-.5-.25-.56-.62.06-.02.19.01.12-.1-.12-.09-.62-.47-.74-.83l.31.17c-.61-1.32-1.54-1.64-2.28-2.6.37-.24-.12-1.27-.36-1.78l.06-.02c-.86-1.44-1.85-2.2-2.83-3.42-.12-1.07-1.6-2.86-2.21-4.31.06.24-.31.15-.5-.06-.12-.35-.8-.68-.43-.85l.06.11c.19-.44-.31-1.02-.61-1.51l-.5.2c-.18-1.7-2.4-3.21-2.27-4.29-.31-.24-.56-.62-.86-.86l.25-.14c-.49-.9-.74-1.35-1.47-2.37l.31.11c-.37-.61-1.17-.32-1.54-.86l.25-.39c-.68-1.04-1.04-2.3-2.03-3.13.06-.02.19-.05.31.11-.31-.5-.98-2.06-1.35-1.57.31-.22-.66-1.1-1.16-1.57l.29-.06c-.61-.28-.7-.25-1.21-.86-.07-.18.1-.26.17-.01-.21-.6-.48-.27-.77-.98l.3.14c-.33-.55-.38-.46-.75-.64-.31-.28-.6-1.06-.44-1.28-.18.01-.54-.17-.68-.53.05-.09.18-.01.24.03-.42-1.01-1.13-1.17-1.3-1.94.07-.06.08-.13.07-.19.45.72.81 1.31.76 1.26.22-.14-.12-.74.48-.47-.46-.36-1.33-.93-1.59-1.56 0-.04.01-.08.03-.12l.06.04a.87.87 0 0 0-.26-.33c-.08-.2-.13-.33-.24-.51.14-.18-.33-.73-.51-1.02-.22.18-.43-.23-.39.25-.01-.06.06.04.2.22.03.04.07.09.1.11-.01 0-.02 0-.03-.01.13.19.29.43.48.71-.27-.15-.52-.33-.59-.73-.25-.05-.51-.11-.64-.16.08-.61-.23-1.48-.1-1.72-.7-.8-1.42-2.02-2.22-2.29-.22-.21-.06-.37-.05-.51.14.12.24.29.36.33-.44-.43-1-1.46-1.39-1.38-.27-.72.51.17-.09-.66l.17.06c-.6-2.03-2.58-2.27-3.16-4.58.05.16.07.23.03.29-1.11-2.34-3.12-4.29-4.04-6.7-.3-.66-.54-.6-.93-.88l.17-.29-.7-.44c-.79-.76-.37-1.95-1.51-2.83l-.07.27c-.23-.43-.93-1.23-.69-1.29-.06-.02-.26-.02-.28-.24l.13-.1-.87-.86c-.4-.84.61-.22-.1-1.37-.32-.39-1.16-.95-1.14-.74.1.17.2.49.07.59l-.32-.34c-.44.18-1.03.14-.7 1.26l.66.51-.05.33-.37-.55c.02.43.31.53.56.68-.07.12-.08.26-.03.41l.79.41c-.1.18-.49-.1-.3.39.37.19.16-.51.59-.08.02.43-.18.43.21.7-.07.12-.18.08-.32-.04.33.25.61.84.93.88-.01.47.77 1.08.38 1.28.16.05.66.39.87.69-.8-.27.7 1.15.13 1.31.66.15 1.13 1.36 1.81 1.95-.06-.02-.17-.06-.19-.14.23.43.18.63.28.94.36-.16.85.43 1.27.64 0 .7-.58-.06-.79.3.25-.2.82.7.94.38.05.51.12.39-.03.76.46-.2.3.31.76.47.15.68-.29.39.22.92.06.39-.43-.06-.43-.06zm9.98 14s0 .01 0 0c-.09-.12-.16-.22-.21-.29.05.07.11.15.21.29zm.79 1.22c-.09-.15-.2-.34-.33-.53.05-.09.17-.1.24.02-.1-.04.04.28.09.51zm-.01-3.63c.16.17.15.27.12.32-.06-.09-.14-.19-.24-.32h-.04c.05-.01.1-.01.16 0z" class="st70"/><path d="M314.22 36.29c-.02-.02-.04-.03-.07-.07 0 .05.01.1.02.15.04.01.08.02.12.02-.03-.04-.05-.07-.07-.1zM384.52 146.66l-.01-.03c0 .03.01.05 0 .08 0-.02.01-.03.01-.05zM325.07 57.13l.06-.04-.12-.08zM388 153.88c-.01.03-.02.07 0 .13.01-.02.01-.07 0-.13zM389.8 156.8l.18.46c-.07-.2-.13-.35-.18-.46zM391.11 159.1c.06 0 .1-.01.13-.02v-.01l-.13.03zM368.16 123.94a.27.27 0 0 0-.07-.08c-.17-.17-.06-.05.07.08zM375.46 134.1c-.11-.08-.23-.17-.33-.27.11.2.19.35.33.27zM360.35 112.38c-.01-.03-.03-.05-.04-.07l.04.07zM374.82 133.34c.07.22.18.37.31.49-.08-.16-.17-.36-.31-.49zM397.18 168.8l.06.11c.01-.01.03-.01.05-.01l-.11-.1zM397.29 168.91l.1.1c-.03-.06-.07-.1-.1-.1zM397.61 169.22l-.22-.21c.06.08.12.2.22.21zM395.4 165.79l-.11.02c.04.01.07 0 .11-.02z" class="st70"/><path d="M394.81 164.91c.12.23.16.65.4.92l.09-.02c-.22-.06-.22-.79-.49-.9zM393.47 160.5l.41.79c.01-.19.02-.44.26-.11-.33-1.12-.08.33-.67-.68zM392.11 158.09c.3.38.13-.09.19-.1-.24-.2-.3-.25-.19.1zM381.35 141.3l.24-.1c-.23-.29-.09.05-.24.1zM378.17 138.81l.06.38.29.02zM378.49 135.93l.12.11-.41-.47zM360.33 107.78l-.2.26c.18.18.5.03.2-.26zM352.25 95.78c.05-.22-.09-.61-.35-.74.15.28.23.62.35.74zM329.26 58.99l.25.19-.37-.42z" class="st70"/><path d="M55.05 301.3c0-107.53 87.17-194.7 194.7-194.7s194.7 87.17 194.7 194.7" class="st2"/><circle cx="249.75" cy="301.3" r="136.45" class="st2"/><circle cx="249.75" cy="301.3" r="43.27" class="st2"/><path d="M283.86 300.89c.2 4.47-.55 9-2.14 13.25a34.9 34.9 0 0 1-7.5 11.23c-3.21 3.2-7.04 5.77-11.23 7.5a34.84 34.84 0 0 1-13.25 2.64c-4.53-.01-9.06-.9-13.25-2.64-4.19-1.73-8.02-4.3-11.23-7.5-3.2-3.21-5.77-7.04-7.5-11.23-1.58-4.25-2.33-8.78-2.14-13.25.21 4.46 1.22 8.86 3.06 12.86 1.68 4.07 4.17 7.79 7.28 10.91 3.11 3.11 6.84 5.6 10.91 7.28 4.06 1.69 8.46 2.55 12.86 2.56 4.4-.01 8.8-.87 12.86-2.56 4.07-1.68 7.79-4.17 10.91-7.28 3.11-3.11 5.6-6.84 7.28-10.91 1.86-4 2.87-8.4 3.08-12.86z" class="st71"/><path d="M435.2 292.57c.38 24.73-3.61 49.62-12.18 72.97-8.83 23.23-22.23 44.76-39.44 62.73-8.59 8.99-18.11 17.1-28.36 24.14a180.45 180.45 0 0 1-32.74 17.74c-22.97 9.57-47.88 14.26-72.73 14.28-24.85-.01-49.75-4.71-72.73-14.28a181.066 181.066 0 0 1-32.74-17.74 181.021 181.021 0 0 1-28.36-24.14c-17.2-17.97-30.61-39.5-39.43-62.73-8.55-23.36-12.48-48.24-12.18-72.97.37 24.73 4.96 49.38 14.05 72.26 8.73 22.99 22 44.28 39.01 62.06 8.5 8.89 17.91 16.91 28.05 23.87a178.692 178.692 0 0 0 32.38 17.55c22.72 9.46 47.35 14.11 71.96 14.12 24.6-.01 49.24-4.66 71.96-14.12 11.36-4.71 22.23-10.6 32.38-17.55a179.018 179.018 0 0 0 28.05-23.87c17.01-17.78 30.28-39.06 39.01-62.06a198.61 198.61 0 0 0 10.27-35.44c2.29-12.12 3.53-24.45 3.77-36.82z" class="st71"/></g></svg>