<svg id="Layer_5" data-name="Layer 5" xmlns="http://www.w3.org/2000/svg" viewBox="0 0 357.49 452.12"><defs><style>.cls-1{fill:#8b1700;}.cls-2{fill:#fff;}.cls-2,.cls-3{stroke:#8b1700;stroke-miterlimit:10;}.cls-3{fill:none;}</style></defs><title>JavaneseGamelan_Logo_Gong</title><path class="cls-1" d="M199.6,24.43,83.52,251.67c-.66,1.29,1.28,2.43,1.94,1.14L201.54,25.57c.66-1.29-1.28-2.43-1.94-1.14Z" transform="translate(-71.01 -23.86)"/><path class="cls-1" d="M301.29,25.57,417.37,252.81c.65,1.29,2.6.15,1.94-1.14L303.23,24.43c-.66-1.29-2.6-.15-1.94,1.14Z" transform="translate(-71.01 -23.86)"/><path class="cls-2" d="M428,297.24a178.24,178.24,0,1,1-356.48,0" transform="translate(-71.01 -23.86)"/><path class="cls-2" d="M71.51,297.24a178.24,178.24,0,0,1,356.48,0" transform="translate(-71.01 -23.86)"/><circle class="cls-2" cx="178.74" cy="273.38" r="124.92"/><circle class="cls-2" cx="178.74" cy="273.38" r="39.61"/><path class="cls-1" d="M281,296.86A30.88,30.88,0,0,1,279.07,309a32.21,32.21,0,0,1-6.88,10.29A31.72,31.72,0,0,1,220.44,309a30.88,30.88,0,0,1-1.92-12.15,31.73,31.73,0,0,0,2.84,11.76,30.73,30.73,0,0,0,56.78,0A32.13,32.13,0,0,0,281,296.86Z" transform="translate(-71.01 -23.86)"/><path class="cls-1" d="M419.53,289.25a186.19,186.19,0,0,1-11.07,66.83,171.22,171.22,0,0,1-36.13,57.46,164.25,164.25,0,0,1-56,38.36,176.27,176.27,0,0,1-133.22,0,164.25,164.25,0,0,1-56-38.36,171.14,171.14,0,0,1-36.12-57.46A186.46,186.46,0,0,1,80,289.25a199.07,199.07,0,0,0,3.5,33.69,180.17,180.17,0,0,0,9.45,32.43,169.28,169.28,0,0,0,35.69,56.79,162,162,0,0,0,55.29,37.89,174.27,174.27,0,0,0,131.7,0,162,162,0,0,0,55.29-37.89,169.28,169.28,0,0,0,35.69-56.79A182,182,0,0,0,416,322.94,200.11,200.11,0,0,0,419.53,289.25Z" transform="translate(-71.01 -23.86)"/><path class="cls-3" d="M159.87,164.7" transform="translate(-71.01 -23.86)"/></svg>