<svg id="Layer_1" data-name="Layer 1" xmlns="http://www.w3.org/2000/svg" viewBox="0 0 456 185"><defs><style>.cls-1{fill:#1e1c1a;}.cls-2{fill:none;stroke:#000;stroke-miterlimit:10;stroke-width:2px;}</style></defs><title>JourneyOfTaro_Logo_Text</title><path d="M169,49.09V20.15h2.19V47.63q0,6.1-2.55,9.75a19.36,19.36,0,0,1-2.6,3.13,31.78,31.78,0,0,1-3.24,2.62l-1-1.42Q169,56.47,169,49.09Z" transform="translate(-21 -8)"/><path d="M195.76,53.19a14.16,14.16,0,0,1-10.62-4.42,15,15,0,0,1-4.29-10.83,15,15,0,0,1,4.29-10.82,15,15,0,0,1,21.24,0,15,15,0,0,1,4.28,10.82,15,15,0,0,1-4.28,10.83A14.2,14.2,0,0,1,195.76,53.19Zm0-28.62a12,12,0,0,0-9.12,3.87,13.41,13.41,0,0,0-3.62,9.5,13.31,13.31,0,0,0,3.62,9.48,12.67,12.67,0,0,0,18.21,0,13.34,13.34,0,0,0,3.6-9.48,13.43,13.43,0,0,0-3.6-9.5A11.88,11.88,0,0,0,195.78,24.57Z" transform="translate(-21 -8)"/><path d="M240.83,49.68q-3,3.51-9.16,3.51t-9.16-3.51q-3-3.51-3-9.71V23.15h2.1V40q0,11.36,10.07,11.35T241.74,40V23.15h2.1V40Q243.84,46.17,240.83,49.68Z" transform="translate(-21 -8)"/><path d="M254.51,52.73V23.29q3.92-.32,6.65-.32a10.77,10.77,0,0,1,6.93,2.17,7.41,7.41,0,0,1,2.73,6.17,8.62,8.62,0,0,1-1.55,5A14.44,14.44,0,0,1,265.76,40q5.43,7.2,6.7,8.62a9.4,9.4,0,0,0,5.66,3l-.05,1.41a10.88,10.88,0,0,1-4.15-.75,9.91,9.91,0,0,1-3.16-2.39q-1.58-1.69-6.91-9.07-3.69,0-7.25-.23V52.73Zm8.2-13.62c1.19,0,2.46-.79,3.83-2.37a8.16,8.16,0,0,0,2-5.52,5.66,5.66,0,0,0-2.14-4.79,8.92,8.92,0,0,0-5.56-1.64c-1.22,0-2.65.06-4.29.19v13.9Q259.89,39.11,262.71,39.11Z" transform="translate(-21 -8)"/><path d="M282.22,52.73V23h1L302.64,45.3c.7.8,1.34,1.58,1.94,2.35s.9,1.18.93,1.21c-.06-.73-.09-2.16-.09-4.28V23.15h2.09V52.92h-1l-19.78-22.7-2.51-3.06c.06.61.1,2,.1,4.29V52.73Z" transform="translate(-21 -8)"/><path d="M318.45,52.73V23.15h13.81V25H320.55V35.73h10.58v1.78H320.55V50.82h12.17v1.91Z" transform="translate(-21 -8)"/><path d="M349.4,52.73h-2V42.16l-11.17-19h2.51l8.61,14.68A21.19,21.19,0,0,0,348.44,40c.19-.39.57-1.09,1.14-2.09l8.62-14.73h2.37L349.4,42.25Z" transform="translate(-21 -8)"/><path d="M250.4,107.88a14.2,14.2,0,0,1-10.62-4.42,15.83,15.83,0,0,1,0-21.65,15,15,0,0,1,21.25,0,15.83,15.83,0,0,1,0,21.65A14.2,14.2,0,0,1,250.4,107.88Zm0-28.62a12,12,0,0,0-9.12,3.88,14.25,14.25,0,0,0,0,19,12.69,12.69,0,0,0,18.21,0,14.31,14.31,0,0,0,0-19A11.86,11.86,0,0,0,250.43,79.26Z" transform="translate(-21 -8)"/><path d="M274.42,107.43V77.85H289.6v1.82H276.52V90.43h11.94v1.78H276.52v15.22Z" transform="translate(-21 -8)"/><path class="cls-1" d="M72.55,128.76l-4.89,1,.09,0Z" transform="translate(-21 -8)"/><path class="cls-1" d="M77.22,127.28l-1.53.32.3,0Z" transform="translate(-21 -8)"/><path class="cls-1" d="M67.75,129.74c.4.07,2.46-.19,0,.44l-9,1.76.42-2.85a16.17,16.17,0,0,0,1.51.68,3.59,3.59,0,0,0,.55.14h.14s0,0,0-.07-.59-.25-.57-.29c.58.2.68.21.88.15,0,0,.79-.45,1.38-.69a13.24,13.24,0,0,1,2.05-.62c.44-.1.58-.14.47-.15a7.07,7.07,0,0,0-1.19.17,9.16,9.16,0,0,0-1.3.38c-.47.18-1.07.52-1.34.65a.47.47,0,0,1-.37.06,8.19,8.19,0,0,1-1.27-.49l-.7-.31-.53,3.67c3-.69,7-1.56,10.79-2.38s7.41-1.71,9.7-2.25,3.22-.82,1.68-.55c-.77.13-2.16.4-4.32.83S71.6,129.05,67.75,129.74Z" transform="translate(-21 -8)"/><path class="cls-1" d="M89.17,124.8C84.48,126,79.75,126.92,75,128c-1.46.4-3.44.92-2,.7C80.36,127,84.84,126,89.17,124.8Z" transform="translate(-21 -8)"/><path class="cls-1" d="M392.37,126.69s-.06,0-.42.14-1,.24-2.24.59c.93-.29,1.79-.5,2.66-.73,0,0-.13,0,1.08-.35a102,102,0,0,0-14.65,4.9c-2.49,1-5,2.2-7.41,3.48a69.37,69.37,0,0,0-7.08,4.24c-1.16.85-2.25,1.7-3.19,2.54a72.83,72.83,0,0,1,17.52-10,96.9,96.9,0,0,1,18.86-5.81c6.33-1.21,12.75-1.82,18.84-.7a19.08,19.08,0,0,1,8.35,3.57,13.3,13.3,0,0,1,3,3.35A10.39,10.39,0,0,1,429,136.1a10.12,10.12,0,0,0-2.2-5.5,13.66,13.66,0,0,0-4.22-3.55,8.29,8.29,0,0,0-1.19-.6c-.41-.17-.8-.37-1.21-.52a25.62,25.62,0,0,0-2.46-.75,24.14,24.14,0,0,0-2.48-.49l-1.23-.19-1.24-.1a50.32,50.32,0,0,0-9.95.29A79.87,79.87,0,0,0,392.37,126.69Z" transform="translate(-21 -8)"/><path class="cls-1" d="M359.68,143.07c-.71.62-1.29,1.29-1.94,2,.87-.89,1.33-1.39,1.62-1.64S359.68,143.08,359.68,143.07Z" transform="translate(-21 -8)"/><path class="cls-1" d="M232.44,152.34c-7,4.49-13.57,8.72-20.09,12.63a159.06,159.06,0,0,1-19.89,10.43,136.76,136.76,0,0,0,15.69-7.86c5-2.87,10-5.9,14.76-8.93s9.48-6,14.05-9l3.42-2.14,3.17-1.93c.59-.36,1.17-.69,1.78-1,.3-.16.6-.32.91-.47l.47-.21.23-.1a.88.88,0,0,1-.09.21l-1.22,2.53-.76,1.57c-.38.77-.73,1.57-1.1,2.34a46.45,46.45,0,0,0-3.32,9.42,47.53,47.53,0,0,1,3.52-9.72c.36-.77.72-1.55,1.1-2.31l.71-1.45,1.27-2.57.08-.17s.05-.07,0-.06l-.08,0-.34.14c-.23.11-.45.2-.67.32-.44.21-.87.45-1.31.69l-1.28.74-2.09,1.25C238.39,148.56,235.42,150.45,232.44,152.34Z" transform="translate(-21 -8)"/><path class="cls-1" d="M204,136a203.4,203.4,0,0,0-17.65,10.13c-2.71,1.75-5.3,3.53-7.78,5.42-1.23.95-2.44,1.92-3.6,3a23.16,23.16,0,0,0-1.71,1.72,6.89,6.89,0,0,0-1.58,2.58,41.29,41.29,0,0,0-1.36,8,19.78,19.78,0,0,0,.2,4.19,10.32,10.32,0,0,0,1.64,4.2,10.39,10.39,0,0,1-1.63-4.3,19.41,19.41,0,0,1-.16-4.22,43.06,43.06,0,0,1,1.38-7.86,6.73,6.73,0,0,1,1.52-2.48,19.58,19.58,0,0,1,1.63-1.65c1.1-1,2.23-1.93,3.38-2.82,2.29-1.76,4.64-3.39,7-5,4.76-3.13,9.64-6,14.6-8.72Z" transform="translate(-21 -8)"/><path class="cls-1" d="M184.26,147.87c-2.29,1.53-4.49,3.09-6.58,4.74-1.05.83-2.06,1.67-3,2.61a18.62,18.62,0,0,0-1.43,1.5,6.16,6.16,0,0,0-1.29,2.21,38.29,38.29,0,0,0-1.41,9.44,14.61,14.61,0,0,0,.84,4.91,7.73,7.73,0,0,0,3.41,4.07,10.19,10.19,0,0,0,4.87,1.2,21.24,21.24,0,0,0,4.56-.48,47.3,47.3,0,0,0,8.27-2.67,45.56,45.56,0,0,1-8.86,2.74,19.1,19.1,0,0,1-4.81.31,9.09,9.09,0,0,1-4.87-1.75,8.13,8.13,0,0,1-2.81-4.39,15.72,15.72,0,0,1-.49-4.71A39.57,39.57,0,0,1,172,159a6.61,6.61,0,0,1,1.41-2.33,19,19,0,0,1,1.52-1.57c1-1,2.07-1.83,3.11-2.65C180.11,150.76,182.19,149.28,184.26,147.87Z" transform="translate(-21 -8)"/><path class="cls-1" d="M356,148.63A28.47,28.47,0,0,0,349.47,161a12.83,12.83,0,0,0-.15,4.44,9.3,9.3,0,0,0,1,2.92,11.08,11.08,0,0,0,4.88,4.12,15.14,15.14,0,0,1-1.62-1,8.89,8.89,0,0,1-4.11-6.26,15.85,15.85,0,0,1,1.47-8.23,32.54,32.54,0,0,1,4.83-7.71,37.88,37.88,0,0,1,6.71-6.38,28.5,28.5,0,0,1,3.09-2,14.58,14.58,0,0,1,1.59-.77c.53-.25,1.08-.45,1.61-.64a15.65,15.65,0,0,1,3.08-.81,5.91,5.91,0,0,1,2.44.14,8.23,8.23,0,0,0-4.69.29,23.41,23.41,0,0,0-5,2.18A35.38,35.38,0,0,0,356,148.63Z" transform="translate(-21 -8)"/><path class="cls-1" d="M350.31,168.33a9.81,9.81,0,0,1-1.12-3c-.1-.56-.1-.65-.1-.42a9.19,9.19,0,0,0,.24,1.46l.37,1.08c.19.35.34.74.57,1.1a9.4,9.4,0,0,0,.71,1c.28.3.51.6.77.83a8.89,8.89,0,0,0,1.11.9c.19.09.05,0-.4-.38A9.88,9.88,0,0,1,350.31,168.33Z" transform="translate(-21 -8)"/><path class="cls-1" d="M363.26,138.67c-.61-.12-1.23-.19-1.85-.26a34.19,34.19,0,0,0-5.45-.11A31.75,31.75,0,0,1,363.26,138.67Z" transform="translate(-21 -8)"/><path class="cls-1" d="M253.79,170.12c9.89-4.32,18.5-11.12,27.78-16.59-4.8,2.81-9.36,6-14,8.9a101.56,101.56,0,0,1-14.07,7.79c-1.2.54-2.43,1-3.63,1.46s-2.45.83-3.68,1.16l-1.6.4-.67.17a5.59,5.59,0,0,1-.35-.6l-.35-.61c0-.11-.11-.2-.17-.33l-.16-.42c-.21-.57-.47-1.12-.64-1.69a17,17,0,0,1-.54-7,30,30,0,0,1,1.62-6.72,28.18,28.18,0,0,0-1.82,7.85c0,.67,0,1.37,0,2.12s.16,1.51.32,2.3a15.8,15.8,0,0,0,.71,2.39l.48,1.22c.17.34.34.62.52.93l.26.46.06.12,0,.05H244l.25-.07,1-.26,1.42-.36,1.41-.46c1-.31,1.92-.6,2.86-1S252.87,170.57,253.79,170.12Z" transform="translate(-21 -8)"/><path class="cls-1" d="M352.44,173.49a13.22,13.22,0,0,1-3.2-3,11.3,11.3,0,0,1-1.83-3.93,15.79,15.79,0,0,1,.69-8.58,30.76,30.76,0,0,1,4-7.67,41.23,41.23,0,0,1,5.67-6.49,33.38,33.38,0,0,1,6.95-5,19.29,19.29,0,0,1,8.19-2.37,5.24,5.24,0,0,1,5.17,3.37,4.7,4.7,0,0,1,.34,1,6.08,6.08,0,0,1,.23,1.11l.13,1.14c0,.38,0,.76,0,1.13,0,.76-.06,1.51-.1,2.25s-.18,1.51-.27,2.26l-.07.56a2,2,0,0,1-.25-.3l-.5-.65a27.7,27.7,0,0,0-3.51-4.44,20.13,20.13,0,0,0-3.82-2.82,22.69,22.69,0,0,0-8.87-2.69,38.23,38.23,0,0,0-10.41.43,65.1,65.1,0,0,0-10.09,2.64,105.83,105.83,0,0,0-18.75,8.79A127.55,127.55,0,0,0,305.37,162a82,82,0,0,0-7.42,6.87,41.57,41.57,0,0,0-3.23,3.8,15.8,15.8,0,0,0-2.38,4.24l-.87-.27a26.34,26.34,0,0,0,.9-5.09,47.31,47.31,0,0,0,.21-5.19,54.59,54.59,0,0,0-1-10.24,24.32,24.32,0,0,0-1.36-4.53l-.23-.46c-.09-.11-.11-.42-.31-.24l-1,.46c-.65.31-1.22.55-2,1-3,1.53-5.91,3.3-8.76,5.1-5.68,3.6-11.14,7.49-16.94,10.72-1.43.83-2.92,1.56-4.38,2.32s-3,1.41-4.53,2-3.09,1.12-4.65,1.63c-.38.14-.79.22-1.18.33l-1.34.34-1.54.39-.19.05c-.06,0-.07-.1-.11-.14l-.18-.34-.38-.67a18.43,18.43,0,0,1-1.73-3.9c-.15-.66-.34-1.32-.47-2L240.1,166a24.92,24.92,0,0,1,1.15-8.46,58.33,58.33,0,0,1,3.29-8.27l2.82-5.83.1-.21s0,0,0,0l-.05,0-.11.05-.44.19c-.29.13-.57.27-.85.42-.56.29-1.12.59-1.66.91L242.42,146l-2.65,1.62c-3.54,2.21-7.11,4.52-10.74,6.84-7.24,4.64-14.68,9.36-22.36,13.68-3.84,2.15-7.75,4.2-11.77,6-2,.89-4.05,1.72-6.14,2.42a33.41,33.41,0,0,1-6.47,1.58,12.32,12.32,0,0,1-6.91-.77,7,7,0,0,1-2.84-2.43,9.42,9.42,0,0,1-1.37-3.3,20,20,0,0,1-.16-6.53A49.73,49.73,0,0,1,172.2,159a6.12,6.12,0,0,1,1.31-2.21c.48-.57,1-1.05,1.47-1.53,1-1,2-1.8,3.05-2.62,2.06-1.63,4.12-3.11,6.16-4.51,4.09-2.79,8.06-5.25,11.81-7.45q-6.23,3.51-11.74,7.18c5.4-3.67,10.68-6.81,15.67-9.61,5.15-2.79,10.39-5.39,15.77-7.73a110.45,110.45,0,0,1,16.63-5.89,44.48,44.48,0,0,1,8.94-1.43,20.23,20.23,0,0,1,4.75.29c.4.08.81.16,1.22.28a10.68,10.68,0,0,1,1.24.42,2.62,2.62,0,0,1,.43.18l.34.24.53.36a6.34,6.34,0,0,1,1,.8,8.94,8.94,0,0,1,2.91,4.54,9.11,9.11,0,0,1-.32,5.41,14,14,0,0,1-6.68,7.3l-9,4.84L244.3,140a75.78,75.78,0,0,0,5.45-7.14,22.43,22.43,0,0,0,2.05-3.71,4.15,4.15,0,0,0,.46-2.75,1.31,1.31,0,0,0-.7-.46,6.08,6.08,0,0,0-1.7-.28,21.1,21.1,0,0,0-4.19.3,71.68,71.68,0,0,0-8.74,2c-5.83,1.69-11.62,3.75-17.39,5.88s-11.52,4.4-17.27,6.68L167.6,154.43c-11.65,4.57-23.41,9.06-35.5,13-5.27,1.72-9.92,3.14-14.63,4.4a111.43,111.43,0,0,1-15.13,3.09,46.86,46.86,0,0,1-8.73.32,23.28,23.28,0,0,1-4.52-.74,13.41,13.41,0,0,1-4.45-2.14,11.63,11.63,0,0,1-1-.86,7.55,7.55,0,0,1-.93-1.12,6.54,6.54,0,0,1-.74-1.47,6.8,6.8,0,0,1-.27-1.57,10,10,0,0,1,1.26-5,24.33,24.33,0,0,1,2.4-3.8,42.28,42.28,0,0,1,2.73-3.32s-.08.06-.3.29a121.09,121.09,0,0,1,12.58-11.88c4.39-3.67,8.88-7.16,13.44-10.55,9.12-6.77,18.48-13.18,28-19.42q7.16-4.67,14.46-9.19c2.44-1.51,4.89-3,7.38-4.46l1.89-1.09,1-.54.24-.14.12-.07h0l.4-.27c1.16-.78,2.32-1.55,3.45-2.4,4.56-3.29,8.92-7,13.49-10.69A99,99,0,0,1,199,74.64a64.85,64.85,0,0,1,11.81-5l1.91,4.63L189,87.06c-7.89,4.26-15.84,8.45-23.89,12.47-7.45,3.69-7.55,3.49-12.59,5.8-10.14,4.49-19.24,7.93-28.77,11.09l-7.27,2.31-7.6,2.19c-2.59.78-5.29,1.41-8.07,2.15l-4.26,1.11-4.45,1,0-.12c-3.71.88-7,1.73-9.78,2.27,5.76-1.47,16-4.1,20.79-5.58,2.43-.71,3.52-1.06,2.07-.75-.73.16-2.09.49-4.24,1s-5.08,1.3-9,2.15h0c1.73-.43,3.28-.78,4.75-1.18l.52-.14h0l9.08-2.51c2.52-.77,4.68-1.47,6.83-2.17l-6.95,2-7,1.85c.87-.28,1.43-.49.93-.41l1.23-.36,3.81-1c.67-.21,1.17-.36,1.5-.49l9.9-3c3.39-1.16,6.78-2.25,9.63-3.28,5.71-2.11,9.45-3.58,7.63-3-1.4.46-4.26,1.49-8,2.86-1.88.67-4,1.34-6.26,2.1l-3.5,1.17-3.7,1.11-2,.55c6.6-1.94,6.57-2,5.89-1.9s-2,.51,1.91-.79a284.84,284.84,0,0,0,30.8-11.73c11.31-5,21.83-10.49,32.07-16l30.3-16.35.42,1A61.24,61.24,0,0,0,199.2,78a92.78,92.78,0,0,0-11.38,7.83c-3.67,2.87-7.27,5.93-11,8.89l-2.87,2.21L171,99.06l-1.52,1-.76.52a4,4,0,0,1-.43.27l-.39.22-3.18,1.83-5,3c-9.09,5.57-17.79,11.22-26.33,17s-16.9,11.72-25.12,18.13l3.23-2.6a184,184,0,0,0-19.12,16.32,61,61,0,0,0-4.16,4.66,22.09,22.09,0,0,0-3.2,5.21,6,6,0,0,0-.47,2.78,3.45,3.45,0,0,0,1.32,2.28,10.77,10.77,0,0,0,5.38,2.38,31.2,31.2,0,0,0,7.55.29,70.39,70.39,0,0,0,7.61-1,150.92,150.92,0,0,0,15-3.64c9.92-2.89,19.72-6.39,29.53-10.08,19.62-7.39,39.26-15.73,59.82-23.71,5-1.94,10-3.82,15.07-5.58a157.06,157.06,0,0,1,15.36-4.65,37.85,37.85,0,0,1,8.09-1.14,11.38,11.38,0,0,1,2.16.18,5.87,5.87,0,0,1,2.25.82,3.75,3.75,0,0,1,1.57,2.18,5.3,5.3,0,0,1,0,2.44,14.75,14.75,0,0,1-1.56,4,37.94,37.94,0,0,1-2.16,3.46c-1.54,2.21-3.21,4.3-4.93,6.33l-1.33-1.67a10.67,10.67,0,0,0,5.32-6,5.76,5.76,0,0,0-.08-3.76,6.79,6.79,0,0,0-2.46-3,6.11,6.11,0,0,0-.74-.49,6.48,6.48,0,0,0-.94-.31,12.5,12.5,0,0,0-2.06-.39,22.6,22.6,0,0,0-4.35,0,49.81,49.81,0,0,0-8.78,1.75,123.35,123.35,0,0,0-17.09,6.49c-5.59,2.56-11.09,5.41-16.5,8.5a186.73,186.73,0,0,1,25.72-12.41,77.75,77.75,0,0,1,13.7-4,28,28,0,0,1,7-.44,12,12,0,0,1,3.27.7,2.24,2.24,0,0,1,.57.35c.23.17.47.31.68.48a8.66,8.66,0,0,1,1.12,1.15,5.5,5.5,0,0,1,1.27,3.07,6.86,6.86,0,0,1-.68,3.33,11.19,11.19,0,0,1-4.95,5l1.3,1.64a72.7,72.7,0,0,0,6.28-8.36A73.49,73.49,0,0,1,246.6,142l-1.28-1.62a11.1,11.1,0,0,0,5-5.07,6.64,6.64,0,0,0,.63-3.31,5.38,5.38,0,0,0-1.26-3,5.67,5.67,0,0,0-.86-.91,7.39,7.39,0,0,0-1-.79,1.74,1.74,0,0,0-.44-.27l-.58-.21a10.88,10.88,0,0,0-1.28-.32,20.41,20.41,0,0,0-5.48-.17,55.23,55.23,0,0,0-11.05,2.4,144.37,144.37,0,0,0-20.82,8.62,212.66,212.66,0,0,0-18.75,10.58c-2.91,1.86-5.71,3.76-8.33,5.74-1.3,1-2.56,2-3.72,3-.57.52-1.12,1.06-1.61,1.6a4.48,4.48,0,0,0-1,1.46,39,39,0,0,0-1.2,7.17c0,.66-.06,1.16-.07,1.57l0,1a10.74,10.74,0,0,0,.42,2.4,5.07,5.07,0,0,0,4.16,3.67,16.28,16.28,0,0,0,6.57-.44,65.7,65.7,0,0,0,12.92-5A239.39,239.39,0,0,0,220.37,157l1-.68,2.14-1.37c1.45-.93,2.6-1.68,1.42-1l11.69-7.45,3.05-1.89,1.55-.94,2.13-1.25a47.55,47.55,0,0,1,4.89-2.51l2.31-1,1.21-.51.62-.26.35,0c-1.45,3-2.85,5.92-4.35,8.94-.87,1.76-1.18,2.37-1.62,3.33s-.85,1.81-1.23,2.72a33,33,0,0,0-3,10.77,16.18,16.18,0,0,0,.44,4.82,9.35,9.35,0,0,0,.32,1.15l.45,1.12.21.53.13.22.25.44c0,.11.11.05.18,0l.2-.06.72-.19c.84-.2,1.65-.49,2.47-.76,1.65-.5,3.24-1.2,4.84-1.86a100.19,100.19,0,0,0,14.56-8.09c4.74-3.05,9.45-6.31,14.53-9.23,1.26-.74,2.57-1.42,3.89-2.11l.49-.26.76-.34,1.6-.72,1.61-.71.81-.36a5,5,0,0,1,.44.8c.59,1.13,1.06,2.32,1.56,3.5a1.77,1.77,0,0,1,.12.34l.09.28.17.57a11.06,11.06,0,0,1,.3,1.13,40.06,40.06,0,0,1,.85,4.53,59.52,59.52,0,0,1,.51,9.16,37.41,37.41,0,0,1-1.2,9.49l-4-1.24a13.8,13.8,0,0,1,1.53-3.18,24.8,24.8,0,0,1,1.88-2.66,51.42,51.42,0,0,1,4.23-4.7,98.78,98.78,0,0,1,9.46-8.22,132.65,132.65,0,0,1,21.57-13.53,96.36,96.36,0,0,1,12.08-5.06,60.55,60.55,0,0,1,13.14-3,32.53,32.53,0,0,1,14,1.3,22.89,22.89,0,0,1,6.52,3.55c.5.36,1,.82,1.41,1.21h0l.07.07c0,.07,0,0,0-.09s0,0,0-.07v0s0,0,0-.09l-.12-.47a3.15,3.15,0,0,0-.88-1.39l-.12-.13-.16-.08c-.12,0-.19-.13-.32-.17a4,4,0,0,0-.87-.19,11.46,11.46,0,0,0-4.9.91c-.45.15-.88.34-1.32.53a10.07,10.07,0,0,0-1.28.61c-.41.21-.82.43-1.24.7s-.82.5-1.22.79A36.56,36.56,0,0,0,351.72,156c-1.71,3.43-2.6,7.18-1.82,10.21a12.51,12.51,0,0,1,.17-6A25.08,25.08,0,0,1,352.7,154,37.09,37.09,0,0,1,362,143.59a27.54,27.54,0,0,1,2.87-2c.49-.3,1-.54,1.48-.81l1.58-.69,1.62-.58c.53-.12,1.07-.33,1.58-.4a7,7,0,0,1,2.8-.07,2.26,2.26,0,0,1,1.62,1.15,2.46,2.46,0,0,1,.26.54l.14.29.09.35a2.09,2.09,0,0,0,.08.3l0,.1a2,2,0,0,1,0,.43l0,.23c0,.07,0,0,0,0l-.05-.09a2.47,2.47,0,0,0-.21-.27l-.14-.13-.87-.78a21.64,21.64,0,0,0-6-3.55,28.12,28.12,0,0,0-9.42-1.92,43.8,43.8,0,0,0-9.21.69,75.52,75.52,0,0,0-16.7,5.24,124.9,124.9,0,0,0-26.87,16.23,95.91,95.91,0,0,0-10,9,107.83,107.83,0,0,1,15.52-13,131.22,131.22,0,0,1,17.29-10.21,84.76,84.76,0,0,1,18.92-6.81,46.45,46.45,0,0,1,10.16-1.11,28.53,28.53,0,0,1,10.29,1.9,21.65,21.65,0,0,1,5.83,3.49l.64.57.32.29h0l.15.16a2.42,2.42,0,0,1,.27.36l.07.12s.06.11.06,0l0-.26a3.5,3.5,0,0,0,0-.56l0-.14a.2.2,0,0,0,0-.07.94.94,0,0,1-.06-.2,5.44,5.44,0,0,0-.47-1.24,2.52,2.52,0,0,0-1.67-1.26,6.63,6.63,0,0,0-2.84,0,14.61,14.61,0,0,0-1.62.39c-.54.16-1.09.38-1.63.56l-1.62.69c-.51.26-1,.51-1.51.81a28.18,28.18,0,0,0-2.92,2l.63-.49a23.19,23.19,0,0,1,5.93-3.2,12.15,12.15,0,0,1,1.58-.52l.78-.21.77-.13a2.82,2.82,0,0,1,.75-.08c.24,0,.48,0,.72,0s.43.06.65.07.37.12.57.15a2.73,2.73,0,0,1,1.59,1.37c.09.2.17.39.27.59s.12.46.19.67a1.4,1.4,0,0,1,.07.38,3.86,3.86,0,0,1,0,.76l0,.39c0,.12,0,0-.07,0l-.1-.15a4.6,4.6,0,0,0-.54-.66l-.15-.15-.81-.73c-.57-.46-1.14-.92-1.74-1.32a23.19,23.19,0,0,0-3.81-2.09,27.17,27.17,0,0,0-8.19-1.95,46.44,46.44,0,0,0-15.78,1.75A101.13,101.13,0,0,0,319,149.56c-1.88,1.17-3.73,2.37-5.46,3.57a125,125,0,0,0-10.57,8.11,130.43,130.43,0,0,1,20.4-14.13,95.85,95.85,0,0,1,22.85-9.52,44.42,44.42,0,0,1,15.54-1.43,25.27,25.27,0,0,1,7.8,2,22.76,22.76,0,0,1,3.57,2c.55.41,1.11.81,1.62,1.26l.76.67.11.11a4.21,4.21,0,0,1,.55.71l.11.17s.08.18.08.06l.06-.4a5.31,5.31,0,0,0,0-.8,1.6,1.6,0,0,0-.07-.42c0-.17-.11-.47-.18-.67s-.18-.4-.26-.6a2.94,2.94,0,0,0-1.62-1.45,2,2,0,0,1,.56.25,1.5,1.5,0,0,1,.45.33,3.79,3.79,0,0,1,1,1.6l.09.31c0,.11.06.22.07.24a1.19,1.19,0,0,1,.07.23,3.89,3.89,0,0,1,.08.51,9.32,9.32,0,0,1,.05,1.22v.59s0,0,0,0l-.22-.28c-.23-.26-.44-.46-.47-.41a5.14,5.14,0,0,0,.64,1.05l0,.06.25.41s.09.18.11.15l0-.24c0-.32.1-.64.12-1a8.75,8.75,0,0,0,0-2,2.46,2.46,0,0,0-.1-.5,5.69,5.69,0,0,0-.25-.83c-.12-.25-.22-.53-.35-.76l-.45-.64A3.9,3.9,0,0,0,373,138a17.79,17.79,0,0,0-7.56,2.13,31.67,31.67,0,0,0-6.72,4.83,38.6,38.6,0,0,0-5.48,6.24,29.16,29.16,0,0,0-3.77,7.11,17.46,17.46,0,0,0-.9,3.73,11.92,11.92,0,0,0,0,3.63,9.33,9.33,0,0,0,1.16,3.22,9,9,0,0,0,1,1.37,9.56,9.56,0,0,0,1.19,1.19,16.53,16.53,0,0,0,5.94,3.08,45.15,45.15,0,0,0,6.3,1.33,51.74,51.74,0,0,0,10.77.25l2.15-.21c.68-.06,1.31-.19,1.9-.27l1.64-.26,1.36-.29,1.88-.39.64-.17a9.26,9.26,0,0,1-2.09.54c-.82.19-1.85.43-3.08.61l-1.95.31-2.22.22a49.54,49.54,0,0,1-10.75-.16,47.49,47.49,0,0,1-6-1.15,20.35,20.35,0,0,1-5.56-2.49,10.46,10.46,0,0,1-3.78-4.37,10.73,10.73,0,0,1-.81-5.57,23.6,23.6,0,0,1,3.65-9.77,38.73,38.73,0,0,1,4.44-5.78c1.14-1.23,1.75-1.77,1.49-1.55a37.46,37.46,0,0,0-7.21,9.37,37.23,37.23,0,0,1,6.36-8.73,29.94,29.94,0,0,1,10.66-7.32,13.16,13.16,0,0,1,5.76-1.07,4.65,4.65,0,0,1,2.15.72,7.86,7.86,0,0,1,.72.68,6.85,6.85,0,0,1,.52.76,7.87,7.87,0,0,1,.7,2.13,12,12,0,0,1,.15,1.91c0,.65,0,1.32-.14,2l-.06.51,0,.25,0,.13c0,.08,0,0-.05,0l-.52-.84a17.72,17.72,0,0,0-1.33-1.73c-.24-.28-.51-.54-.77-.81l-.2-.18-.3-.27-.6-.53a20.4,20.4,0,0,0-5.64-3.29A29.33,29.33,0,0,0,355,137.36a57.45,57.45,0,0,0-13.08,2.77,93.61,93.61,0,0,0-12.43,5.17,129.15,129.15,0,0,0-19.07,11.81,109.87,109.87,0,0,0-9.32,7.72,47.44,47.44,0,0,0-8.07,9.34s-.17.3-.4.76a11.87,11.87,0,0,0-.76,1.78l.06,0c.6-2,.81-4.3.54-2.67a52.7,52.7,0,0,0,.39-11.86,48.11,48.11,0,0,0-.74-5.83,25,25,0,0,0-1.6-5.34l-.29-.59-.15-.29-.3.14-1.17.55c-.77.36-1.51.71-2.24,1.11l-2.12,1.14-1.93,1.12c-2.46,1.46-4.44,2.77-5.81,3.71l-.95.62-3.6,2.38a149.35,149.35,0,0,1-15.46,9.14,64.34,64.34,0,0,1-7.7,3.12c-.65.2-1.29.43-1.93.62l-2,.52-1.11.28-.28.07c-.05,0-.07,0-.09-.07l-.07-.12L243,174l-.55-1a5.89,5.89,0,0,1-.49-1,17,17,0,0,1-1.47-7.87,28.72,28.72,0,0,1,1.57-7.87,68.55,68.55,0,0,1,3.12-7.54l2.89-6,.12-.25c.05-.08,0,0-.07,0l-.15.06a36.78,36.78,0,0,0-4,2.1l-2.31,1.39-2.62,1.6-10.54,6.69,8.14-5.15,4.31-2.68,2-1.23,1.41-.83a33.57,33.57,0,0,1,3.62-1.89l.14-.06s.13-.06.07,0l-.12.26-1.26,2.59-1.33,2.7c-1.11,2.31-2.18,4.63-3.07,7a33.36,33.36,0,0,0-1.87,7.42,18.33,18.33,0,0,0,.59,7.62,17.84,17.84,0,0,0,1.63,3.68l.53.95,0,.06h.06l.14,0,.27-.06.54-.14,2-.51c1.21-.29,2.38-.74,3.56-1.11s2.32-.89,3.48-1.33a93,93,0,0,0,13-7c1.38-.87,3.55-2.32,5.58-3.67l3.63-2.35.92-.65c2.93-1.9,6-3.78,9.17-5.47.79-.42,1.61-.88,2.37-1.21l1.15-.55.59-.27.14-.07c.05,0,.11-.06.12,0l.14.29a13.71,13.71,0,0,1,1,2.36c.28.86.5,1.74.7,2.62A54.26,54.26,0,0,1,293,166.36a51.2,51.2,0,0,1-.22,5.28,26.39,26.39,0,0,1-.89,5.06l.14,0a20.1,20.1,0,0,1,3.72-6,59.28,59.28,0,0,1,4.57-4.85,123.25,123.25,0,0,1,36.67-23.42,76,76,0,0,1,10.57-3.37,46,46,0,0,1,11-1.3,25.23,25.23,0,0,1,10.76,2.36,19.58,19.58,0,0,1,4.57,3.07,20.84,20.84,0,0,1,3.47,4.09c.27.42.55.93.8,1.28l.21-1.53c.08-.51.1-1,.14-1.53a13,13,0,0,0,0-1.53,11.76,11.76,0,0,1,0,1.57c0,.52-.05,1.05-.13,1.57s-.13,1.06-.21,1.53l-.79-1.29a20,20,0,0,0-7.22-6.7,23.36,23.36,0,0,0-9.46-2.64c-6.58-.47-13.07,1-19.17,3,6.51-2.18,13.28-3.59,19.85-2.95a23.1,23.1,0,0,1,9.23,2.84,20.89,20.89,0,0,1,3.8,2.86,23.46,23.46,0,0,1,3,3.65l.49.79.24.4.06.1s0-.06,0-.08l0-.23.24-1.84.11-1.81,0-1.78a9.74,9.74,0,0,0-.81-3.35,4.65,4.65,0,0,0-2.29-2.41,7.29,7.29,0,0,0-3.86-.48,13.6,13.6,0,0,0-1.92.39l-.95.25-.93.33a25.44,25.44,0,0,0-3.76,1.7,32.48,32.48,0,0,0-3.43,2.29,38.66,38.66,0,0,0-6,5.66,33.71,33.71,0,0,1,12.06-9.17,33.59,33.59,0,0,0-12,9.24c-3.24,3.84-6,8.25-7,13.12a14.59,14.59,0,0,0-.2,5.06,10.4,10.4,0,0,0,1.9,4.65,13.19,13.19,0,0,0,3.79,3.34l1.12.63c.38.18.78.34,1.17.52a24.84,24.84,0,0,0,2.42.87,50.84,50.84,0,0,0,20.59,1.14,61.1,61.1,0,0,0,10.16-2.35,66.5,66.5,0,0,0,9.67-3.95,72.78,72.78,0,0,0,17.19-11.86,54.68,54.68,0,0,0,7-7.79,30.63,30.63,0,0,0,4.79-9.18,14.52,14.52,0,0,0,.69-5,8.71,8.71,0,0,0-1.58-4.7c-1.86-2.87-5.06-4.57-8.34-5.52a36,36,0,0,0-10.31-1,64.7,64.7,0,0,0-10.37,1.26,98.12,98.12,0,0,0-19.89,6.3c1-.47,2.12-1,3.4-1.57A93.54,93.54,0,0,1,400.13,126a58.35,58.35,0,0,1,9.83-.79,30.2,30.2,0,0,1,9.5,1.47,13.69,13.69,0,0,1,7.34,5.48,9.12,9.12,0,0,1,1.37,4.28l.06.56c0,.19,0,.38,0,.57l-.06,1.13c-.11.74-.22,1.48-.39,2.21a28.79,28.79,0,0,1-3.6,8,48.81,48.81,0,0,1-5.15,6.71,45.46,45.46,0,0,0,6.43-8.75,20.78,20.78,0,0,0,2.87-9.38,10.14,10.14,0,0,0-4.12-8.41,19.58,19.58,0,0,0-9.7-3.7s-.13-.07,1.11.1a36.84,36.84,0,0,0-7.42-.44,57.27,57.27,0,0,0-7.84.76,80.2,80.2,0,0,0-7.94,1.68c-2.64.68-5.26,1.5-7.82,2.4a92.2,92.2,0,0,1,10.77-3.4,68.81,68.81,0,0,1,9.87-1.6,39.64,39.64,0,0,1,12.06.62,18.84,18.84,0,0,1,6.22,2.57,12.24,12.24,0,0,1,4.37,5.06,11.63,11.63,0,0,1,.59,6.62A21.76,21.76,0,0,1,426.3,146c-.45,1-1.07,1.92-1.61,2.88s-1.18,1.85-1.87,2.7-1.31,1.75-2,2.57-1.44,1.64-2.19,2.43a68.14,68.14,0,0,1-9.85,8.51,71.58,71.58,0,0,1-23.44,11,54.61,54.61,0,0,1-26.08.58l-1.17-.3c-.39-.11-.77-.26-1.16-.38s-.77-.25-1.14-.41l-1.12-.49a20.25,20.25,0,0,1-2.16-1.14,16.55,16.55,0,0,1-1.94-1.51,11,11,0,0,1-2.87-4,12.4,12.4,0,0,1-.92-4.81,17,17,0,0,1,.75-4.81,24.66,24.66,0,0,1,1.81-4.49,37.83,37.83,0,0,1,5.49-7.88,39.07,39.07,0,0,1,7.22-6.31,22.71,22.71,0,0,1,4.22-2.3,20.43,20.43,0,0,1,4.6-1.42,7.73,7.73,0,0,1,4.85.46,5.81,5.81,0,0,1,2.86,3.92,15.88,15.88,0,0,1,.28,5.22c-.05.85-.16,1.71-.29,2.57,0,1.44-.51.31-.85,0-.51-.76-1-1.57-1.57-2.28l-.82-1.08-.86-.93a9.32,9.32,0,0,0-.85-.83c-.27-.22-.51-.48-.8-.69a18.6,18.6,0,0,0-1.72-1.23,21.39,21.39,0,0,0-7.81-3,21.57,21.57,0,0,1,4.22,1.15,18.13,18.13,0,0,1,3.83,1.94A20.81,20.81,0,0,1,373,143l.78.69a11.09,11.09,0,0,1,.84.84,27.52,27.52,0,0,1,3,3.92l.54.68.14.17.06.08,0-.15.09-.61c.1-.82.22-1.63.27-2.44a17.56,17.56,0,0,0-.19-4.85,6.14,6.14,0,0,0-2.28-3.92,6.41,6.41,0,0,0-4.39-.93,16.88,16.88,0,0,0-4.28,1.06,23.42,23.42,0,0,0-4,1.85,35.57,35.57,0,0,0-6.8,5.3,40.26,40.26,0,0,0-5.4,6.56,28.71,28.71,0,0,0-3.62,7.58,14.7,14.7,0,0,0-.31,8.23,10.86,10.86,0,0,0,1.87,3.68,11.09,11.09,0,0,0,1.42,1.49A12.43,12.43,0,0,0,352.44,173.49ZM147.8,106c2.61-1.11,5.24-2.4,7.88-3.64l-1.2.52C152.06,104.05,149.68,105.19,147.8,106Zm57.41-29.35c-8.34,4.44-17.94,9.71-28.2,15.13s-21.22,11-32.33,15.7a.77.77,0,0,0-.19.11c9.34-3.91,19.51-8.85,29.79-14.27S195.07,82.17,205.21,76.68Zm-51.63,30,.4-.23h0ZM225.52,128a80.37,80.37,0,0,1,9.42-2.75,29.93,29.93,0,0,1,10.5-.69,13.13,13.13,0,0,1,2.76.76c.51.29.83.56,1.24.83a11,11,0,0,1,1.09,1,10.44,10.44,0,0,1,.95,1.14,10.63,10.63,0,0,1,.74,1.32,7.65,7.65,0,0,1,.57,3,9.42,9.42,0,0,1-2.07,5.57,13.7,13.7,0,0,1-4.55,3.83l-3.66,1.92,2.67-3.17a81.88,81.88,0,0,0,5.2-6.76,29.24,29.24,0,0,0,2.14-3.65,7.63,7.63,0,0,0,1-3.74,1.76,1.76,0,0,0-.71-1.3,4,4,0,0,0-1.66-.65,15.23,15.23,0,0,0-4.16,0,59.93,59.93,0,0,0-8.55,1.79c-7.91,2.19-15.6,5.14-25.88,9.06-12.82,5-20.42,8.21-30.65,12.33l7.71-3-23,9.26c-7,2.8-14.1,5.58-23.2,8.8a3.13,3.13,0,0,1-.44.19l-1.16.46c-1,.37-2.27.84-3.57,1.29-13,4.51-26.38,8.5-37.63,9.67a33.27,33.27,0,0,1-10.74-.42,12.38,12.38,0,0,1-5.18-2.46,9.82,9.82,0,0,1-1.08-1.06,5.84,5.84,0,0,1-.91-1.52,6.34,6.34,0,0,1-.26-3.28,14.58,14.58,0,0,1,2.14-5,37.6,37.6,0,0,1,2.91-3.92,83.74,83.74,0,0,1,6.16-6.46c2-1.94,6.11-5.7,10.43-9.2,5.26-4.25,10.68-8.3,16.15-12.23l-.69.46c-4.46,3.2-8.94,6.54-13.31,10-3.26,2.59-6.6,5.35-9.91,8.32a89.54,89.54,0,0,0-9.52,9.73,26.21,26.21,0,0,0-3.83,6.07,8.67,8.67,0,0,0-.73,4.07,6.8,6.8,0,0,0,.23,1.16,7,7,0,0,0,.51,1.11,7.12,7.12,0,0,0,1.41,1.64,13.52,13.52,0,0,0,6.74,2.94,31.43,31.43,0,0,0,6.65.35,84.4,84.4,0,0,0,15.48-2.4c5-1.18,9.89-2.59,14.7-4.1,9.61-3,18.93-6.46,28.1-10,18.35-7.05,36.1-14.56,54-21.61,7.67-3,15.38-6,23.19-8.5,3.06-1,6.24-1.92,9.49-2.64a39.5,39.5,0,0,1,4.91-.79,10,10,0,0,1,4.55.38,1.75,1.75,0,0,1,1.08,1.18,4.1,4.1,0,0,1-.14,2,17.93,17.93,0,0,1-2.1,4.35,72.05,72.05,0,0,1-5.95,7.94l-3.22,3.84,4.4-2.34a12.8,12.8,0,0,0,6.24-7,8,8,0,0,0,.19-4.67,7.78,7.78,0,0,0-2.4-3.77,11.62,11.62,0,0,0-1.69-1.29,7.6,7.6,0,0,0-2-.73,16.69,16.69,0,0,0-3.77-.42,33.38,33.38,0,0,0-6.57.69c-1.38.27-3.42.74-5.43,1.32S226.82,127.55,225.52,128Zm-27.17,14.45c5.12-2.91,10.46-5.69,16-8.21a119.23,119.23,0,0,1,17.08-6.47,49,49,0,0,1,8.88-1.71,20.84,20.84,0,0,1,4.4.05,11.8,11.8,0,0,1,2.08.43c.17,0,.33.12.49.18a1.21,1.21,0,0,1,.38.17l.84.59a6.85,6.85,0,0,1,2.37,3.17,6.07,6.07,0,0,1-.07,3.88,11,11,0,0,1-5.38,5.94l1,1.32c1.79-2.11,3.48-4.22,5-6.42a37.15,37.15,0,0,0,2.12-3.4,14.49,14.49,0,0,0,1.5-3.79,5.13,5.13,0,0,0-.06-2.6,3.73,3.73,0,0,0-2.07-2.21,12.07,12.07,0,0,0-5.75-.52,69,69,0,0,0-12.33,2.76c-8.53,2.6-17.54,6-25.55,9.21-16,6.38-28,11.5-22.83,9.64,5.8-2.51,17.94-7.66,33.19-13.39,3.82-1.42,7.84-2.86,12-4.21a97.63,97.63,0,0,1,13.17-3.44,31.57,31.57,0,0,1,3.52-.39,11.72,11.72,0,0,1,3.65.32,4.44,4.44,0,0,1,1.78.91,3.22,3.22,0,0,1,1,1.83,7.07,7.07,0,0,1-.59,3.77,30.36,30.36,0,0,1-3.63,6.2c-1.39,1.93-2.87,3.77-4.4,5.56l-.73-.92a11.52,11.52,0,0,0,5.24-5.38,6.27,6.27,0,0,0-.81-6.8,3.52,3.52,0,0,0-.62-.66,7.87,7.87,0,0,0-.68-.6l-.75-.52a2.21,2.21,0,0,0-.74-.35,13.34,13.34,0,0,0-3.57-.67,31,31,0,0,0-7.22.58,79.78,79.78,0,0,0-13,3.81c-4,1.49-7.57,3.07-10.74,4.55-6.35,3-11,5.59-13.57,7.08S196.07,143.64,198.35,142.49ZM294.41,159c-.21-1.48-.44-2.95-.8-4.42-.16-.74-.38-1.47-.61-2.21-.06-.28-.38-1-.59-1.49s-.45-1.11-.73-1.64l-.39-.8-.2-.4-.1-.2c0-.07-.12,0-.18,0l-1.52.68-3,1.34c-1.31.7-2.65,1.36-3.93,2.12-5.2,2.95-10.21,6.43-15.7,9.92,5-3.18,9.9-6.62,15.17-9.64,1.3-.77,2.65-1.48,4-2.18l.51-.27.75-.34,1.58-.71,1.59-.71.39-.18.2-.08.1-.05,0,.11.42.83c.57,1.09,1,2.32,1.48,3.39.23.76.49,1.53.65,2.3A41,41,0,0,1,294.41,159Zm-61.75-8.37c2.75-1.77,5.53-3.56,8.36-5.31,1.35-.83,3-1.84,4.65-2.72.81-.45,1.62-.86,2.45-1.26.4-.21.83-.39,1.25-.58l.65-.28.17-.06s0,.06,0,.08l-.06.22c-.88,1.89-1.8,3.75-2.75,5.67L246,149.16l-1.18,2.55a38.83,38.83,0,0,0-3.31,10.65l-.15,1.38c0,.47,0,.93,0,1.39a18.23,18.23,0,0,0,.22,2.76c.07.45.21.89.31,1.34a7.45,7.45,0,0,0,.4,1.32l.51,1.29a11.68,11.68,0,0,0,.56,1.06l.28.52.15.25c.06,0,.17,0,.26,0l1.12-.28c.84-.21,1.8-.44,2.67-.75,1.8-.54,3.55-1.23,5.29-1.93,6.92-3,13.24-7.13,19.49-11.25,3.13-2,6.27-4.09,9.49-6,1.61-.95,3.23-1.8,4.92-2.67l3-1.39.38-.17.19.39.38.77c.26.5.44,1.05.67,1.58l.17.44.12.38.22.74c.17.5.26,1,.39,1.51.24,1,.42,2,.57,3.06a51.88,51.88,0,0,1,.57,6.23,57.44,57.44,0,0,1-.1,6.29,30.1,30.1,0,0,1-1,6.32l-1.36-.42A14.81,14.81,0,0,1,293,173a33.79,33.79,0,0,1,2.35-3.05,66.58,66.58,0,0,1,5.32-5.43,117.54,117.54,0,0,1,11.68-9.3A127.62,127.62,0,0,1,337,141.62l0-.11c-.85.36-1.71.71-2.55,1.09a118.07,118.07,0,0,0-12.07,6c-3.65,2.07-7,4.21-10.39,6.54l1.16-.82-2,1.42a99.24,99.24,0,0,0-13.51,11.36,35.86,35.86,0,0,0-5.7,7.31,12,12,0,0,0-.89,2l1.92.6a31.83,31.83,0,0,0,1.05-6.48,61.57,61.57,0,0,0-.54-12.91c-.19-1.07-.38-2.14-.65-3.2a19.69,19.69,0,0,0-1.14-3.46c-.25-.68-.62-1.3-.92-1.95-.05-.26-.25-.07-.4,0l-.47.21-.93.42-1.88.86c-.56.27-1,.5-1.47.75-.95.49-1.89,1-2.81,1.54s-1.86,1.05-2.76,1.62c-3.63,2.2-7.13,4.55-10.63,6.83-7,4.56-14.06,8.83-21.71,11.15-.47.15-.94.32-1.42.43l-1.29.32-.51.13-.25.07c-.08,0-.2.1-.22,0l-.53-1c-.09-.16-.18-.3-.27-.49l-.26-.66c-.17-.45-.36-.88-.51-1.33a17.48,17.48,0,0,1-.58-2.77c-.51-3.77.39-7.57,1.6-11.11a77.47,77.47,0,0,1,3.14-7.32l2-4.17q1-2.08,2-4.13v-.27l-.16.07-.66.28-1.27.58c-.84.4-1.64.79-2.47,1.24s-1.66.92-2.48,1.4L241.27,145c-2.74,1.69-5.43,3.43-8.15,5.18-5.42,3.51-10.9,7.1-16.78,10.74C221,158.08,228,153.66,232.66,150.66Z" transform="translate(-21 -8)"/><path class="cls-1" d="M372,136.8a16.46,16.46,0,0,0-4.29,1.07,22.73,22.73,0,0,0-4,1.9,35.44,35.44,0,0,0-7,5.55,40.06,40.06,0,0,0-5.55,7,26,26,0,0,0-3.42,8.25,13,13,0,0,0,.23,6.77,10.66,10.66,0,0,0,1.54,3,15.08,15.08,0,0,0,1.13,1.27,11.34,11.34,0,0,0,1.29,1.1,19.63,19.63,0,0,0,6.14,2.92,45.28,45.28,0,0,0,6.76,1.28,54.58,54.58,0,0,0,16.68-.72,66.77,66.77,0,0,0,16.36-5.58A72,72,0,0,0,412.7,161a54.06,54.06,0,0,0,11.82-13.45,23.92,23.92,0,0,0,3.19-8.3,9.8,9.8,0,0,0-2.06-8.16,15.22,15.22,0,0,0-7.45-4.52,32.1,32.1,0,0,0-8.91-1.09,71.12,71.12,0,0,0-17.83,2.7,98.78,98.78,0,0,0-16.72,6.23c-1.2.71-1.29.89.28.25a100,100,0,0,1,18-6.46,64.3,64.3,0,0,1,18.82-2.2,25.06,25.06,0,0,1,9,2,11.47,11.47,0,0,1,6.1,6.11,10.88,10.88,0,0,1,.44,4.34,17.32,17.32,0,0,1-1.1,4.42,34,34,0,0,1-4.62,8.13,62.89,62.89,0,0,1-13.71,13.09,80.4,80.4,0,0,1-8.12,5,74.37,74.37,0,0,1-8.7,3.88,63.19,63.19,0,0,1-9.15,2.6l-1.16.24-1.18.18c-.78.12-1.56.26-2.35.35-1.57.13-3.15.34-4.73.34a48.94,48.94,0,0,1-9.45-.58,27,27,0,0,1-8.9-2.7l-1-.54a11,11,0,0,1-4.34-4.79,9.94,9.94,0,0,1-.84-3.41,13.66,13.66,0,0,1,.22-3.75,23.75,23.75,0,0,1,2.94-7.51,38.45,38.45,0,0,1,12-12.64,23.43,23.43,0,0,1,4-2.06,18.94,18.94,0,0,1,4.28-1.23,6.26,6.26,0,0,1,4,.54,4.88,4.88,0,0,1,2.13,3.3,11.13,11.13,0,0,1,.19,3.31c0,.56-.1,1.11-.17,1.67l0,.41,0,.11,0-.09-.1-.17-.43-.7a15.84,15.84,0,0,0-1.94-2.39l-.27-.27-.32-.29-.81-.72c-.58-.42-1.12-.88-1.73-1.24a22,22,0,0,0-7.6-3.08,34,34,0,0,0-10.45-.31,56.46,56.46,0,0,0-10.17,2.17,99.36,99.36,0,0,0-19,8.27,132.32,132.32,0,0,0-17.22,11.45,98.35,98.35,0,0,0-7.79,6.79,41.86,41.86,0,0,0-6.63,7.91,47.63,47.63,0,0,1,8.33-9.41,108.27,108.27,0,0,1,9.7-7.84,126.83,126.83,0,0,1,21.29-12.53,88.26,88.26,0,0,1,11.5-4.37A54,54,0,0,1,356,137.79a28.19,28.19,0,0,1,12.13,1.75,19.73,19.73,0,0,1,9.2,7.62l.55.9.14.23c0,.07.1.2.1.05l.07-.52c.09-.7.21-1.39.24-2.1a16.22,16.22,0,0,0-.16-4.23,6,6,0,0,0-2.07-3.74A5.88,5.88,0,0,0,372,136.8Z" transform="translate(-21 -8)"/><path class="cls-1" d="M172.18,175.27a8,8,0,0,0,4.11,3,12.73,12.73,0,0,0,4.64.5,31.76,31.76,0,0,0,8.37-1.84A103.06,103.06,0,0,0,204.39,170c8.46-4.6,16.25-9.55,23.83-14.39l11.2-7.16,2.78-1.73,1.88-1.13,1.15-.65.61-.3.3-.13s.14-.08.13,0l-.07.14-1.51,3.16c-1.13,2.34-2.22,4.72-3.13,7.2a32.4,32.4,0,0,0-1.88,7.81,19.39,19.39,0,0,0,.86,8.16,19.26,19.26,0,0,1-.83-8.14,33,33,0,0,1,1.9-7.79c.93-2.48,2-4.86,3.16-7.2l1.7-3.46.09-.19-.2.08-.39.18-.77.38c-.51.27-1,.55-1.5.84l-2.85,1.72-3.2,2-12.82,8.14C216.13,163,208,168,199.71,172.25a75.47,75.47,0,0,1-12.92,5.36,24.58,24.58,0,0,1-7.22,1.13,11.19,11.19,0,0,1-4-.75A7.89,7.89,0,0,1,172.18,175.27Z" transform="translate(-21 -8)"/><path class="cls-1" d="M261.1,168.68a72.36,72.36,0,0,1-10.37,4.85c-.9.32-1.81.6-2.71.9-.45.15-.9.29-1.37.4l-1.63.41-2.06.52a18.06,18.06,0,0,1-1-1.74,16.64,16.64,0,0,1-1.41-3.07l.52,1.33.13.34.06.16.12.21.47.86.94,1.71.12.22a1.14,1.14,0,0,0,.24-.05l.49-.12,1-.25,1.7-.42c.43-.12.88-.2,1.31-.35l2.57-.82a72.37,72.37,0,0,0,9.8-4.37c6.28-3.38,12.06-7.42,17.93-11.15,2.93-1.87,5.89-3.67,9-5.23l.57-.3.28-.15.19-.09.7-.32.7-.33a.61.61,0,0,1,.17-.07l.07.14.14.29a4.6,4.6,0,0,1,.25.61l.06.15,0,.08,0,.15.18.59c.26.78.42,1.62.61,2.43a53.08,53.08,0,0,1,1,10.16,48,48,0,0,1-.22,5.1,25.72,25.72,0,0,1-.86,4.9l2.32.72a16,16,0,0,1,2.56-4.39,62.26,62.26,0,0,1,8.2-8.45,118.67,118.67,0,0,1,9.37-7.34A123.46,123.46,0,0,1,333.84,145,82.63,82.63,0,0,1,345,140.89a50.66,50.66,0,0,1,11.6-2A26.12,26.12,0,0,1,368,140.64a18.74,18.74,0,0,1,4.87,3l.54.47.33.3c.12.12.24.26.35.39l.71.79a6.35,6.35,0,0,1,.7.86c.46.67.93,1.31,1.39,2l1.36,2.1a4.42,4.42,0,0,0,.61.13l.26-2c.1-.67.15-1.31.22-1.95l.09-1c0-.33,0-.66,0-1a11.46,11.46,0,0,0,0-2l-.11-1a6.32,6.32,0,0,0-.22-1,7,7,0,0,0-1.65-3.13,5.79,5.79,0,0,0-3.23-1.63,7.85,7.85,0,0,0-1.74-.09,8.08,8.08,0,0,0-.85.05l-.83.13a24.54,24.54,0,0,0-6.15,2.16,36.3,36.3,0,0,0-10,8,35.68,35.68,0,0,0-6.8,10.85,22.39,22.39,0,0,0-1.12,4.14,16.44,16.44,0,0,0-.1,4.32,13.15,13.15,0,0,0,1.35,4.14,12.74,12.74,0,0,0,2.78,3.32,12.49,12.49,0,0,1-2.8-3.41,12.13,12.13,0,0,1-1.31-4.22,16,16,0,0,1,.16-4.37,22.89,22.89,0,0,1,1.19-4.15,37.72,37.72,0,0,1,9.92-13.71c4.22-3.73,9.32-6.91,15.29-7.08a5.76,5.76,0,0,1,4.18,1.78,10.41,10.41,0,0,1,.7.94,9.71,9.71,0,0,1,.49,1,5.09,5.09,0,0,1,.33,1.07,5.75,5.75,0,0,1,.23,1.25l.13,1.27v1.24c0,.84-.1,1.63-.16,2.43s-.21,1.63-.31,2.45l-.08.61-.23-.17-.45-.34-1.31-2-1.35-1.88c-.47-.52-.93-1.05-1.41-1.55l-.63-.57c-.2-.17-.38-.36-.59-.51A20,20,0,0,0,367.2,140a28.64,28.64,0,0,0-12.48-1.38c-8.46.8-16.57,3.8-24.17,7.44a128,128,0,0,0-21.39,13.2,100.16,100.16,0,0,0-9.42,8.08,48.93,48.93,0,0,0-4.13,4.53,17.49,17.49,0,0,0-3,5.05l-1.34-.42a40.63,40.63,0,0,0,1.09-11.41,47.14,47.14,0,0,0-1.54-11.29,12.89,12.89,0,0,0-.77-2.14l-.22-.45-.06-.11s-.07,0-.11,0l-.24.11-1,.46c-.34.17-.62.28-1,.48l-1.25.66c-.84.44-1.68.88-2.49,1.36-3.29,1.86-6.45,3.91-9.59,6-6.28,4.11-12.5,8.33-19.31,11.34-.84.41-1.7.75-2.56,1.09s-1.72.7-2.61,1-1.75.59-2.64.85l-3.2.81-.45.11-.23.06-.11-.2-.45-.81-.89-1.6c-.24-.49-.37-.9-.56-1.35a8.31,8.31,0,0,1-.47-1.35,15.77,15.77,0,0,1-.57-2.78c-.05-.47-.13-.94-.14-1.41v-1.41a24.93,24.93,0,0,1,.57-4.65,25.15,25.15,0,0,0-.6,6.2,20.41,20.41,0,0,0,.46,3.12c.14.52.23,1,.41,1.54l.57,1.47a12.75,12.75,0,0,0,.85,1.7l.5.9.25.45.13.23c0,.08.15,0,.23,0l3.65-.91a60.24,60.24,0,0,0,5.72-2c7.49-3,14.21-7.4,20.78-11.71,3.3-2.16,6.59-4.29,10-6.22.84-.49,1.69-1,2.55-1.41s1.85-1,2.33-1.18l.89-.42.45-.21c.09.07.14.25.21.36a8.24,8.24,0,0,1,.35.81c.05.16.09.24.16.45l.2.68a46.4,46.4,0,0,1,1.56,11.37A40.18,40.18,0,0,1,291,176.43l1.84.58a12.75,12.75,0,0,1,1.57-3,30.8,30.8,0,0,1,2.16-2.84,62.88,62.88,0,0,1,5-5.18,63.37,63.37,0,0,0-5,5.21A30.26,30.26,0,0,0,294.4,174a12.86,12.86,0,0,0-1.55,3l-1.88-.58a33.58,33.58,0,0,0,1-7.36,59.76,59.76,0,0,0-.18-7.57,41.2,41.2,0,0,0-1.26-7.39,11.86,11.86,0,0,0-.93-2.5s0-.12-.08-.09l-.14.07-.28.13-.57.27-.56.26-.28.14-.41.21C278.28,157.2,270.19,163.62,261.1,168.68Z" transform="translate(-21 -8)"/><path class="cls-1" d="M378.51,144a11.44,11.44,0,0,0-.6-3.85,4.86,4.86,0,0,0-2.49-2.89,7.4,7.4,0,0,0-4.46-.36,18.53,18.53,0,0,0-2.2.53c-.71.27-1.43.49-2.12.8A19.19,19.19,0,0,1,372,136.8a7.06,7.06,0,0,1,2.82.25,5.15,5.15,0,0,1,1.28.6c.19.13.35.31.53.46l.26.24a3.06,3.06,0,0,1,.21.29l.41.58c.11.21.2.43.3.64a6.46,6.46,0,0,1,.44,1.35A12.43,12.43,0,0,1,378.51,144Z" transform="translate(-21 -8)"/><path class="cls-1" d="M311.9,155.13l-.85.6a114.31,114.31,0,0,0-10.34,8.34c-1.64,1.51-3.25,3.08-4.76,4.77a30.66,30.66,0,0,0-4.11,5.56,11.58,11.58,0,0,0-.88,2l1.9.59a36,36,0,0,0,1.13-9,58.63,58.63,0,0,0-.5-9.14,41,41,0,0,0-.87-4.58c-.08-.39-.21-.76-.32-1.14a10,10,0,0,0-.42-1.23l-.58-1.42-.68-1.37c0-.05-.05-.13-.09-.16l-.16.08-.34.15-.67.31-1.33.61c-.43.2-.92.41-1.3.6l-1,.55c-1.4.71-2.76,1.49-4.12,2.27,1.36-.78,2.72-1.56,4.12-2.26l1-.55,1.3-.6,1.33-.6.67-.31.33-.15.17-.07s.06.1.09.15l.67,1.37.58,1.42a10.93,10.93,0,0,1,.41,1.22c.11.38.24.76.32,1.15a43.24,43.24,0,0,1,.86,4.6,59.83,59.83,0,0,1,.47,9.14,35.67,35.67,0,0,1-1.15,9l-1.74-.54a15.18,15.18,0,0,1,1.95-3.76,35.61,35.61,0,0,1,2.46-3.17,68.39,68.39,0,0,1,5.39-5.49A120.83,120.83,0,0,1,311.9,155.13Z" transform="translate(-21 -8)"/><path class="cls-1" d="M272,158.13c-2.31,1.52-6.89,4.49-9.24,5.86-1.4.88-2.81,1.68-4.24,2.5,2.22-1.21,4.44-2.49,6.61-3.86S269.75,159.65,272,158.13Z" transform="translate(-21 -8)"/><path class="cls-1" d="M173.53,166.89a12.75,12.75,0,0,0,.63,5.45,5.24,5.24,0,0,0,1.35,2,5.56,5.56,0,0,0,2.15,1.06,13.15,13.15,0,0,0,5.44-.05,36.86,36.86,0,0,0,5.61-1.55,91.86,91.86,0,0,0,10.8-4.78c3.51-1.8,6.94-3.73,10.31-5.71,6.76-4,13.29-8.17,19.75-12.31,3.23-2.08,6.45-4.15,9.69-6.16l2.44-1.48,1.93-1.13,2-1.11c.65-.32,1.31-.66,1.94-1l1.83-.81,1.85-.79a6.4,6.4,0,0,1,1.72-.61c-1.43,3-2.79,5.83-4.27,8.8l-1.66,3.4c-.4.87-.82,1.73-1.19,2.6a34.68,34.68,0,0,0-3.07,10.39,20.22,20.22,0,0,0-.1,2.57c0,.43.09.84.12,1.26a7.17,7.17,0,0,0,.2,1.23l.29,1.21a9.63,9.63,0,0,0,.43,1.17l.23.58.11.29c0,.08,0,.08.06.13l.24.42c.05.06.07.17.13.18l.19,0,.53-.13,1.29-.34,1.28-.41c1.7-.51,3.36-1.2,5-1.87,1-.45,1.95-.89,2.91-1.37l2.84-1.5a61.1,61.1,0,0,1-11.75,4.93c-.5.18-1,.28-1.52.41l-.6.15-.09,0h0l0-.06-.12-.21-.12-.22-.06-.11a3,3,0,0,1-.11-.3,15,15,0,0,1-1.25-5.61c-.1-3.92,1.16-7.92,2.77-11.75.42-1,.83-1.93,1.29-2.88l.68-1.43,1-2c1.69-3.39,3.24-6.61,4.83-9.93l-.3.07a1.31,1.31,0,0,0-.35.12l-.86.35-1.62.69c-1.06.46-2.08.87-3.19,1.4s-2.27,1.16-3.42,1.8l-1.74,1-1.08.65c-2.67,1.62-5.26,3.28-7.83,4.92-5.13,3.3-10.14,6.57-15.12,9.69-4.63,2.93-11.66,7.23-16.5,9.74a109.21,109.21,0,0,1-10.48,4.92,33.38,33.38,0,0,1-10.67,2.69,7.06,7.06,0,0,1-4.51-1.17,5.91,5.91,0,0,1-2-4c-.48-3.38.26-7.13,1.14-10.64a3.55,3.55,0,0,1,.67-1.06c.36-.41.75-.83,1.17-1.23.84-.81,1.76-1.59,2.7-2.34,1.88-1.51,3.86-2.93,5.86-4.3,4-2.74,8.16-5.29,12.38-7.71-4.18,2.39-8.31,4.91-12.33,7.64-2,1.37-4,2.79-5.88,4.3-.95.75-1.88,1.53-2.73,2.35a17.24,17.24,0,0,0-1.19,1.25,3.7,3.7,0,0,0-.7,1.08,44.4,44.4,0,0,0-1.17,6.2Z" transform="translate(-21 -8)"/><path class="cls-1" d="M35.28,120.2,33.47,120l0,0Z" transform="translate(-21 -8)"/><path class="cls-1" d="M37.07,119.85l-.56,0,.11,0Z" transform="translate(-21 -8)"/><path class="cls-1" d="M33.5,120.08c.12.16.86.37-.08.42-.5,0-1.26-.16-2-.26s-1.52-.22-2-.35c-1-.15,0,.15-.05.23l-1.4-.3a3.28,3.28,0,0,0-.64-.11c-.67-.07.37.27,2.37.72a72.34,72.34,0,0,0,7.95.36c.92,0,1.34-.07.8-.16S36.4,120.45,33.5,120.08Z" transform="translate(-21 -8)"/><path class="cls-1" d="M41.47,120.18c-1.74,0-3.49-.09-5.23-.17-.55,0-1.3.06-.78.2A46.27,46.27,0,0,0,41.47,120.18Z" transform="translate(-21 -8)"/><path class="cls-1" d="M443.15,106s.08-.06,1-.29l-1,.29s.06,0-.37.17c1.66-.5,3.44-1.1,5.28-1.68.92-.31,1.87-.54,2.78-.93l2.75-1.1,1.31-.64a110.46,110.46,0,0,1-13.59,4.53L434.78,108l-6.11,1.34c2.75-.57,5.08-1,7.35-1.55Z" transform="translate(-21 -8)"/><path class="cls-1" d="M455.51,101.32l.91-.36C455.58,101.25,455.5,101.3,455.51,101.32Z" transform="translate(-21 -8)"/><path class="cls-1" d="M284.76,118.15c-6,0-11.2.14-16.49.24,11.24,0,22.76-.07,31.33-.28Q292.21,118.17,284.76,118.15Z" transform="translate(-21 -8)"/><path class="cls-1" d="M242,118.64c7.38.18,13.47.14,19.28.06l-17.63-.09Z" transform="translate(-21 -8)"/><path class="cls-1" d="M250.14,118.5c6.76.07,12.48,0,18.13-.11C261.92,118.42,255.7,118.43,250.14,118.5Z" transform="translate(-21 -8)"/><path class="cls-1" d="M383.68,112.28c4.4-.48,7.07-.76,8.59-.9l2.75-.44-.78.06c-4.55.44-9.15,1-13.83,1.32l-5.26.52Z" transform="translate(-21 -8)"/><path class="cls-1" d="M392.27,111.38c-5.7,1,5.94-.56,0,0Z" transform="translate(-21 -8)"/><path class="cls-1" d="M363.83,115.79l-.68,0-2,.13Z" transform="translate(-21 -8)"/><path class="cls-1" d="M308.84,116.21l11.64-.22-22.5.41,3,0C302.92,116.33,305.87,116.26,308.84,116.21Z" transform="translate(-21 -8)"/><path class="cls-1" d="M394.53,113.29c-5.35.49-10.64,1-15.88,1.42l-7.8.61-7.7.51c-20.71,1.06-40.69,1.49-58.64,2-15.8.47-43.45.22-59.27.63l4.9.08-6.54.11c-26.09-.19-51.69-.65-78.33-1.06l-10.86,0-11.84-.11s0,0,.14,0c-16.25-.09-32.24-.08-49,.52-2,0-3.9.16-5.85.23s-3.9.1-5.8.39l-11.74,1.37c-3,.33-3,.17-5,.34-7.92.59-13.87,1-22.88,1v-.11c-1.39,0-2.63,0-3.65-.06l4-.22c1.45-.11,2.86-.2,3.76-.29,1.81-.24,1.65-.25-4.12-.33h0c.64,0,1.22,0,1.77-.06h.18c2.7-.1,4.33-.29,6-.48-1.74.07-3.47.18-5.21.2.33-.07.54-.12.36-.18l.46,0c.77,0,1.41,0,1.41,0a3.91,3.91,0,0,0,.56-.12c4.53-.32,11.63-1,10.25-1.07-1.06,0-4.35.34-8.1.6h-.75c4.92-.31,0-.27,2.93-.48,3.93-.25,7.86-.63,11.78-1s7.83-.85,11.58-1.3l5.57-.68c.93-.1,1.85-.25,2.78-.31l2.77-.13,5.54-.25,5.58-.17c3.74-.13,7.55-.17,11.5-.27l2.08,0c7.67-.1,14.9-.11,22.4,0l-1.49.06,18.11.15c14.82,0,29.63.13,45.42.38,16.55.26,32.49.46,49.28.53-6.86,0-13.72,0-20.76-.1l-9.37-.15,9.37.15c12.16.21,24.66.43,34,.14,1,0,1,.08,2,.09,6.92.06,13.82.13,19.74,0a3.2,3.2,0,0,1,.45,0l.91,0c.62,0,1.11,0,.62-.07,5.92,0,12.83,0,18.75-.15,2.56,0,5.11-.12,7.67-.25,21.17-.44,42.1-1.11,64.82-2.68l8.9-.64c3.05-.21,6.09-.51,8.94-.74-4.19.43-8.44.86-12.75,1.18l-6.51.52-6.57.42-6.33.32-6.09.26-11.06.56-4.7.24c4.75-.18,9.49-.34,14.19-.6s9.37-.46,14-.78c5.05-.22,10.21-.54,15.27-.89l-.3,0c-4,.3-8,.67-12,.9-7.6.41-14.91.69-21.18,1.08l-2.3.13-4.7.24c5.86-.2,11.69-.51,17.47-.79,3.59-.19,7.16-.44,10.71-.66,2.24-.1,4.5-.22,6.75-.38l-.7.08c-2,.2-7.46.93-4.5.89,3.79-.2,7.95-.54,12.07-.82s8.18-.72,11.78-1l12.45-1.36c.5,0-5.7.79-11.92,1.49l-12,1.16c1.45-.07,2.91-.2,4.36-.31-1.38.15-2.72.32-4,.43-2.95.23-6.89.46-8.86.67-6.87.65-14.76,1-22.64,1.44-4.93.34-10.84.63-16.76,1,0,.08-3,.11-2,.16-5.58.11-12,.26-14.41.5h-.4l-1.55,0c-9.27.09-15.74.33-24.15.52l-8.86,0c2,0,4.94.05,6.92,0l1.94,0c7.5-.09,14.64-.21,21.76-.4l2.39-.12h1.55l.4,0c6.82-.23,14.53-.39,20.33-.7,11-.4,22.62-.88,33.78-1.48-5.55.35-11,.77-16.4,1,3.37-.15,6.64-.37,9.84-.58s6.32-.38,9.4-.64l2.83-.19,5.91-.4-5.48.33,5.47-.44,5.39-.54c9.86-.88,19.84-2.09,29.8-3.63a190.22,190.22,0,0,0,29.38-6.6l-1.23.53A211.7,211.7,0,0,1,420.69,110c5.52-.83,9.27-1.71,14.54-2.79,0,0,.06,0-.38.16l5.34-1.37c.92-.25,1.87-.47,2.82-.73l2.8-.88c-1.17.44-2.46,1-3.8,1.43-1.91.54-4.78,1.28-7.66,2a331.72,331.72,0,0,1-37.11,5.63c-11.2,1-22.4,1.88-33.41,2.39l8-.51,7.75-.61C384.72,114.31,389.66,113.75,394.53,113.29ZM63.58,119.15l3.09-.38-.47,0C65.25,118.9,64.31,119,63.58,119.15Zm22.93-2.39-2.62.09-2.76.32-6,.73c-4.12.51-8.49,1-12.79,1.49,0,0-.08,0-.08,0,3.62-.33,7.63-.79,11.77-1.3l6.26-.8,3.1-.39C84.44,116.83,85.49,116.82,86.51,116.76Zm27,.2h0Zm120.28.28c-7.9.08-17.78-.08-27.65-.18-3,0-5.92.06-9.87,0L184.42,117l3,.13c-6.91-.16-10.87,0-17.77-.18a2.93,2.93,0,0,1-.62.06c-.37,0-.86,0-1.36,0-4.93,0-9.87-.19-13.82-.16-4.93,0-9.86-.09-13.81,0-1,0-3,.09-4.94.11h-7.22l.29,0h5.94c5.93,0,12.83,0,18.75,0l42.45.29h8.89c8.89,0,19.75.22,25.67,0C230.84,117.27,232.81,117.3,233.8,117.24Zm11.06-1.55c-10.41,0-21.94-.07-31.77-.27-7.9-.13-30.6-.3-26.66.24,4.89-.34,21.21,0,35.46.17S248.29,116.18,244.86,115.69Zm82.31-.8c-4.12.15-8.12.28-12.81.33C318.63,115.14,322.9,115,327.17,114.89Zm-42,2c12.83-.24,26.65-.39,39.48-.78l15.17-.4c5.05-.13,10-.34,14.41-.66v-.12l-1,.08c-3.46.11-6.25.18-9.15.22l.51,0-.88,0c-1.94,0-3.95.09-6.26.19l-3.23.15L298,116.4l-19.74.45C280.21,116.85,283.17,116.89,285.15,116.85Z" transform="translate(-21 -8)"/><path class="cls-1" d="M376.35,114.61c4.26-.33,8.54-.66,12.85-1.1,3.33-.33,6.64-.65,9.93-1.08,15.69-1.87,34.17-4.22,50.25-9.64.44-.25.46-.38-.16-.32l-6.58,2L436,106.11c-1.11.3-2.24.52-3.37.74l-3.38.68-3.38.68-3.41.56c-9.07,1.6-18.25,2.6-27.42,3.52l-.43,0c-7.84.93-20.63,1.87-30.48,2.49s-19.71,1.15-29.57,1.62C348.77,116.08,362.32,115.44,376.35,114.61Z" transform="translate(-21 -8)"/><path class="cls-1" d="M261.23,118.7h11.68c10.9,0,20.59-.17,30.49-.37l-10.93.08h-11C274.09,118.44,267.85,118.6,261.23,118.7Z" transform="translate(-21 -8)"/><path class="cls-1" d="M311.43,118.15l-8,.19c5.39,0,10.75-.15,16.11-.23l16-.4c17.53-.62,35.07-1.52,52.55-3.16L394,114c-32.54,2.89-65.09,3.39-92.78,4.08l-1.61,0c13.18-.08,26.22-.33,39.22-.77C329.69,117.7,320.56,117.94,311.43,118.15Z" transform="translate(-21 -8)"/><path class="cls-1" d="M372.24,114.93l2.84-.18,3.26-.26-2,.12Z" transform="translate(-21 -8)"/><path class="cls-1" d="M344.07,115.19h-.37l-9.49.34-13.73.46,12.52-.33C337,115.52,340.77,115.35,344.07,115.19Z" transform="translate(-21 -8)"/><path class="cls-1" d="M316.71,114.87l-3.94,0-1.8.1,2.79,0Z" transform="translate(-21 -8)"/><path class="cls-1" d="M258.48,115.55c17.49,0,33.89-.12,50.13-.43L311,115c-10.9.1-21.74.15-31.74.35-2,0-4.94.13-6.91.12l-27.12,0,12.91,0Z" transform="translate(-21 -8)"/><rect class="cls-2" x="1" y="1" width="454" height="183"/></svg>