<?xml version="1.0" encoding="utf-8"?>
<!-- Generator: Adobe Illustrator 23.0.3, SVG Export Plug-In . SVG Version: 6.00 Build 0)  -->
<svg version="1.1" xmlns="http://www.w3.org/2000/svg" xmlns:xlink="http://www.w3.org/1999/xlink" x="0px" y="0px"
	 viewBox="0 0 500 500" style="enable-background:new 0 0 500 500;" xml:space="preserve">
<style type="text/css">
	.st0{display:none;}
	.st1{display:inline;}
	.st2{fill:none;stroke:#F7931E;stroke-miterlimit:10;}
	.st3{display:inline;opacity:0.97;}
	.st4{fill:url(#SVGID_1_);stroke:#000000;stroke-width:0.5;stroke-miterlimit:10;}
	.st5{fill:url(#SVGID_2_);stroke:#000000;stroke-width:0.5;stroke-miterlimit:10;}
	.st6{fill:url(#SVGID_3_);stroke:#000000;stroke-width:0.5;stroke-miterlimit:10;}
	.st7{fill:url(#SVGID_4_);stroke:#000000;stroke-width:0.5;stroke-miterlimit:10;}
	.st8{fill:url(#SVGID_5_);stroke:#000000;stroke-width:0.5;stroke-miterlimit:10;}
	.st9{fill:url(#SVGID_6_);stroke:#000000;stroke-width:0.5;stroke-miterlimit:10;}
	.st10{fill:url(#SVGID_7_);stroke:#000000;stroke-width:0.5;stroke-miterlimit:10;}
	.st11{fill:url(#SVGID_8_);stroke:#000000;stroke-width:0.5;stroke-miterlimit:10;}
	.st12{fill:url(#SVGID_9_);stroke:#000000;stroke-width:0.5;stroke-miterlimit:10;}
	.st13{fill:url(#SVGID_10_);stroke:#000000;stroke-width:0.5;stroke-miterlimit:10;}
	.st14{fill:url(#SVGID_11_);stroke:#000000;stroke-width:0.5;stroke-miterlimit:10;}
	.st15{fill:url(#SVGID_12_);stroke:#000000;stroke-width:0.5;stroke-miterlimit:10;}
	.st16{fill:url(#SVGID_13_);stroke:#000000;stroke-width:0.5;stroke-miterlimit:10;}
	.st17{fill:url(#SVGID_14_);stroke:#000000;stroke-width:0.5;stroke-miterlimit:10;}
	.st18{fill:url(#SVGID_15_);stroke:#000000;stroke-width:0.5;stroke-miterlimit:10;}
	.st19{fill:url(#SVGID_16_);stroke:#000000;stroke-width:0.5;stroke-miterlimit:10;}
	.st20{fill:url(#SVGID_17_);stroke:#000000;stroke-width:0.5;stroke-miterlimit:10;}
	.st21{fill:url(#SVGID_18_);stroke:#000000;stroke-width:0.5;stroke-miterlimit:10;}
	.st22{fill:url(#SVGID_19_);stroke:#000000;stroke-width:0.5;stroke-miterlimit:10;}
	.st23{fill:url(#SVGID_20_);stroke:#000000;stroke-width:0.5;stroke-miterlimit:10;}
	.st24{fill:url(#SVGID_21_);stroke:#000000;stroke-width:0.5;stroke-miterlimit:10;}
	.st25{fill:url(#SVGID_22_);stroke:#000000;stroke-width:0.5;stroke-miterlimit:10;}
	.st26{fill:url(#SVGID_23_);stroke:#000000;stroke-width:0.5;stroke-miterlimit:10;}
	.st27{fill:url(#SVGID_24_);stroke:#000000;stroke-width:0.5;stroke-miterlimit:10;}
	.st28{fill:url(#SVGID_25_);stroke:#000000;stroke-width:0.5;stroke-miterlimit:10;}
	.st29{fill:url(#SVGID_26_);stroke:#000000;stroke-width:0.5;stroke-miterlimit:10;}
	.st30{fill:url(#SVGID_27_);stroke:#000000;stroke-width:0.5;stroke-miterlimit:10;}
	.st31{fill:url(#SVGID_28_);stroke:#000000;stroke-width:0.5;stroke-miterlimit:10;}
	.st32{fill:url(#SVGID_29_);stroke:#000000;stroke-width:0.5;stroke-miterlimit:10;}
	.st33{fill:url(#SVGID_30_);stroke:#000000;stroke-width:0.5;stroke-miterlimit:10;}
	.st34{fill:url(#SVGID_31_);stroke:#000000;stroke-width:0.5;stroke-miterlimit:10;}
	.st35{fill:url(#SVGID_32_);stroke:#000000;stroke-width:0.5;stroke-miterlimit:10;}
	.st36{fill:url(#SVGID_33_);stroke:#000000;stroke-width:0.5;stroke-miterlimit:10;}
	.st37{fill:url(#SVGID_34_);stroke:#000000;stroke-width:0.5;stroke-miterlimit:10;}
	.st38{fill:url(#SVGID_35_);stroke:#000000;stroke-width:0.5;stroke-miterlimit:10;}
	.st39{fill:url(#SVGID_36_);stroke:#000000;stroke-width:0.5;stroke-miterlimit:10;}
	.st40{fill:url(#SVGID_37_);stroke:#000000;stroke-width:0.5;stroke-miterlimit:10;}
	.st41{fill:url(#SVGID_38_);stroke:#000000;stroke-width:0.5;stroke-miterlimit:10;}
	.st42{fill:url(#SVGID_39_);stroke:#000000;stroke-width:0.5;stroke-miterlimit:10;}
	.st43{fill:url(#SVGID_40_);stroke:#000000;stroke-width:0.5;stroke-miterlimit:10;}
	.st44{fill:url(#SVGID_41_);stroke:#000000;stroke-width:0.5;stroke-miterlimit:10;}
	.st45{fill:url(#SVGID_42_);stroke:#000000;stroke-width:0.5;stroke-miterlimit:10;}
	.st46{fill:url(#SVGID_43_);stroke:#000000;stroke-width:0.5;stroke-miterlimit:10;}
	.st47{fill:url(#SVGID_44_);stroke:#000000;stroke-width:0.5;stroke-miterlimit:10;}
	.st48{fill:url(#SVGID_45_);stroke:#000000;stroke-width:0.5;stroke-miterlimit:10;}
	.st49{fill:url(#SVGID_46_);stroke:#000000;stroke-width:0.5;stroke-miterlimit:10;}
	.st50{fill:url(#SVGID_47_);stroke:#000000;stroke-width:0.5;stroke-miterlimit:10;}
	.st51{fill:url(#SVGID_48_);stroke:#000000;stroke-width:0.5;stroke-miterlimit:10;}
	.st52{fill:url(#SVGID_49_);stroke:#000000;stroke-width:0.5;stroke-miterlimit:10;}
	.st53{fill:url(#SVGID_50_);stroke:#000000;stroke-width:0.5;stroke-miterlimit:10;}
	.st54{fill:url(#SVGID_51_);stroke:#000000;stroke-width:0.5;stroke-miterlimit:10;}
	.st55{fill:url(#SVGID_52_);stroke:#000000;stroke-width:0.5;stroke-miterlimit:10;}
	.st56{fill:url(#SVGID_53_);stroke:#000000;stroke-width:0.5;stroke-miterlimit:10;}
	.st57{fill:url(#SVGID_54_);stroke:#000000;stroke-width:0.5;stroke-miterlimit:10;}
	.st58{fill:url(#SVGID_55_);stroke:#000000;stroke-width:0.5;stroke-miterlimit:10;}
	.st59{fill:url(#SVGID_56_);stroke:#000000;stroke-width:0.5;stroke-miterlimit:10;}
	.st60{fill:url(#SVGID_57_);stroke:#000000;stroke-width:0.5;stroke-miterlimit:10;}
	.st61{fill:url(#SVGID_58_);stroke:#000000;stroke-width:0.5;stroke-miterlimit:10;}
	.st62{fill:url(#SVGID_59_);stroke:#000000;stroke-width:0.5;stroke-miterlimit:10;}
	.st63{fill:url(#SVGID_60_);stroke:#000000;stroke-width:0.5;stroke-miterlimit:10;}
	.st64{fill:url(#SVGID_61_);stroke:#000000;stroke-width:0.5;stroke-miterlimit:10;}
	.st65{fill:url(#SVGID_62_);stroke:#000000;stroke-width:0.5;stroke-miterlimit:10;}
	.st66{fill:url(#SVGID_63_);stroke:#000000;stroke-width:0.5;stroke-miterlimit:10;}
	.st67{fill:url(#SVGID_64_);stroke:#000000;stroke-width:0.5;stroke-miterlimit:10;}
	.st68{fill:#FFFFFF;}
	.st69{fill:#8B1700;}
	.st70{fill:#FFFFFF;stroke:#8B1700;stroke-miterlimit:10;}
	.st71{fill:none;stroke:#8B1700;stroke-miterlimit:10;}
	.st72{fill:#F7931E;}
</style>
<g id="Layer_1" class="st0">
	<g class="st1">
		<path class="st2" d="M173.4,171.6l15.6,15.2c34.7-34.6,88.4-34.4,123.1,0.2l15-15.4l0.2,0.2c-19.3-19.2-61.4-30.9-61.4-30.9
			c42.4,3.8,23.2-23.1,23.2-23.1c-11.6-11.5-15.4,0-15.4,0s7.7-7.7,11.6,3.8c3.9,11.5-19.2,11.5-23.1,0
			c-3.9-11.5,3.9-11.5,19.3-26.9c15.4-15.4-30.8-92.2-30.8-92.2s-46.2,76.8-30.8,92.2c15.4,15.4,23.1,15.4,19.3,26.9
			c-3.9,11.5-27,11.5-23.1,0c3.9-11.5,11.6-3.8,11.6-3.8s-3.8-11.5-15.4,0c0,0-19.3,26.9,23.1,23c0,0-42.4,11.5-61.6,30.7"/>
	</g>
	<g class="st1">
		<path class="st2" d="M328.2,173.2L313,188.7c34.7,34.6,34.5,88.1-0.2,122.7l15.4,14.9l-0.2,0.2c19.3-19.2,31-61.2,31-61.2
			c-3.8,42.2,23.2,23.1,23.2,23.1c11.6-11.5,0-15.3,0-15.3s7.7,7.7-3.8,11.5c-11.6,3.8-11.5-19.2,0-23c11.6-3.8,11.6,3.8,27,19.2
			c15.4,15.4,92.5-30.7,92.5-30.7s-77-46.1-92.5-30.7c-15.4,15.4-15.4,23-27,19.2c-11.6-3.8-11.6-26.9,0-23
			c11.6,3.8,3.9,11.5,3.9,11.5s11.6-3.8,0-15.4c0,0-27-19.2-23.1,23c0,0-11.6-42.2-30.8-61.4"/>
	</g>
	<g class="st1">
		<path class="st2" d="M327.4,328.2L311.7,313c-34.7,34.6-88.4,34.4-123.1-0.2l-15,15.4l-0.2-0.2c19.3,19.2,61.4,30.9,61.4,30.9
			c-42.4-3.8-23.2,23.1-23.2,23.1c11.6,11.5,15.4,0,15.4,0s-7.7,7.7-11.6-3.8c-3.9-11.5,19.2-11.5,23.1,0
			c3.9,11.5-3.9,11.5-19.3,26.9c-15.4,15.4,30.8,92.2,30.8,92.2s46.2-76.8,30.8-92.2c-15.4-15.4-23.1-15.4-19.3-26.9
			c3.9-11.5,27-11.5,23.1,0c-3.9,11.5-11.6,3.8-11.6,3.8s3.8,11.5,15.4,0c0,0,19.3-26.9-23.1-23c0,0,42.4-11.5,61.6-30.7"/>
	</g>
	<g class="st1">
		<path class="st2" d="M172.6,326.6l15.2-15.6c-34.7-34.6-34.5-88.1,0.2-122.7l-15.4-14.9l0.2-0.2c-19.3,19.2-31,61.2-31,61.2
			c3.8-42.2-23.2-23.1-23.2-23.1c-11.6,11.5,0,15.3,0,15.3s-7.7-7.7,3.8-11.5c11.6-3.8,11.5,19.2,0,23c-11.6,3.8-11.6-3.8-27-19.2
			C80,203.5,2.9,249.6,2.9,249.6s77,46.1,92.5,30.7c15.4-15.4,15.4-23,27-19.2c11.6,3.8,11.6,26.9,0,23c-11.6-3.8-3.9-11.5-3.9-11.5
			s-11.6,3.8,0,15.4c0,0,27,19.2,23.1-23c0,0,11.6,42.2,30.8,61.4"/>
	</g>
	<g class="st1">
		<path class="st2" d="M251.5,140.3l0.3,21.7c49,0,86.9,38,86.9,86.9l21.5-0.3l0,0.3c0-27.2-21.5-65.2-21.5-65.2
			c27.2,32.6,32.8,0,32.8,0c0-16.3-10.8-10.9-10.8-10.9s10.9,0,5.5,10.9c-5.4,10.9-21.8-5.4-16.3-16.3c5.4-10.9,10.9-5.4,32.7-5.4
			c21.8,0,43.6-86.9,43.6-86.9S339,96.8,339,118.5c0,21.7,5.4,27.2-5.4,32.6c-10.9,5.4-27.2-10.9-16.3-16.3
			c10.9-5.4,10.9,5.4,10.9,5.4s5.4-10.9-10.9-10.9c0,0-32.7,5.4,0,32.6c0,0-38.1-21.7-65.4-21.7"/>
	</g>
	<g class="st1">
		<path class="st2" d="M359.8,250.5l-21.8,0.3c0,48.9-38.1,86.6-87.2,86.6l0.3,21.4l-0.3,0c27.2,0,65.4-21.4,65.4-21.4
			c-32.7,27.2,0,32.7,0,32.7c16.3,0,10.9-10.8,10.9-10.8s0,10.9-10.9,5.5c-10.9-5.4,5.4-21.7,16.3-16.3c10.9,5.4,5.4,10.9,5.4,32.6
			c0,21.7,87.2,43.5,87.2,43.5s-21.8-86.9-43.6-86.9c-21.8,0-27.2,5.4-32.7-5.4c-5.4-10.9,10.9-27.2,16.3-16.3
			c5.4,10.9-5.4,10.9-5.4,10.9s10.9,5.4,10.9-10.9c0,0-5.4-32.6-32.7,0c0,0,21.8-38,21.8-65.2"/>
	</g>
	<g class="st1">
		<path class="st2" d="M249.3,359.5l-0.3-21.7c-49,0-86.9-38-86.9-86.9l-21.5,0.3l0-0.3c0,27.2,21.5,65.2,21.5,65.2
			c-27.2-32.6-32.8,0-32.8,0c0,16.3,10.8,10.9,10.8,10.9s-10.9,0-5.5-10.9c5.4-10.9,21.8,5.4,16.3,16.3c-5.4,10.9-10.9,5.4-32.7,5.4
			c-21.8,0-43.6,86.9-43.6,86.9s87.2-21.7,87.2-43.5c0-21.7-5.4-27.2,5.4-32.6c10.9-5.4,27.2,10.9,16.3,16.3
			c-10.9,5.4-10.9-5.4-10.9-5.4s-5.4,10.9,10.9,10.9c0,0,32.7-5.4,0-32.6c0,0,38.1,21.7,65.4,21.7"/>
	</g>
	<g class="st1">
		<path class="st2" d="M141,249.3l21.8-0.3c0-48.9,38.1-86.6,87.2-86.6l-0.3-21.4l0.3,0c-27.2,0-65.4,21.4-65.4,21.4
			c32.7-27.2,0-32.7,0-32.7c-16.3,0-10.9,10.8-10.9,10.8s0-10.9,10.9-5.5c10.9,5.4-5.4,21.7-16.3,16.3c-10.9-5.4-5.4-10.9-5.4-32.6
			c0-21.7-87.2-43.5-87.2-43.5s21.8,86.9,43.6,86.9c21.8,0,27.2-5.4,32.7,5.4c5.4,10.9-10.9,27.2-16.3,16.3
			C130.1,173,141,173,141,173s-10.9-5.4-10.9,10.9c0,0,5.4,32.6,32.7,0c0,0-21.8,38-21.8,65.2"/>
	</g>
</g>
<g id="Layer_2" class="st0">
	<g class="st3">
		
			<linearGradient id="SVGID_1_" gradientUnits="userSpaceOnUse" x1="73.5948" y1="70.9408" x2="73.5948" y2="70.9408" gradientTransform="matrix(0.7071 0.7071 -0.7071 0.7071 248.9766 -100.2055)">
			<stop  offset="0" style="stop-color:#804114"/>
			<stop  offset="0.2528" style="stop-color:#C27C51"/>
			<stop  offset="0.4494" style="stop-color:#8F4819"/>
			<stop  offset="0.6348" style="stop-color:#652611"/>
			<stop  offset="0.7865" style="stop-color:#A3512C"/>
			<stop  offset="0.9775" style="stop-color:#69350D"/>
		</linearGradient>
		<path class="st4" d="M250.9,2"/>
		
			<linearGradient id="SVGID_2_" gradientUnits="userSpaceOnUse" x1="84.4841" y1="191.971" x2="192.0001" y2="84.455" gradientTransform="matrix(0.7071 0.7071 -0.7071 0.7071 248.9766 -100.2055)">
			<stop  offset="0" style="stop-color:#804114"/>
			<stop  offset="0.2528" style="stop-color:#C27C51"/>
			<stop  offset="0.4494" style="stop-color:#8F4819"/>
			<stop  offset="0.6348" style="stop-color:#652611"/>
			<stop  offset="0.7865" style="stop-color:#A3512C"/>
			<stop  offset="0.9775" style="stop-color:#69350D"/>
		</linearGradient>
		<path class="st5" d="M173,172l15.7,15.2c34.8-34.7,87.5-33.4,122.3,1.3l13.9-14.3l0.2,0.2c-19.3-19.3-60.5-32.2-60.5-32.2
			c42.5,3.9,23.8-23.8,23.8-23.8c-11.6-11.6-15.1-0.3-15.1-0.3s7.9-7.9,11.7,3.7c3.9,11.6-19.2,11.5-23.1-0.1
			c-3.9-11.6,3.9-11.6,19.4-27.1C296.7,79.2,250.4,2,250.4,2s-46.3,77.2-30.9,92.6c15.4,15.4,23.2,15.4,19.3,27
			c-3.9,11.6-27,11.6-23.2,0c3.9-11.6,11.6-3.9,11.6-3.9s-3.9-11.6-15.4,0c0,0-19.3,27,23.2,23.2c0,0-42.5,11.6-61.8,30.9"/>
	</g>
	<g class="st3">
		
			<linearGradient id="SVGID_3_" gradientUnits="userSpaceOnUse" x1="84.4708" y1="81.8948" x2="84.4708" y2="81.8948" gradientTransform="matrix(0.7071 0.7071 -0.7071 0.7071 248.9766 -100.2055)">
			<stop  offset="0" style="stop-color:#6B360D"/>
			<stop  offset="0.1067" style="stop-color:#854C18"/>
			<stop  offset="0.2528" style="stop-color:#4E2D1A"/>
			<stop  offset="0.3876" style="stop-color:#925D1E"/>
			<stop  offset="0.5674" style="stop-color:#5B2700"/>
			<stop  offset="0.6798" style="stop-color:#5C2902"/>
			<stop  offset="0.7809" style="stop-color:#52301D"/>
			<stop  offset="0.8764" style="stop-color:#824215"/>
			<stop  offset="1" style="stop-color:#4E2D1A"/>
		</linearGradient>
		<path class="st6" d="M250.8,17.4"/>
		
			<linearGradient id="SVGID_4_" gradientUnits="userSpaceOnUse" x1="93.7135" y1="187.5082" x2="188.9218" y2="92.2999" gradientTransform="matrix(0.7071 0.7071 -0.7071 0.7071 248.9766 -100.2055)">
			<stop  offset="0" style="stop-color:#6B360D"/>
			<stop  offset="0.1067" style="stop-color:#854C18"/>
			<stop  offset="0.2528" style="stop-color:#4E2D1A"/>
			<stop  offset="0.3876" style="stop-color:#925D1E"/>
			<stop  offset="0.5674" style="stop-color:#5B2700"/>
			<stop  offset="0.6798" style="stop-color:#5C2902"/>
			<stop  offset="0.7809" style="stop-color:#52301D"/>
			<stop  offset="0.8764" style="stop-color:#824215"/>
			<stop  offset="1" style="stop-color:#4E2D1A"/>
		</linearGradient>
		<path class="st7" d="M182.7,166.2l13.7,13.3c30.4-30.4,77.4-30,107.8,0.4l13-13.3l0.2,0.2c-16.9-16.9-53.7-27.4-53.7-27.4
			c37.2,3.4,20.5-20.4,20.5-20.4c-10.1-10.1-13.4-0.1-13.4-0.1s6.8-6.8,10.2,3.3c3.4,10.1-16.9,10.1-20.3,0
			c-3.4-10.1,3.4-10.1,16.9-23.6c13.5-13.5-27-81-27-81s-40.5,67.5-27,81c13.5,13.5,20.3,13.5,16.9,23.6c-3.4,10.1-23.7,10.1-20.3,0
			c3.4-10.1,10.1-3.4,10.1-3.4s-3.4-10.1-13.5,0c0,0-16.9,23.6,20.3,20.3c0,0-37.2,10.1-54.1,27"/>
	</g>
	<g class="st3">
		
			<linearGradient id="SVGID_5_" gradientUnits="userSpaceOnUse" x1="95.3488" y1="92.8469" x2="95.3488" y2="92.8469" gradientTransform="matrix(0.7071 0.7071 -0.7071 0.7071 248.9766 -100.2055)">
			<stop  offset="0" style="stop-color:#804114"/>
			<stop  offset="0.2528" style="stop-color:#C27C51"/>
			<stop  offset="0.4494" style="stop-color:#8F4819"/>
			<stop  offset="0.6348" style="stop-color:#652611"/>
			<stop  offset="0.7865" style="stop-color:#A3512C"/>
			<stop  offset="0.9775" style="stop-color:#69350D"/>
		</linearGradient>
		<path class="st8" d="M250.7,32.9"/>
		
			<linearGradient id="SVGID_6_" gradientUnits="userSpaceOnUse" x1="103.2358" y1="183.3355" x2="184.9821" y2="101.5892" gradientTransform="matrix(0.7071 0.7071 -0.7071 0.7071 248.9766 -100.2055)">
			<stop  offset="0" style="stop-color:#804114"/>
			<stop  offset="0.2528" style="stop-color:#C27C51"/>
			<stop  offset="0.4494" style="stop-color:#8F4819"/>
			<stop  offset="0.6348" style="stop-color:#652611"/>
			<stop  offset="0.7865" style="stop-color:#A3512C"/>
			<stop  offset="0.9775" style="stop-color:#69350D"/>
		</linearGradient>
		<path class="st9" d="M192.3,160.4l11.7,11.4c26.1-26,66.4-25.8,92.5,0.2l11.2-11.5l0.2,0.2c-14.5-14.5-46.1-23.4-46.1-23.4
			c31.9,2.9,17.5-17.5,17.5-17.5c-8.7-8.7-11.5,0-11.5,0s5.8-5.8,8.7,2.9c2.9,8.7-14.5,8.7-17.4,0c-2.9-8.7,2.9-8.7,14.5-20.3
			c11.6-11.6-23.2-69.5-23.2-69.5s-34.8,57.9-23.2,69.5c11.6,11.6,17.4,11.6,14.5,20.3c-2.9,8.7-20.3,8.7-17.4,0
			c2.9-8.7,8.7-2.9,8.7-2.9s-2.9-8.7-11.6,0c0,0-14.5,20.3,17.4,17.4c0,0-31.9,8.7-46.3,23.2"/>
	</g>
	<g class="st3">
		
			<linearGradient id="SVGID_7_" gradientUnits="userSpaceOnUse" x1="106.2269" y1="103.7948" x2="106.2269" y2="103.7948" gradientTransform="matrix(0.7071 0.7071 -0.7071 0.7071 248.9766 -100.2055)">
			<stop  offset="0" style="stop-color:#6B360D"/>
			<stop  offset="0.1067" style="stop-color:#854C18"/>
			<stop  offset="0.2528" style="stop-color:#4E2D1A"/>
			<stop  offset="0.3876" style="stop-color:#925D1E"/>
			<stop  offset="0.5674" style="stop-color:#5B2700"/>
			<stop  offset="0.6798" style="stop-color:#5C2902"/>
			<stop  offset="0.7809" style="stop-color:#52301D"/>
			<stop  offset="0.8764" style="stop-color:#824215"/>
			<stop  offset="1" style="stop-color:#4E2D1A"/>
		</linearGradient>
		<path class="st10" d="M250.7,48.3"/>
		
			<linearGradient id="SVGID_8_" gradientUnits="userSpaceOnUse" x1="113.1926" y1="179.6001" x2="179.7519" y2="113.0408" gradientTransform="matrix(0.7071 0.7071 -0.7071 0.7071 248.9766 -100.2055)">
			<stop  offset="0" style="stop-color:#6B360D"/>
			<stop  offset="0.1067" style="stop-color:#854C18"/>
			<stop  offset="0.2528" style="stop-color:#4E2D1A"/>
			<stop  offset="0.3876" style="stop-color:#925D1E"/>
			<stop  offset="0.5674" style="stop-color:#5B2700"/>
			<stop  offset="0.6798" style="stop-color:#5C2902"/>
			<stop  offset="0.7809" style="stop-color:#52301D"/>
			<stop  offset="0.8764" style="stop-color:#824215"/>
			<stop  offset="1" style="stop-color:#4E2D1A"/>
		</linearGradient>
		<path class="st11" d="M202,154.5l9.8,9.5c21.7-21.7,54.2-20.4,76,1.3l8.2-8.5l0.1,0.1c-12.1-12.1-37.3-20.6-37.3-20.6
			c26.6,2.4,15.1-15.1,15.1-15.1c-7.2-7.2-9.3-0.3-9.3-0.3s5-5,7.4,2.3c2.4,7.2-12,7.2-14.4-0.1c-2.4-7.2,2.5-7.3,12.1-16.9
			c9.7-9.6-19.3-57.9-19.3-57.9s-29,48.2-19.3,57.9c9.7,9.6,14.5,9.6,12.1,16.9c-2.4,7.2-16.9,7.2-14.5,0c2.4-7.2,7.2-2.4,7.2-2.4
			s-2.4-7.2-9.7,0c0,0-12.1,16.9,14.5,14.5c0,0-26.5,7.2-38.6,19.3"/>
	</g>
	<g class="st3">
		
			<linearGradient id="SVGID_9_" gradientUnits="userSpaceOnUse" x1="-167.795" y1="385.8473" x2="-167.795" y2="385.8473" gradientTransform="matrix(0.7071 -0.7071 0.7071 0.7071 -151.3534 -142.5239)">
			<stop  offset="0" style="stop-color:#804114"/>
			<stop  offset="0.2528" style="stop-color:#C27C51"/>
			<stop  offset="0.4494" style="stop-color:#8F4819"/>
			<stop  offset="0.6348" style="stop-color:#652611"/>
			<stop  offset="0.7865" style="stop-color:#A3512C"/>
			<stop  offset="0.9775" style="stop-color:#69350D"/>
		</linearGradient>
		<path class="st12" d="M2.8,249"/>
		
			<linearGradient id="SVGID_10_" gradientUnits="userSpaceOnUse" x1="-157.2885" y1="506.4054" x2="-45.8599" y2="394.9768" gradientTransform="matrix(0.7071 -0.7071 0.7071 0.7071 -151.3534 -142.5239)">
			<stop  offset="0" style="stop-color:#804114"/>
			<stop  offset="0.2528" style="stop-color:#C27C51"/>
			<stop  offset="0.4494" style="stop-color:#8F4819"/>
			<stop  offset="0.6348" style="stop-color:#652611"/>
			<stop  offset="0.7865" style="stop-color:#A3512C"/>
			<stop  offset="0.9775" style="stop-color:#69350D"/>
		</linearGradient>
		<path class="st13" d="M173,326.8l15.2-15.6c-34.8-34.7-36.3-90.3-1.5-125l-17.2-16.7l0.2-0.2c-19.3,19.3-29.4,63.2-29.4,63.2
			c3.9-42.4-22.4-22.4-22.4-22.4c-11.6,11.6,0.4,15.8,0.4,15.8s-7.5-7.5,4-11.4c11.6-3.9,11.7,19.4,0.1,23.2
			c-11.6,3.9-11.5-3.8-27-19.2C80,203,2.8,249.4,2.8,249.4s77.2,46.3,92.7,30.9c15.4-15.4,15.5-23.1,27-19.3
			c11.6,3.9,11.6,27,0,23.2c-11.6-3.9-3.9-11.6-3.9-11.6s-11.6,3.9,0,15.4c0,0,27,19.3,23.2-23.2c0,0,11.6,42.4,30.9,61.7"/>
	</g>
	<g class="st3">
		
			<linearGradient id="SVGID_11_" gradientUnits="userSpaceOnUse" x1="-156.9108" y1="396.8097" x2="-156.9108" y2="396.8097" gradientTransform="matrix(0.7071 -0.7071 0.7071 0.7071 -151.3534 -142.5239)">
			<stop  offset="0" style="stop-color:#6B360D"/>
			<stop  offset="0.1067" style="stop-color:#854C18"/>
			<stop  offset="0.2528" style="stop-color:#4E2D1A"/>
			<stop  offset="0.3876" style="stop-color:#925D1E"/>
			<stop  offset="0.5674" style="stop-color:#5B2700"/>
			<stop  offset="0.6798" style="stop-color:#5C2902"/>
			<stop  offset="0.7809" style="stop-color:#52301D"/>
			<stop  offset="0.8764" style="stop-color:#824215"/>
			<stop  offset="1" style="stop-color:#4E2D1A"/>
		</linearGradient>
		<path class="st14" d="M18.3,249"/>
		
			<linearGradient id="SVGID_12_" gradientUnits="userSpaceOnUse" x1="-147.7169" y1="502.2975" x2="-50.3116" y2="404.8922" gradientTransform="matrix(0.7071 -0.7071 0.7071 0.7071 -151.3534 -142.5239)">
			<stop  offset="0" style="stop-color:#6B360D"/>
			<stop  offset="0.1067" style="stop-color:#854C18"/>
			<stop  offset="0.2528" style="stop-color:#4E2D1A"/>
			<stop  offset="0.3876" style="stop-color:#925D1E"/>
			<stop  offset="0.5674" style="stop-color:#5B2700"/>
			<stop  offset="0.6798" style="stop-color:#5C2902"/>
			<stop  offset="0.7809" style="stop-color:#52301D"/>
			<stop  offset="0.8764" style="stop-color:#824215"/>
			<stop  offset="1" style="stop-color:#4E2D1A"/>
		</linearGradient>
		<path class="st15" d="M167.2,317.1l13.3-13.7c-30.4-30.4-31.7-78.9-1.3-109.3l-15-14.6l0.2-0.2c-16.9,16.9-25.8,55.3-25.8,55.3
			C142.1,197.5,119,215,119,215c-10.1,10.1,0.3,13.8,0.3,13.8s-6.6-6.6,3.5-10c10.1-3.4,10.2,17,0.1,20.3
			c-10.1,3.4-10.1-3.3-23.6-16.8c-13.5-13.5-81.1,27-81.1,27s67.6,40.5,81.1,27c13.5-13.5,13.5-20.3,23.7-16.9
			c10.1,3.4,10.1,23.6,0,20.3c-10.1-3.4-3.4-10.1-3.4-10.1s-10.1,3.4,0,13.5c0,0,23.7,16.9,20.3-20.3c0,0,10.1,37.1,27,54"/>
	</g>
	<g class="st3">
		
			<linearGradient id="SVGID_13_" gradientUnits="userSpaceOnUse" x1="-146.0229" y1="407.7715" x2="-146.0229" y2="407.7715" gradientTransform="matrix(0.7071 -0.7071 0.7071 0.7071 -151.3534 -142.5239)">
			<stop  offset="0" style="stop-color:#804114"/>
			<stop  offset="0.2528" style="stop-color:#C27C51"/>
			<stop  offset="0.4494" style="stop-color:#8F4819"/>
			<stop  offset="0.6348" style="stop-color:#652611"/>
			<stop  offset="0.7865" style="stop-color:#A3512C"/>
			<stop  offset="0.9775" style="stop-color:#69350D"/>
		</linearGradient>
		<path class="st16" d="M33.7,249.1"/>
		
			<linearGradient id="SVGID_14_" gradientUnits="userSpaceOnUse" x1="-138.1404" y1="498.1902" x2="-55.3347" y2="415.3846" gradientTransform="matrix(0.7071 -0.7071 0.7071 0.7071 -151.3534 -142.5239)">
			<stop  offset="0" style="stop-color:#804114"/>
			<stop  offset="0.2528" style="stop-color:#C27C51"/>
			<stop  offset="0.4494" style="stop-color:#8F4819"/>
			<stop  offset="0.6348" style="stop-color:#652611"/>
			<stop  offset="0.7865" style="stop-color:#A3512C"/>
			<stop  offset="0.9775" style="stop-color:#69350D"/>
		</linearGradient>
		<path class="st17" d="M161.3,307.4l11.4-11.7c-26.1-26-26.7-67.2-0.6-93.2l-12.3-12l0.2-0.2c-14.5,14.5-22.6,46.9-22.6,46.9
			c2.9-31.8-17.1-17.1-17.1-17.1c-8.7,8.7,0.2,11.7,0.2,11.7s-5.7-5.7,3-8.6c8.7-2.9,8.7,14.5,0,17.4c-8.7,2.9-8.7-2.9-20.3-14.5
			c-11.6-11.6-69.5,23.2-69.5,23.2s57.9,34.7,69.5,23.2c11.6-11.6,11.6-17.4,20.3-14.5c8.7,2.9,8.7,20.3,0,17.4
			c-8.7-2.9-2.9-8.7-2.9-8.7s-8.7,2.9,0,11.6c0,0,20.3,14.5,17.4-17.4c0,0,8.7,31.8,23.2,46.3"/>
	</g>
	<g class="st3">
		
			<linearGradient id="SVGID_15_" gradientUnits="userSpaceOnUse" x1="-135.1359" y1="418.7297" x2="-135.1359" y2="418.7297" gradientTransform="matrix(0.7071 -0.7071 0.7071 0.7071 -151.3534 -142.5239)">
			<stop  offset="0" style="stop-color:#6B360D"/>
			<stop  offset="0.1067" style="stop-color:#854C18"/>
			<stop  offset="0.2528" style="stop-color:#4E2D1A"/>
			<stop  offset="0.3876" style="stop-color:#925D1E"/>
			<stop  offset="0.5674" style="stop-color:#5B2700"/>
			<stop  offset="0.6798" style="stop-color:#5C2902"/>
			<stop  offset="0.7809" style="stop-color:#52301D"/>
			<stop  offset="0.8764" style="stop-color:#824215"/>
			<stop  offset="1" style="stop-color:#4E2D1A"/>
		</linearGradient>
		<path class="st18" d="M49.2,249.1"/>
		
			<linearGradient id="SVGID_16_" gradientUnits="userSpaceOnUse" x1="-128.5698" y1="494.0813" x2="-59.7865" y2="425.2979" gradientTransform="matrix(0.7071 -0.7071 0.7071 0.7071 -151.3534 -142.5239)">
			<stop  offset="0" style="stop-color:#6B360D"/>
			<stop  offset="0.1067" style="stop-color:#854C18"/>
			<stop  offset="0.2528" style="stop-color:#4E2D1A"/>
			<stop  offset="0.3876" style="stop-color:#925D1E"/>
			<stop  offset="0.5674" style="stop-color:#5B2700"/>
			<stop  offset="0.6798" style="stop-color:#5C2902"/>
			<stop  offset="0.7809" style="stop-color:#52301D"/>
			<stop  offset="0.8764" style="stop-color:#824215"/>
			<stop  offset="1" style="stop-color:#4E2D1A"/>
		</linearGradient>
		<path class="st19" d="M155.5,297.8l9.5-9.8c-21.7-21.7-22.1-55.8-0.3-77.5l-10.1-9.8l0.1-0.1c-12.1,12.1-19,38.9-19,38.9
			c2.4-26.5-14.3-14.3-14.3-14.3c-7.2,7.2,0.1,9.7,0.1,9.7s-4.8-4.8,2.5-7.2c7.2-2.4,7.3,12.1,0,14.5c-7.2,2.4-7.2-2.4-16.9-12
			c-9.7-9.6-57.9,19.3-57.9,19.3s48.3,28.9,57.9,19.3c9.7-9.6,9.7-14.5,16.9-12.1c7.2,2.4,7.2,16.9,0,14.5c-7.2-2.4-2.4-7.2-2.4-7.2
			s-7.2,2.4,0,9.6c0,0,16.9,12.1,14.5-14.5c0,0,7.2,26.5,19.3,38.6"/>
	</g>
	<g class="st3">
		
			<linearGradient id="SVGID_17_" gradientUnits="userSpaceOnUse" x1="-482.6987" y1="-145.0575" x2="-482.6987" y2="-145.0575" gradientTransform="matrix(-0.7071 -0.7071 0.7071 -0.7071 11.0352 53.0995)">
			<stop  offset="0" style="stop-color:#804114"/>
			<stop  offset="0.2528" style="stop-color:#C27C51"/>
			<stop  offset="0.4494" style="stop-color:#8F4819"/>
			<stop  offset="0.6348" style="stop-color:#652611"/>
			<stop  offset="0.7865" style="stop-color:#A3512C"/>
			<stop  offset="0.9775" style="stop-color:#69350D"/>
		</linearGradient>
		<path class="st20" d="M249.8,497"/>
		
			<linearGradient id="SVGID_18_" gradientUnits="userSpaceOnUse" x1="-472.2907" y1="-24.5043" x2="-362.4636" y2="-134.3315" gradientTransform="matrix(-0.7071 -0.7071 0.7071 -0.7071 11.0352 53.0995)">
			<stop  offset="0" style="stop-color:#804114"/>
			<stop  offset="0.2528" style="stop-color:#C27C51"/>
			<stop  offset="0.4494" style="stop-color:#8F4819"/>
			<stop  offset="0.6348" style="stop-color:#652611"/>
			<stop  offset="0.7865" style="stop-color:#A3512C"/>
			<stop  offset="0.9775" style="stop-color:#69350D"/>
		</linearGradient>
		<path class="st21" d="M327.7,327L312,311.8c-34.8,34.7-89.1,35-123.9,0.3l-15.5,16l-0.2-0.2c19.3,19.3,62.1,30.6,62.1,30.6
			c-42.5-3.9-23,23-23,23c11.6,11.6,15.5-0.1,15.5-0.1s-7.7,7.7-11.5-3.9c-3.9-11.6,19.3-11.6,23.2,0c3.9,11.6-3.8,11.6-19.3,27
			c-15.4,15.4,30.9,92.6,30.9,92.6s46.4-77.2,30.9-92.6c-15.4-15.4-23.2-15.4-19.3-27c3.9-11.6,27-11.6,23.2,0
			c-3.9,11.6-11.6,3.9-11.6,3.9s3.9,11.6,15.4,0c0,0,19.3-27-23.2-23.2c0,0,42.5-11.6,61.8-30.9"/>
	</g>
	<g class="st3">
		
			<linearGradient id="SVGID_19_" gradientUnits="userSpaceOnUse" x1="-471.8262" y1="-134.1082" x2="-471.8262" y2="-134.1082" gradientTransform="matrix(-0.7071 -0.7071 0.7071 -0.7071 11.0352 53.0995)">
			<stop  offset="0" style="stop-color:#6B360D"/>
			<stop  offset="0.1067" style="stop-color:#854C18"/>
			<stop  offset="0.2528" style="stop-color:#4E2D1A"/>
			<stop  offset="0.3876" style="stop-color:#925D1E"/>
			<stop  offset="0.5674" style="stop-color:#5B2700"/>
			<stop  offset="0.6798" style="stop-color:#5C2902"/>
			<stop  offset="0.7809" style="stop-color:#52301D"/>
			<stop  offset="0.8764" style="stop-color:#824215"/>
			<stop  offset="1" style="stop-color:#4E2D1A"/>
		</linearGradient>
		<path class="st22" d="M249.8,481.6"/>
		
			<linearGradient id="SVGID_20_" gradientUnits="userSpaceOnUse" x1="-462.7166" y1="-28.6212" x2="-366.3474" y2="-124.9904" gradientTransform="matrix(-0.7071 -0.7071 0.7071 -0.7071 11.0352 53.0995)">
			<stop  offset="0" style="stop-color:#6B360D"/>
			<stop  offset="0.1067" style="stop-color:#854C18"/>
			<stop  offset="0.2528" style="stop-color:#4E2D1A"/>
			<stop  offset="0.3876" style="stop-color:#925D1E"/>
			<stop  offset="0.5674" style="stop-color:#5B2700"/>
			<stop  offset="0.6798" style="stop-color:#5C2902"/>
			<stop  offset="0.7809" style="stop-color:#52301D"/>
			<stop  offset="0.8764" style="stop-color:#824215"/>
			<stop  offset="1" style="stop-color:#4E2D1A"/>
		</linearGradient>
		<path class="st23" d="M318,332.8l-13.7-13.3c-30.4,30.4-78.2,30.9-108.6,0.5l-13.8,14.2l-0.2-0.2c16.9,16.9,54.5,26.6,54.5,26.6
			c-37.2-3.4-20,20-20,20c10.1,10.1,13.6-0.1,13.6-0.1s-6.7,6.7-10.1-3.4c-3.4-10.1,16.9-10.2,20.3,0c3.4,10.1-3.4,10.1-16.9,23.6
			c-13.5,13.5,27,81,27,81s40.6-67.5,27-81C263.7,387,257,387,260.3,376.9c3.4-10.1,23.7-10.1,20.3,0c-3.4,10.1-10.1,3.4-10.1,3.4
			s3.4,10.1,13.5,0c0,0,16.9-23.6-20.3-20.3c0,0,37.2-10.1,54.1-27"/>
	</g>
	<g class="st3">
		
			<linearGradient id="SVGID_21_" gradientUnits="userSpaceOnUse" x1="-460.9509" y1="-123.1562" x2="-460.9509" y2="-123.1562" gradientTransform="matrix(-0.7071 -0.7071 0.7071 -0.7071 11.0352 53.0995)">
			<stop  offset="0" style="stop-color:#804114"/>
			<stop  offset="0.2528" style="stop-color:#C27C51"/>
			<stop  offset="0.4494" style="stop-color:#8F4819"/>
			<stop  offset="0.6348" style="stop-color:#652611"/>
			<stop  offset="0.7865" style="stop-color:#A3512C"/>
			<stop  offset="0.9775" style="stop-color:#69350D"/>
		</linearGradient>
		<path class="st24" d="M249.9,466.1"/>
		
			<linearGradient id="SVGID_22_" gradientUnits="userSpaceOnUse" x1="-453.1444" y1="-32.7438" x2="-369.085" y2="-116.8033" gradientTransform="matrix(-0.7071 -0.7071 0.7071 -0.7071 11.0352 53.0995)">
			<stop  offset="0" style="stop-color:#804114"/>
			<stop  offset="0.2528" style="stop-color:#C27C51"/>
			<stop  offset="0.4494" style="stop-color:#8F4819"/>
			<stop  offset="0.6348" style="stop-color:#652611"/>
			<stop  offset="0.7865" style="stop-color:#A3512C"/>
			<stop  offset="0.9775" style="stop-color:#69350D"/>
		</linearGradient>
		<path class="st25" d="M308.3,338.6l-11.7-11.4c-26.1,26-68,27.5-94.1,1.4l-12.9,13.2l-0.2-0.2c14.5,14.5,47.8,21.7,47.8,21.7
			c-31.9-2.9-16.7,16.6-16.7,16.6c8.7,8.7,11.9-0.4,11.9-0.4s-5.6,5.6-8.5-3.1c-2.9-8.7,14.6-8.8,17.5-0.1
			c2.9,8.7-2.9,8.6-14.4,20.2c-11.6,11.6,23.2,69.4,23.2,69.4s34.8-57.9,23.2-69.5c-11.6-11.6-17.4-11.6-14.5-20.3
			c2.9-8.7,20.3-8.7,17.4,0c-2.9,8.7-8.7,2.9-8.7,2.9s2.9,8.7,11.6,0c0,0,14.5-20.3-17.4-17.4c0,0,31.9-8.7,46.3-23.2"/>
	</g>
	<g class="st3">
		
			<linearGradient id="SVGID_23_" gradientUnits="userSpaceOnUse" x1="-450.0736" y1="-112.2021" x2="-450.0736" y2="-112.2021" gradientTransform="matrix(-0.7071 -0.7071 0.7071 -0.7071 11.0352 53.0995)">
			<stop  offset="0" style="stop-color:#6B360D"/>
			<stop  offset="0.1067" style="stop-color:#854C18"/>
			<stop  offset="0.2528" style="stop-color:#4E2D1A"/>
			<stop  offset="0.3876" style="stop-color:#925D1E"/>
			<stop  offset="0.5674" style="stop-color:#5B2700"/>
			<stop  offset="0.6798" style="stop-color:#5C2902"/>
			<stop  offset="0.7809" style="stop-color:#52301D"/>
			<stop  offset="0.8764" style="stop-color:#824215"/>
			<stop  offset="1" style="stop-color:#4E2D1A"/>
		</linearGradient>
		<path class="st26" d="M249.9,450.7"/>
		
			<linearGradient id="SVGID_24_" gradientUnits="userSpaceOnUse" x1="-443.5649" y1="-36.8552" x2="-374.6924" y2="-105.7277" gradientTransform="matrix(-0.7071 -0.7071 0.7071 -0.7071 11.0352 53.0995)">
			<stop  offset="0" style="stop-color:#6B360D"/>
			<stop  offset="0.1067" style="stop-color:#854C18"/>
			<stop  offset="0.2528" style="stop-color:#4E2D1A"/>
			<stop  offset="0.3876" style="stop-color:#925D1E"/>
			<stop  offset="0.5674" style="stop-color:#5B2700"/>
			<stop  offset="0.6798" style="stop-color:#5C2902"/>
			<stop  offset="0.7809" style="stop-color:#52301D"/>
			<stop  offset="0.8764" style="stop-color:#824215"/>
			<stop  offset="1" style="stop-color:#4E2D1A"/>
		</linearGradient>
		<path class="st27" d="M298.6,344.4l-9.8-9.5c-21.7,21.7-55.9,22.1-77.6,0.4l-9.9,10.1l-0.1-0.1c12.1,12.1,39,18.9,39,18.9
			c-26.6-2.4-14.3,14.3-14.3,14.3c7.2,7.2,9.7-0.1,9.7-0.1s-4.8,4.8-7.2-2.5c-2.4-7.2,12.1-7.3,14.5,0c2.4,7.2-2.4,7.2-12.1,16.9
			c-9.7,9.6,19.3,57.9,19.3,57.9s29-48.2,19.3-57.9c-9.7-9.6-14.5-9.6-12.1-16.9c2.4-7.2,16.9-7.2,14.5,0c-2.4,7.2-7.2,2.4-7.2,2.4
			s2.4,7.2,9.7,0c0,0,12.1-16.9-14.5-14.5c0,0,26.6-7.2,38.6-19.3"/>
	</g>
	<g class="st3">
		
			<linearGradient id="SVGID_25_" gradientUnits="userSpaceOnUse" x1="48.2034" y1="-170.4534" x2="48.2034" y2="-170.4534" gradientTransform="matrix(-0.7071 0.7071 -0.7071 -0.7071 411.3651 95.4175)">
			<stop  offset="0" style="stop-color:#804114"/>
			<stop  offset="0.2528" style="stop-color:#C27C51"/>
			<stop  offset="0.4494" style="stop-color:#8F4819"/>
			<stop  offset="0.6348" style="stop-color:#652611"/>
			<stop  offset="0.7865" style="stop-color:#A3512C"/>
			<stop  offset="0.9775" style="stop-color:#69350D"/>
		</linearGradient>
		<path class="st28" d="M497.8,250"/>
		
			<linearGradient id="SVGID_26_" gradientUnits="userSpaceOnUse" x1="59.1455" y1="-49.4571" x2="166.7577" y2="-157.0693" gradientTransform="matrix(-0.7071 0.7071 -0.7071 -0.7071 411.3651 95.4175)">
			<stop  offset="0" style="stop-color:#804114"/>
			<stop  offset="0.2528" style="stop-color:#C27C51"/>
			<stop  offset="0.4494" style="stop-color:#8F4819"/>
			<stop  offset="0.6348" style="stop-color:#652611"/>
			<stop  offset="0.7865" style="stop-color:#A3512C"/>
			<stop  offset="0.9775" style="stop-color:#69350D"/>
		</linearGradient>
		<path class="st29" d="M327.7,172.2l-15.2,15.7c34.8,34.7,33.6,87.6-1.2,122.3l14.5,14l-0.2,0.2c19.3-19.3,32.1-60.5,32.1-60.5
			c-3.9,42.4,23.8,23.7,23.8,23.7c11.6-11.6,0.3-15.1,0.3-15.1s7.9,7.9-3.7,11.7c-11.6,3.9-11.5-19.2,0.1-23.1
			c11.6-3.9,11.6,3.9,27.1,19.3c15.4,15.4,92.7-30.9,92.7-30.9s-77.2-46.3-92.7-30.9c-15.4,15.4-15.4,23.2-27,19.3
			c-11.6-3.9-11.6-27,0-23.1c11.6,3.9,3.9,11.6,3.9,11.6s11.6-3.9,0-15.4c0,0-27-19.3-23.2,23.2c0,0-11.6-42.5-30.9-61.7"/>
	</g>
	<g class="st3">
		
			<linearGradient id="SVGID_27_" gradientUnits="userSpaceOnUse" x1="59.0901" y1="-159.4879" x2="59.0901" y2="-159.4879" gradientTransform="matrix(-0.7071 0.7071 -0.7071 -0.7071 411.3651 95.4175)">
			<stop  offset="0" style="stop-color:#6B360D"/>
			<stop  offset="0.1067" style="stop-color:#854C18"/>
			<stop  offset="0.2528" style="stop-color:#4E2D1A"/>
			<stop  offset="0.3876" style="stop-color:#925D1E"/>
			<stop  offset="0.5674" style="stop-color:#5B2700"/>
			<stop  offset="0.6798" style="stop-color:#5C2902"/>
			<stop  offset="0.7809" style="stop-color:#52301D"/>
			<stop  offset="0.8764" style="stop-color:#824215"/>
			<stop  offset="1" style="stop-color:#4E2D1A"/>
		</linearGradient>
		<path class="st30" d="M482.4,250"/>
		
			<linearGradient id="SVGID_28_" gradientUnits="userSpaceOnUse" x1="68.6623" y1="-53.6198" x2="162.8251" y2="-147.7826" gradientTransform="matrix(-0.7071 0.7071 -0.7071 -0.7071 411.3651 95.4175)">
			<stop  offset="0" style="stop-color:#6B360D"/>
			<stop  offset="0.1067" style="stop-color:#854C18"/>
			<stop  offset="0.2528" style="stop-color:#4E2D1A"/>
			<stop  offset="0.3876" style="stop-color:#925D1E"/>
			<stop  offset="0.5674" style="stop-color:#5B2700"/>
			<stop  offset="0.6798" style="stop-color:#5C2902"/>
			<stop  offset="0.7809" style="stop-color:#52301D"/>
			<stop  offset="0.8764" style="stop-color:#824215"/>
			<stop  offset="1" style="stop-color:#4E2D1A"/>
		</linearGradient>
		<path class="st31" d="M333.5,181.9l-13.3,13.7c30.4,30.4,29.4,76.6-1,107l12.7,12.3l-0.2,0.2c16.9-16.9,28.1-53,28.1-53
			c-3.4,37.1,20.8,20.8,20.8,20.8c10.1-10.1,0.3-13.2,0.3-13.2s6.9,6.9-3.3,10.3c-10.1,3.4-10.1-16.8,0.1-20.2
			c10.1-3.4,10.2,3.4,23.7,16.9c13.5,13.5,81.1-27,81.1-27s-67.6-40.5-81.1-27c-13.5,13.5-13.5,20.3-23.7,16.9
			c-10.1-3.4-10.1-23.6,0-20.3c10.1,3.4,3.4,10.1,3.4,10.1s10.1-3.4,0-13.5c0,0-23.7-16.9-20.3,20.3c0,0-10.1-37.1-27-54"/>
	</g>
	<g class="st3">
		
			<linearGradient id="SVGID_29_" gradientUnits="userSpaceOnUse" x1="69.9771" y1="-148.5255" x2="69.9771" y2="-148.5255" gradientTransform="matrix(-0.7071 0.7071 -0.7071 -0.7071 411.3651 95.4175)">
			<stop  offset="0" style="stop-color:#804114"/>
			<stop  offset="0.2528" style="stop-color:#C27C51"/>
			<stop  offset="0.4494" style="stop-color:#8F4819"/>
			<stop  offset="0.6348" style="stop-color:#652611"/>
			<stop  offset="0.7865" style="stop-color:#A3512C"/>
			<stop  offset="0.9775" style="stop-color:#69350D"/>
		</linearGradient>
		<path class="st32" d="M466.9,249.9"/>
		
			<linearGradient id="SVGID_30_" gradientUnits="userSpaceOnUse" x1="78.6171" y1="-57.346" x2="157.6067" y2="-136.3356" gradientTransform="matrix(-0.7071 0.7071 -0.7071 -0.7071 411.3651 95.4175)">
			<stop  offset="0" style="stop-color:#804114"/>
			<stop  offset="0.2528" style="stop-color:#C27C51"/>
			<stop  offset="0.4494" style="stop-color:#8F4819"/>
			<stop  offset="0.6348" style="stop-color:#652611"/>
			<stop  offset="0.7865" style="stop-color:#A3512C"/>
			<stop  offset="0.9775" style="stop-color:#69350D"/>
		</linearGradient>
		<path class="st33" d="M339.3,191.6l-11.4,11.7c26.1,26,24,64.5-2.1,90.5l9.6,9.3l-0.2,0.2c14.5-14.5,25.3-44.2,25.3-44.2
			c-2.9,31.8,18.4,18.4,18.4,18.4c8.7-8.7,0.5-11,0.5-11s6.1,6-2.6,8.9c-8.7,2.9-8.6-14.3,0.1-17.2c8.7-2.9,8.8,3,20.3,14.5
			c11.6,11.6,69.6-23.1,69.6-23.1s-57.9-34.7-69.5-23.1c-11.6,11.6-11.6,17.4-20.3,14.5c-8.7-2.9-8.7-20.2,0-17.4
			c8.7,2.9,2.9,8.7,2.9,8.7s8.7-2.9,0-11.6c0,0-20.3-14.5-17.4,17.4c0,0-8.7-31.8-23.2-46.3"/>
	</g>
	<g class="st3">
		
			<linearGradient id="SVGID_31_" gradientUnits="userSpaceOnUse" x1="80.8615" y1="-137.5673" x2="80.8615" y2="-137.5673" gradientTransform="matrix(-0.7071 0.7071 -0.7071 -0.7071 411.3651 95.4175)">
			<stop  offset="0" style="stop-color:#6B360D"/>
			<stop  offset="0.1067" style="stop-color:#854C18"/>
			<stop  offset="0.2528" style="stop-color:#4E2D1A"/>
			<stop  offset="0.3876" style="stop-color:#925D1E"/>
			<stop  offset="0.5674" style="stop-color:#5B2700"/>
			<stop  offset="0.6798" style="stop-color:#5C2902"/>
			<stop  offset="0.7809" style="stop-color:#52301D"/>
			<stop  offset="0.8764" style="stop-color:#824215"/>
			<stop  offset="1" style="stop-color:#4E2D1A"/>
		</linearGradient>
		<path class="st34" d="M451.5,249.9"/>
		
			<linearGradient id="SVGID_32_" gradientUnits="userSpaceOnUse" x1="87.8439" y1="-61.802" x2="154.537" y2="-128.4951" gradientTransform="matrix(-0.7071 0.7071 -0.7071 -0.7071 411.3651 95.4175)">
			<stop  offset="0" style="stop-color:#6B360D"/>
			<stop  offset="0.1067" style="stop-color:#854C18"/>
			<stop  offset="0.2528" style="stop-color:#4E2D1A"/>
			<stop  offset="0.3876" style="stop-color:#925D1E"/>
			<stop  offset="0.5674" style="stop-color:#5B2700"/>
			<stop  offset="0.6798" style="stop-color:#5C2902"/>
			<stop  offset="0.7809" style="stop-color:#52301D"/>
			<stop  offset="0.8764" style="stop-color:#824215"/>
			<stop  offset="1" style="stop-color:#4E2D1A"/>
		</linearGradient>
		<path class="st35" d="M345.1,201.2l-9.5,9.8c21.7,21.7,20.6,54.3-1.1,76l8.6,8.4l-0.1,0.1c12.1-12.1,20.5-37.4,20.5-37.4
			c-2.4,26.5,15.1,15,15.1,15c7.2-7.2,0.3-9.4,0.3-9.4s5,5-2.3,7.4c-7.2,2.4-7.2-12,0.1-14.4c7.2-2.4,7.3,2.4,16.9,12.1
			c9.7,9.6,57.9-19.3,57.9-19.3s-48.3-28.9-57.9-19.3c-9.7,9.6-9.7,14.5-16.9,12.1c-7.2-2.4-7.2-16.9,0-14.5
			c7.2,2.4,2.4,7.2,2.4,7.2s7.2-2.4,0-9.6c0,0-16.9-12.1-14.5,14.5c0,0-7.2-26.5-19.3-38.6"/>
	</g>
	<g class="st3">
		
			<linearGradient id="SVGID_33_" gradientUnits="userSpaceOnUse" x1="-83.8337" y1="-93.9031" x2="-83.8337" y2="-93.9031" gradientTransform="matrix(0 1 -1 0 331.9463 158.699)">
			<stop  offset="0" style="stop-color:#804114"/>
			<stop  offset="0.2528" style="stop-color:#C27C51"/>
			<stop  offset="0.4494" style="stop-color:#8F4819"/>
			<stop  offset="0.6348" style="stop-color:#652611"/>
			<stop  offset="0.7865" style="stop-color:#A3512C"/>
			<stop  offset="0.9775" style="stop-color:#69350D"/>
		</linearGradient>
		<path class="st36" d="M425.8,74.9"/>
		
			<linearGradient id="SVGID_34_" gradientUnits="userSpaceOnUse" x1="-73.0096" y1="27.1204" x2="34.6756" y2="-80.5649" gradientTransform="matrix(0 1 -1 0 331.9463 158.699)">
			<stop  offset="0" style="stop-color:#804114"/>
			<stop  offset="0.2528" style="stop-color:#C27C51"/>
			<stop  offset="0.4494" style="stop-color:#8F4819"/>
			<stop  offset="0.6348" style="stop-color:#652611"/>
			<stop  offset="0.7865" style="stop-color:#A3512C"/>
			<stop  offset="0.9775" style="stop-color:#69350D"/>
		</linearGradient>
		<path class="st37" d="M250.5,140l0.3,21.8c49.2,0,85.7,38.2,85.7,87.3l20.2-0.3v0.3c0-27.3-20.2-65.5-20.2-65.5
			c27.3,32.7,33.6,0,33.6,0c0-16.4-10.5-10.9-10.5-10.9s11.1,0,5.7,10.9c-5.5,10.9-21.7-5.5-16.3-16.4c5.5-10.9,11-5.5,32.8-5.5
			c21.8,0,43.7-87.3,43.7-87.3s-87.4,21.8-87.4,43.7c0,21.8,5.5,27.3-5.5,32.7c-10.9,5.5-27.3-10.9-16.4-16.4
			c10.9-5.5,10.9,5.5,10.9,5.5s5.5-10.9-10.9-10.9c0,0-32.8,5.5,0,32.7c0,0-38.2-21.8-65.5-21.8"/>
	</g>
	<g class="st3">
		
			<linearGradient id="SVGID_35_" gradientUnits="userSpaceOnUse" x1="-72.9601" y1="-82.9439" x2="-72.9601" y2="-82.9439" gradientTransform="matrix(0 1 -1 0 331.9463 158.699)">
			<stop  offset="0" style="stop-color:#6B360D"/>
			<stop  offset="0.1067" style="stop-color:#854C18"/>
			<stop  offset="0.2528" style="stop-color:#4E2D1A"/>
			<stop  offset="0.3876" style="stop-color:#925D1E"/>
			<stop  offset="0.5674" style="stop-color:#5B2700"/>
			<stop  offset="0.6798" style="stop-color:#5C2902"/>
			<stop  offset="0.7809" style="stop-color:#52301D"/>
			<stop  offset="0.8764" style="stop-color:#824215"/>
			<stop  offset="1" style="stop-color:#4E2D1A"/>
		</linearGradient>
		<path class="st38" d="M414.9,85.7"/>
		
			<linearGradient id="SVGID_36_" gradientUnits="userSpaceOnUse" x1="-63.5275" y1="22.9122" x2="30.8634" y2="-71.4787" gradientTransform="matrix(0 1 -1 0 331.9463 158.699)">
			<stop  offset="0" style="stop-color:#6B360D"/>
			<stop  offset="0.1067" style="stop-color:#854C18"/>
			<stop  offset="0.2528" style="stop-color:#4E2D1A"/>
			<stop  offset="0.3876" style="stop-color:#925D1E"/>
			<stop  offset="0.5674" style="stop-color:#5B2700"/>
			<stop  offset="0.6798" style="stop-color:#5C2902"/>
			<stop  offset="0.7809" style="stop-color:#52301D"/>
			<stop  offset="0.8764" style="stop-color:#824215"/>
			<stop  offset="1" style="stop-color:#4E2D1A"/>
		</linearGradient>
		<path class="st39" d="M261.4,142.8l0.3,19.1c43,0,75.2,33.4,75.2,76.4l17.8-0.3v0.3c0-23.9-17.8-57.3-17.8-57.3
			c23.9,28.6,29.3,0,29.3,0c0-14.3-9.2-9.5-9.2-9.5s9.7,0,4.9,9.5c-4.8,9.6-19-4.8-14.3-14.3c4.8-9.6,9.6-4.8,28.7-4.8
			c19.1,0,38.3-76.4,38.3-76.4s-76.5,19.1-76.5,38.2c0,19.1,4.8,23.9-4.8,28.6c-9.6,4.8-23.9-9.5-14.3-14.3c9.6-4.8,9.6,4.8,9.6,4.8
			s4.8-9.6-9.6-9.6c0,0-28.7,4.8,0,28.6c0,0-33.5-19.1-57.3-19.1"/>
	</g>
	<g class="st3">
		
			<linearGradient id="SVGID_37_" gradientUnits="userSpaceOnUse" x1="-62.0786" y1="-71.9807" x2="-62.0786" y2="-71.9807" gradientTransform="matrix(0 1 -1 0 331.9463 158.699)">
			<stop  offset="0" style="stop-color:#804114"/>
			<stop  offset="0.2528" style="stop-color:#C27C51"/>
			<stop  offset="0.4494" style="stop-color:#8F4819"/>
			<stop  offset="0.6348" style="stop-color:#652611"/>
			<stop  offset="0.7865" style="stop-color:#A3512C"/>
			<stop  offset="0.9775" style="stop-color:#69350D"/>
		</linearGradient>
		<path class="st40" d="M403.9,96.6"/>
		
			<linearGradient id="SVGID_38_" gradientUnits="userSpaceOnUse" x1="-53.9222" y1="18.8272" x2="26.6781" y2="-61.7732" gradientTransform="matrix(0 1 -1 0 331.9463 158.699)">
			<stop  offset="0" style="stop-color:#804114"/>
			<stop  offset="0.2528" style="stop-color:#C27C51"/>
			<stop  offset="0.4494" style="stop-color:#8F4819"/>
			<stop  offset="0.6348" style="stop-color:#652611"/>
			<stop  offset="0.7865" style="stop-color:#A3512C"/>
			<stop  offset="0.9775" style="stop-color:#69350D"/>
		</linearGradient>
		<path class="st41" d="M272.4,145.5l0.2,16.4c36.9,0,64.1,28.7,64.1,65.5l15-0.2v0.2c0-20.5-15-49.1-15-49.1
			c20.5,24.6,25.3,0,25.3,0c0-12.3-7.8-8.2-7.8-8.2s8.4,0,4.3,8.2c-4.1,8.2-16.3-4.1-12.2-12.3c4.1-8.2,8.2-4.1,24.6-4.1
			c16.4,0,32.8-65.5,32.8-65.5s-65.5,16.4-65.5,32.7c0,16.4,4.1,20.5-4.1,24.6c-8.2,4.1-20.5-8.2-12.3-12.3c8.2-4.1,8.2,4.1,8.2,4.1
			s4.1-8.2-8.2-8.2c0,0-24.6,4.1,0,24.6c0,0-28.7-16.4-49.2-16.4"/>
	</g>
	<g class="st3">
		
			<linearGradient id="SVGID_39_" gradientUnits="userSpaceOnUse" x1="-51.2068" y1="-61.0186" x2="-51.2068" y2="-61.0186" gradientTransform="matrix(0 1 -1 0 331.9463 158.699)">
			<stop  offset="0" style="stop-color:#6B360D"/>
			<stop  offset="0.1067" style="stop-color:#854C18"/>
			<stop  offset="0.2528" style="stop-color:#4E2D1A"/>
			<stop  offset="0.3876" style="stop-color:#925D1E"/>
			<stop  offset="0.5674" style="stop-color:#5B2700"/>
			<stop  offset="0.6798" style="stop-color:#5C2902"/>
			<stop  offset="0.7809" style="stop-color:#52301D"/>
			<stop  offset="0.8764" style="stop-color:#824215"/>
			<stop  offset="1" style="stop-color:#4E2D1A"/>
		</linearGradient>
		<path class="st42" d="M393,107.5"/>
		
			<linearGradient id="SVGID_40_" gradientUnits="userSpaceOnUse" x1="-44.1883" y1="14.8709" x2="22.1242" y2="-51.4416" gradientTransform="matrix(0 1 -1 0 331.9463 158.699)">
			<stop  offset="0" style="stop-color:#6B360D"/>
			<stop  offset="0.1067" style="stop-color:#854C18"/>
			<stop  offset="0.2528" style="stop-color:#4E2D1A"/>
			<stop  offset="0.3876" style="stop-color:#925D1E"/>
			<stop  offset="0.5674" style="stop-color:#5B2700"/>
			<stop  offset="0.6798" style="stop-color:#5C2902"/>
			<stop  offset="0.7809" style="stop-color:#52301D"/>
			<stop  offset="0.8764" style="stop-color:#824215"/>
			<stop  offset="1" style="stop-color:#4E2D1A"/>
		</linearGradient>
		<path class="st43" d="M283.4,148.2l0.2,13.6c30.7,0,52.6,23.9,52.6,54.6l11.6-0.2v0.2c0-17.1-11.6-40.9-11.6-40.9
			c17.1,20.5,21.5,0,21.5,0c0-10.2-6.3-6.8-6.3-6.8s7.1,0,3.7,6.8c-3.4,6.8-13.5-3.4-10.1-10.2c3.4-6.8,6.9-3.4,20.5-3.4
			c13.7,0,27.3-54.6,27.3-54.6s-54.6,13.6-54.6,27.3c0,13.6,3.4,17.1-3.4,20.5c-6.8,3.4-17.1-6.8-10.2-10.2c6.8-3.4,6.8,3.4,6.8,3.4
			s3.4-6.8-6.8-6.8c0,0-20.5,3.4,0,20.5c0,0-23.9-13.6-41-13.6"/>
	</g>
	<g class="st3">
		
			<linearGradient id="SVGID_41_" gradientUnits="userSpaceOnUse" x1="-3.2501" y1="228.5612" x2="-3.2501" y2="228.5612" gradientTransform="matrix(1 0 0 1 78.9463 -154.3013)">
			<stop  offset="0" style="stop-color:#804114"/>
			<stop  offset="0.2528" style="stop-color:#C27C51"/>
			<stop  offset="0.4494" style="stop-color:#8F4819"/>
			<stop  offset="0.6348" style="stop-color:#652611"/>
			<stop  offset="0.7865" style="stop-color:#A3512C"/>
			<stop  offset="0.9775" style="stop-color:#69350D"/>
		</linearGradient>
		<path class="st44" d="M75.7,74.3"/>
		
			<linearGradient id="SVGID_42_" gradientUnits="userSpaceOnUse" x1="7.8243" y1="349.6294" x2="114.9955" y2="242.4582" gradientTransform="matrix(1 0 0 1 78.9463 -154.3013)">
			<stop  offset="0" style="stop-color:#804114"/>
			<stop  offset="0.2528" style="stop-color:#C27C51"/>
			<stop  offset="0.4494" style="stop-color:#8F4819"/>
			<stop  offset="0.6348" style="stop-color:#652611"/>
			<stop  offset="0.7865" style="stop-color:#A3512C"/>
			<stop  offset="0.9775" style="stop-color:#69350D"/>
		</linearGradient>
		<path class="st45" d="M140.9,249.5l21.8-0.3c0-49.1,38.2-85.1,87.4-85.1l-0.3-19.7h0.3c-27.3,0-65.5,19.7-65.5,19.7
			c32.8-27.3,0-33.8,0-33.8c-16.4,0-10.9,10.4-10.9,10.4s0-11.2,10.9-5.7c10.9,5.5-5.5,21.7-16.4,16.2c-10.9-5.5-5.5-11-5.5-32.8
			c0-21.8-87.4-43.7-87.4-43.7s21.8,87.3,43.7,87.3c21.8,0,27.3-5.5,32.8,5.4c5.5,10.9-10.9,27.3-16.4,16.4
			c-5.5-10.9,5.5-10.9,5.5-10.9s-10.9-5.5-10.9,10.9c0,0,5.5,32.7,32.8,0c0,0-21.8,38.2-21.8,65.5"/>
	</g>
	<g class="st3">
		
			<linearGradient id="SVGID_43_" gradientUnits="userSpaceOnUse" x1="7.6355" y1="239.5134" x2="7.6355" y2="239.5134" gradientTransform="matrix(1 0 0 1 78.9463 -154.3013)">
			<stop  offset="0" style="stop-color:#6B360D"/>
			<stop  offset="0.1067" style="stop-color:#854C18"/>
			<stop  offset="0.2528" style="stop-color:#4E2D1A"/>
			<stop  offset="0.3876" style="stop-color:#925D1E"/>
			<stop  offset="0.5674" style="stop-color:#5B2700"/>
			<stop  offset="0.6798" style="stop-color:#5C2902"/>
			<stop  offset="0.7809" style="stop-color:#52301D"/>
			<stop  offset="0.8764" style="stop-color:#824215"/>
			<stop  offset="1" style="stop-color:#4E2D1A"/>
		</linearGradient>
		<path class="st46" d="M86.6,85.2"/>
		
			<linearGradient id="SVGID_44_" gradientUnits="userSpaceOnUse" x1="17.1758" y1="345.2969" x2="111.5489" y2="250.9238" gradientTransform="matrix(1 0 0 1 78.9463 -154.3013)">
			<stop  offset="0" style="stop-color:#6B360D"/>
			<stop  offset="0.1067" style="stop-color:#854C18"/>
			<stop  offset="0.2528" style="stop-color:#4E2D1A"/>
			<stop  offset="0.3876" style="stop-color:#925D1E"/>
			<stop  offset="0.5674" style="stop-color:#5B2700"/>
			<stop  offset="0.6798" style="stop-color:#5C2902"/>
			<stop  offset="0.7809" style="stop-color:#52301D"/>
			<stop  offset="0.8764" style="stop-color:#824215"/>
			<stop  offset="1" style="stop-color:#4E2D1A"/>
		</linearGradient>
		<path class="st47" d="M143.7,238.5l19.1-0.3c0-43,33.5-75.1,76.5-75.1l-0.3-17.8h0.3c-23.9,0-57.3,17.8-57.3,17.8
			c28.7-23.9,0-29.3,0-29.3c-14.3,0-9.6,9.2-9.6,9.2s0-9.7,9.6-4.9c9.6,4.8-4.8,19-14.3,14.2c-9.6-4.8-4.8-9.6-4.8-28.7
			c0-19.1-76.5-38.2-76.5-38.2s19.1,76.4,38.2,76.4c19.1,0,23.9-4.8,28.7,4.8c4.8,9.6-9.6,23.9-14.3,14.3c-4.8-9.5,4.8-9.6,4.8-9.6
			s-9.6-4.8-9.6,9.5c0,0,4.8,28.6,28.7,0c0,0-19.1,33.4-19.1,57.3"/>
	</g>
	<g class="st3">
		
			<linearGradient id="SVGID_45_" gradientUnits="userSpaceOnUse" x1="18.5221" y1="250.4636" x2="18.5221" y2="250.4636" gradientTransform="matrix(1 0 0 1 78.9463 -154.3013)">
			<stop  offset="0" style="stop-color:#804114"/>
			<stop  offset="0.2528" style="stop-color:#C27C51"/>
			<stop  offset="0.4494" style="stop-color:#8F4819"/>
			<stop  offset="0.6348" style="stop-color:#652611"/>
			<stop  offset="0.7865" style="stop-color:#A3512C"/>
			<stop  offset="0.9775" style="stop-color:#69350D"/>
		</linearGradient>
		<path class="st48" d="M97.5,96.2"/>
		
			<linearGradient id="SVGID_46_" gradientUnits="userSpaceOnUse" x1="27.0277" y1="341.4669" x2="106.618" y2="261.8765" gradientTransform="matrix(1 0 0 1 78.9463 -154.3013)">
			<stop  offset="0" style="stop-color:#804114"/>
			<stop  offset="0.2528" style="stop-color:#C27C51"/>
			<stop  offset="0.4494" style="stop-color:#8F4819"/>
			<stop  offset="0.6348" style="stop-color:#652611"/>
			<stop  offset="0.7865" style="stop-color:#A3512C"/>
			<stop  offset="0.9775" style="stop-color:#69350D"/>
		</linearGradient>
		<path class="st49" d="M146.4,227.6l16.4-0.2c0-36.8,28.7-63.1,65.5-63.1l-0.2-14h0.2c-20.5,0-49.2,14-49.2,14
			c24.6-20.5,0-25.8,0-25.8c-12.3,0-8.2,7.6-8.2,7.6s0-8.5,8.2-4.4c8.2,4.1-4.1,16.2-12.3,12.1c-8.2-4.1-4.1-8.3-4.1-24.6
			c0-16.4-65.5-32.8-65.5-32.8s16.4,65.5,32.8,65.5c16.4,0,20.5-4.1,24.6,4.1c4.1,8.2-8.2,20.5-12.3,12.3c-4.1-8.2,4.1-8.2,4.1-8.2
			s-8.2-4.1-8.2,8.2c0,0,4.1,24.6,24.6,0c0,0-16.4,28.6-16.4,49.1"/>
	</g>
	<g class="st3">
		
			<linearGradient id="SVGID_47_" gradientUnits="userSpaceOnUse" x1="29.4096" y1="261.4142" x2="29.4096" y2="261.4142" gradientTransform="matrix(1 0 0 1 78.9463 -154.3013)">
			<stop  offset="0" style="stop-color:#6B360D"/>
			<stop  offset="0.1067" style="stop-color:#854C18"/>
			<stop  offset="0.2528" style="stop-color:#4E2D1A"/>
			<stop  offset="0.3876" style="stop-color:#925D1E"/>
			<stop  offset="0.5674" style="stop-color:#5B2700"/>
			<stop  offset="0.6798" style="stop-color:#5C2902"/>
			<stop  offset="0.7809" style="stop-color:#52301D"/>
			<stop  offset="0.8764" style="stop-color:#824215"/>
			<stop  offset="1" style="stop-color:#4E2D1A"/>
		</linearGradient>
		<path class="st50" d="M108.4,107.1"/>
		
			<linearGradient id="SVGID_48_" gradientUnits="userSpaceOnUse" x1="35.9994" y1="336.7575" x2="104.2719" y2="268.485" gradientTransform="matrix(1 0 0 1 78.9463 -154.3013)">
			<stop  offset="0" style="stop-color:#6B360D"/>
			<stop  offset="0.1067" style="stop-color:#854C18"/>
			<stop  offset="0.2528" style="stop-color:#4E2D1A"/>
			<stop  offset="0.3876" style="stop-color:#925D1E"/>
			<stop  offset="0.5674" style="stop-color:#5B2700"/>
			<stop  offset="0.6798" style="stop-color:#5C2902"/>
			<stop  offset="0.7809" style="stop-color:#52301D"/>
			<stop  offset="0.8764" style="stop-color:#824215"/>
			<stop  offset="1" style="stop-color:#4E2D1A"/>
		</linearGradient>
		<path class="st51" d="M149.1,216.6l13.7-0.2c0-30.7,23.9-54.5,54.6-54.5l-0.2-13.6l0.2,0c-17.1,0-41,13.6-41,13.6
			c20.5-17.1,0-20.5,0-20.5c-10.2,0-6.8,6.8-6.8,6.8s0-6.8,6.8-3.4c6.8,3.4-3.4,13.6-10.2,10.2c-6.8-3.4-3.4-6.8-3.4-20.5
			c0-13.6-54.6-27.3-54.6-27.3s13.7,54.6,27.3,54.6c13.7,0,17.1-3.4,20.5,3.4c3.4,6.8-6.8,17.1-10.2,10.2c-3.4-6.8,3.4-6.8,3.4-6.8
			s-6.8-3.4-6.8,6.8c0,0,3.4,20.5,20.5,0c0,0-13.7,23.9-13.7,40.9"/>
	</g>
	<g class="st3">
		
			<linearGradient id="SVGID_49_" gradientUnits="userSpaceOnUse" x1="-325.422" y1="19.3428" x2="-325.422" y2="19.3428" gradientTransform="matrix(0 -1 1 0 55.4453 98.6992)">
			<stop  offset="0" style="stop-color:#804114"/>
			<stop  offset="0.2528" style="stop-color:#C27C51"/>
			<stop  offset="0.4494" style="stop-color:#8F4819"/>
			<stop  offset="0.6348" style="stop-color:#652611"/>
			<stop  offset="0.7865" style="stop-color:#A3512C"/>
			<stop  offset="0.9775" style="stop-color:#69350D"/>
		</linearGradient>
		<path class="st52" d="M74.8,424.1"/>
		
			<linearGradient id="SVGID_50_" gradientUnits="userSpaceOnUse" x1="-314.9228" y1="140.0368" x2="-205.95" y2="31.064" gradientTransform="matrix(0 -1 1 0 55.4453 98.6992)">
			<stop  offset="0" style="stop-color:#804114"/>
			<stop  offset="0.2528" style="stop-color:#C27C51"/>
			<stop  offset="0.4494" style="stop-color:#8F4819"/>
			<stop  offset="0.6348" style="stop-color:#652611"/>
			<stop  offset="0.7865" style="stop-color:#A3512C"/>
			<stop  offset="0.9775" style="stop-color:#69350D"/>
		</linearGradient>
		<path class="st53" d="M250.2,358.9l-0.3-21.8c-49.2,0-87-38.2-87-87.3l-21.5,0.3l0-0.3c0,27.3,21.5,65.5,21.5,65.5
			c-27.3-32.7-33,0-33,0c0,16.4,10.8,10.9,10.8,10.9s-11,0-5.5-10.9c5.5-10.9,21.8,5.5,16.4,16.4c-5.5,10.9-10.9,5.5-32.8,5.5
			c-21.8,0-43.7,87.3-43.7,87.3s87.4-21.8,87.4-43.7c0-21.8-5.5-27.3,5.5-32.7c10.9-5.5,27.3,10.9,16.4,16.4
			c-10.9,5.5-10.9-5.5-10.9-5.5s-5.5,10.9,10.9,10.9c0,0,32.8-5.5,0-32.7c0,0,38.2,21.8,65.5,21.8"/>
	</g>
	<g class="st3">
		
			<linearGradient id="SVGID_51_" gradientUnits="userSpaceOnUse" x1="-314.5453" y1="30.303" x2="-314.5453" y2="30.303" gradientTransform="matrix(0 -1 1 0 55.4453 98.6992)">
			<stop  offset="0" style="stop-color:#6B360D"/>
			<stop  offset="0.1067" style="stop-color:#854C18"/>
			<stop  offset="0.2528" style="stop-color:#4E2D1A"/>
			<stop  offset="0.3876" style="stop-color:#925D1E"/>
			<stop  offset="0.5674" style="stop-color:#5B2700"/>
			<stop  offset="0.6798" style="stop-color:#5C2902"/>
			<stop  offset="0.7809" style="stop-color:#52301D"/>
			<stop  offset="0.8764" style="stop-color:#824215"/>
			<stop  offset="1" style="stop-color:#4E2D1A"/>
		</linearGradient>
		<path class="st54" d="M85.7,413.2"/>
		
			<linearGradient id="SVGID_52_" gradientUnits="userSpaceOnUse" x1="-305.4312" y1="135.8391" x2="-208.2444" y2="38.6522" gradientTransform="matrix(0 -1 1 0 55.4453 98.6992)">
			<stop  offset="0" style="stop-color:#6B360D"/>
			<stop  offset="0.1067" style="stop-color:#854C18"/>
			<stop  offset="0.2528" style="stop-color:#4E2D1A"/>
			<stop  offset="0.3876" style="stop-color:#925D1E"/>
			<stop  offset="0.5674" style="stop-color:#5B2700"/>
			<stop  offset="0.6798" style="stop-color:#5C2902"/>
			<stop  offset="0.7809" style="stop-color:#52301D"/>
			<stop  offset="0.8764" style="stop-color:#824215"/>
			<stop  offset="1" style="stop-color:#4E2D1A"/>
		</linearGradient>
		<path class="st55" d="M239.2,356.2l-0.3-19.1c-43,0-78-33.4-78-76.4l-20.6,0.3v-0.3c0,23.9,20.6,57.3,20.6,57.3
			c-23.9-28.7-27.9,0-27.9,0c0,14.3,9.9,9.5,9.9,9.5s-9.4,0-4.6-9.6c4.8-9.5,19.2,4.8,14.4,14.3c-4.8,9.5-9.5,4.8-28.6,4.8
			c-19.1,0-38.2,76.4-38.2,76.4s76.5-19.1,76.5-38.2c0-19.1-4.8-23.9,4.8-28.7c9.6-4.8,23.9,9.5,14.3,14.3c-9.6,4.8-9.6-4.8-9.6-4.8
			s-4.8,9.6,9.6,9.6c0,0,28.7-4.8,0-28.7c0,0,33.5,19.1,57.3,19.1"/>
	</g>
	<g class="st3">
		
			<linearGradient id="SVGID_53_" gradientUnits="userSpaceOnUse" x1="-303.6697" y1="41.2652" x2="-303.6697" y2="41.2652" gradientTransform="matrix(0 -1 1 0 55.4453 98.6992)">
			<stop  offset="0" style="stop-color:#804114"/>
			<stop  offset="0.2528" style="stop-color:#C27C51"/>
			<stop  offset="0.4494" style="stop-color:#8F4819"/>
			<stop  offset="0.6348" style="stop-color:#652611"/>
			<stop  offset="0.7865" style="stop-color:#A3512C"/>
			<stop  offset="0.9775" style="stop-color:#69350D"/>
		</linearGradient>
		<path class="st56" d="M96.7,402.4"/>
		
			<linearGradient id="SVGID_54_" gradientUnits="userSpaceOnUse" x1="-295.8612" y1="131.7209" x2="-211.4709" y2="47.3306" gradientTransform="matrix(0 -1 1 0 55.4453 98.6992)">
			<stop  offset="0" style="stop-color:#804114"/>
			<stop  offset="0.2528" style="stop-color:#C27C51"/>
			<stop  offset="0.4494" style="stop-color:#8F4819"/>
			<stop  offset="0.6348" style="stop-color:#652611"/>
			<stop  offset="0.7865" style="stop-color:#A3512C"/>
			<stop  offset="0.9775" style="stop-color:#69350D"/>
		</linearGradient>
		<path class="st57" d="M228.2,353.5l-0.2-16.4c-36.9,0-67.9-28.7-67.9-65.5l-18.8,0.2v-0.2c0,20.5,18.8,49.1,18.8,49.1
			c-20.5-24.6-23.4,0-23.4,0c0,12.3,8.8,8.2,8.8,8.2s-7.9,0-3.8-8.2c4.1-8.2,16.5,4.1,12.4,12.3c-4.1,8.2-8.1,4.1-24.5,4.1
			c-16.4,0-32.7,65.5-32.7,65.5s65.6-16.4,65.6-32.7c0-16.4-4.1-20.5,4.1-24.6c8.2-4.1,20.5,8.2,12.3,12.3c-8.2,4.1-8.2-4.1-8.2-4.1
			s-4.1,8.2,8.2,8.2c0,0,24.6-4.1,0-24.6c0,0,28.7,16.4,49.2,16.4"/>
	</g>
	<g class="st3">
		
			<linearGradient id="SVGID_55_" gradientUnits="userSpaceOnUse" x1="-292.7941" y1="52.2224" x2="-292.7941" y2="52.2224" gradientTransform="matrix(0 -1 1 0 55.4453 98.6992)">
			<stop  offset="0" style="stop-color:#6B360D"/>
			<stop  offset="0.1067" style="stop-color:#854C18"/>
			<stop  offset="0.2528" style="stop-color:#4E2D1A"/>
			<stop  offset="0.3876" style="stop-color:#925D1E"/>
			<stop  offset="0.5674" style="stop-color:#5B2700"/>
			<stop  offset="0.6798" style="stop-color:#5C2902"/>
			<stop  offset="0.7809" style="stop-color:#52301D"/>
			<stop  offset="0.8764" style="stop-color:#824215"/>
			<stop  offset="1" style="stop-color:#4E2D1A"/>
		</linearGradient>
		<path class="st58" d="M107.7,391.5"/>
		
			<linearGradient id="SVGID_56_" gradientUnits="userSpaceOnUse" x1="-286.277" y1="127.6147" x2="-217.8567" y2="59.1944" gradientTransform="matrix(0 -1 1 0 55.4453 98.6992)">
			<stop  offset="0" style="stop-color:#6B360D"/>
			<stop  offset="0.1067" style="stop-color:#854C18"/>
			<stop  offset="0.2528" style="stop-color:#4E2D1A"/>
			<stop  offset="0.3876" style="stop-color:#925D1E"/>
			<stop  offset="0.5674" style="stop-color:#5B2700"/>
			<stop  offset="0.6798" style="stop-color:#5C2902"/>
			<stop  offset="0.7809" style="stop-color:#52301D"/>
			<stop  offset="0.8764" style="stop-color:#824215"/>
			<stop  offset="1" style="stop-color:#4E2D1A"/>
		</linearGradient>
		<path class="st59" d="M217.3,350.8l-0.2-13.6c-30.7,0-54.7-23.9-54.7-54.6l-13.7,0.2l0-0.2c0,17.1,13.7,40.9,13.7,40.9
			c-17.1-20.5-20.4,0-20.4,0c0,10.2,6.8,6.8,6.8,6.8s-6.8,0-3.4-6.8c3.4-6.8,13.7,3.4,10.2,10.2c-3.4,6.8-6.8,3.4-20.5,3.4
			c-13.7,0-27.3,54.6-27.3,54.6s54.6-13.6,54.6-27.3c0-13.6-3.4-17.1,3.4-20.5c6.8-3.4,17.1,6.8,10.2,10.2c-6.8,3.4-6.8-3.4-6.8-3.4
			s-3.4,6.8,6.8,6.8c0,0,20.5-3.4,0-20.5c0,0,23.9,13.6,41,13.6"/>
	</g>
	<g class="st3">
		
			<linearGradient id="SVGID_57_" gradientUnits="userSpaceOnUse" x1="-116.496" y1="-13.0311" x2="-116.496" y2="-13.0311" gradientTransform="matrix(-1 0 0 -1 308.4453 411.6973)">
			<stop  offset="0" style="stop-color:#804114"/>
			<stop  offset="0.2528" style="stop-color:#C27C51"/>
			<stop  offset="0.4494" style="stop-color:#8F4819"/>
			<stop  offset="0.6348" style="stop-color:#652611"/>
			<stop  offset="0.7865" style="stop-color:#A3512C"/>
			<stop  offset="0.9775" style="stop-color:#69350D"/>
		</linearGradient>
		<path class="st60" d="M424.9,424.7"/>
		
			<linearGradient id="SVGID_58_" gradientUnits="userSpaceOnUse" x1="-105.9946" y1="107.469" x2="4.6543" y2="-3.1799" gradientTransform="matrix(-1 0 0 -1 308.4453 411.6973)">
			<stop  offset="0" style="stop-color:#804114"/>
			<stop  offset="0.2528" style="stop-color:#C27C51"/>
			<stop  offset="0.4494" style="stop-color:#8F4819"/>
			<stop  offset="0.6348" style="stop-color:#652611"/>
			<stop  offset="0.7865" style="stop-color:#A3512C"/>
			<stop  offset="0.9775" style="stop-color:#69350D"/>
		</linearGradient>
		<path class="st61" d="M359.7,249.5l-21.8,0.3c0,49.1-38.2,88.6-87.4,88.6l0.3,23.1h-0.3c27.3,0,65.5-23.1,65.5-23.1
			c-32.8,27.3,0,32.1,0,32.1c16.4,0,10.9-11.2,10.9-11.2s0,10.7-10.9,5.3c-10.9-5.5,5.5-21.9,16.4-16.4c10.9,5.5,5.5,10.9,5.5,32.7
			c0,21.8,87.4,43.6,87.4,43.6s-21.8-87.3-43.7-87.3c-21.9,0-27.3,5.5-32.8-5.5c-5.5-10.9,10.9-27.3,16.4-16.4
			c5.5,10.9-5.5,10.9-5.5,10.9s10.9,5.5,10.9-10.9c0,0-5.5-32.7-32.8,0c0,0,21.8-38.2,21.8-65.5"/>
	</g>
	<g class="st3">
		
			<linearGradient id="SVGID_59_" gradientUnits="userSpaceOnUse" x1="-105.6055" y1="-2.074" x2="-105.6055" y2="-2.074" gradientTransform="matrix(-1 0 0 -1 308.4453 411.6973)">
			<stop  offset="0" style="stop-color:#6B360D"/>
			<stop  offset="0.1067" style="stop-color:#854C18"/>
			<stop  offset="0.2528" style="stop-color:#4E2D1A"/>
			<stop  offset="0.3876" style="stop-color:#925D1E"/>
			<stop  offset="0.5674" style="stop-color:#5B2700"/>
			<stop  offset="0.6798" style="stop-color:#5C2902"/>
			<stop  offset="0.7809" style="stop-color:#52301D"/>
			<stop  offset="0.8764" style="stop-color:#824215"/>
			<stop  offset="1" style="stop-color:#4E2D1A"/>
		</linearGradient>
		<path class="st62" d="M414.1,413.8"/>
		
			<linearGradient id="SVGID_60_" gradientUnits="userSpaceOnUse" x1="-96.4242" y1="103.3583" x2="0.9338" y2="6.0004" gradientTransform="matrix(-1 0 0 -1 308.4453 411.6973)">
			<stop  offset="0" style="stop-color:#6B360D"/>
			<stop  offset="0.1067" style="stop-color:#854C18"/>
			<stop  offset="0.2528" style="stop-color:#4E2D1A"/>
			<stop  offset="0.3876" style="stop-color:#925D1E"/>
			<stop  offset="0.5674" style="stop-color:#5B2700"/>
			<stop  offset="0.6798" style="stop-color:#5C2902"/>
			<stop  offset="0.7809" style="stop-color:#52301D"/>
			<stop  offset="0.8764" style="stop-color:#824215"/>
			<stop  offset="1" style="stop-color:#4E2D1A"/>
		</linearGradient>
		<path class="st63" d="M357,260.4l-19.1,0.3c0,43-33.5,78.1-76.5,78.1l0.3,20.8h-0.3c23.9,0,57.3-20.8,57.3-20.8
			c-28.7,23.9,0,27.8,0,27.8c14.3,0,9.6-10,9.6-10s0,9.3-9.6,4.6c-9.6-4.8,4.8-19.2,14.3-14.4c9.6,4.8,4.8,9.5,4.8,28.6
			c0,19.1,76.5,38.2,76.5,38.2s-19.1-76.4-38.2-76.4c-19.1,0-23.9,4.8-28.7-4.8c-4.8-9.5,9.6-23.9,14.3-14.3
			c4.8,9.5-4.8,9.5-4.8,9.5s9.6,4.8,9.6-9.6c0,0-4.8-28.6-28.7,0c0,0,19.1-33.4,19.1-57.3"/>
	</g>
	<g class="st3">
		
			<linearGradient id="SVGID_61_" gradientUnits="userSpaceOnUse" x1="-94.7209" y1="8.8742" x2="-94.7209" y2="8.8742" gradientTransform="matrix(-1 0 0 -1 308.4453 411.6973)">
			<stop  offset="0" style="stop-color:#804114"/>
			<stop  offset="0.2528" style="stop-color:#C27C51"/>
			<stop  offset="0.4494" style="stop-color:#8F4819"/>
			<stop  offset="0.6348" style="stop-color:#652611"/>
			<stop  offset="0.7865" style="stop-color:#A3512C"/>
			<stop  offset="0.9775" style="stop-color:#69350D"/>
		</linearGradient>
		<path class="st64" d="M403.2,402.8"/>
		
			<linearGradient id="SVGID_62_" gradientUnits="userSpaceOnUse" x1="-86.8467" y1="99.2504" x2="-4.2734" y2="16.6771" gradientTransform="matrix(-1 0 0 -1 308.4453 411.6973)">
			<stop  offset="0" style="stop-color:#804114"/>
			<stop  offset="0.2528" style="stop-color:#C27C51"/>
			<stop  offset="0.4494" style="stop-color:#8F4819"/>
			<stop  offset="0.6348" style="stop-color:#652611"/>
			<stop  offset="0.7865" style="stop-color:#A3512C"/>
			<stop  offset="0.9775" style="stop-color:#69350D"/>
		</linearGradient>
		<path class="st65" d="M354.2,271.4l-16.4,0.2c0,36.8-28.7,66.1-65.5,66.1l0.2,16.9h-0.2c20.5,0,49.2-16.9,49.2-16.9
			c-24.6,20.5,0,24.3,0,24.3c12.3,0,8.2-8.3,8.2-8.3s0,8.1-8.2,4c-8.2-4.1,4.1-16.4,12.3-12.3c8.2,4.1,4.1,8.2,4.1,24.5
			c0,16.4,65.5,32.7,65.5,32.7s-16.4-65.5-32.8-65.5c-16.4,0-20.5,4.1-24.6-4.1c-4.1-8.2,8.2-20.5,12.3-12.3
			c4.1,8.2-4.1,8.2-4.1,8.2s8.2,4.1,8.2-8.2c0,0-4.1-24.6-24.6,0c0,0,16.4-28.7,16.4-49.1"/>
	</g>
	<g class="st3">
		
			<linearGradient id="SVGID_63_" gradientUnits="userSpaceOnUse" x1="-83.8363" y1="19.8273" x2="-83.8363" y2="19.8273" gradientTransform="matrix(-1 0 0 -1 308.4453 411.6973)">
			<stop  offset="0" style="stop-color:#6B360D"/>
			<stop  offset="0.1067" style="stop-color:#854C18"/>
			<stop  offset="0.2528" style="stop-color:#4E2D1A"/>
			<stop  offset="0.3876" style="stop-color:#925D1E"/>
			<stop  offset="0.5674" style="stop-color:#5B2700"/>
			<stop  offset="0.6798" style="stop-color:#5C2902"/>
			<stop  offset="0.7809" style="stop-color:#52301D"/>
			<stop  offset="0.8764" style="stop-color:#824215"/>
			<stop  offset="1" style="stop-color:#4E2D1A"/>
		</linearGradient>
		<path class="st66" d="M392.3,391.9"/>
		
			<linearGradient id="SVGID_64_" gradientUnits="userSpaceOnUse" x1="-77.2774" y1="95.1345" x2="-7.5037" y2="25.3608" gradientTransform="matrix(-1 0 0 -1 308.4453 411.6973)">
			<stop  offset="0" style="stop-color:#6B360D"/>
			<stop  offset="0.1067" style="stop-color:#854C18"/>
			<stop  offset="0.2528" style="stop-color:#4E2D1A"/>
			<stop  offset="0.3876" style="stop-color:#925D1E"/>
			<stop  offset="0.5674" style="stop-color:#5B2700"/>
			<stop  offset="0.6798" style="stop-color:#5C2902"/>
			<stop  offset="0.7809" style="stop-color:#52301D"/>
			<stop  offset="0.8764" style="stop-color:#824215"/>
			<stop  offset="1" style="stop-color:#4E2D1A"/>
		</linearGradient>
		<path class="st67" d="M351.5,282.3l-13.7,0.2c0,30.7-23.9,56-54.6,56l0.2,15.1h-0.2c17.1,0,41-15.1,41-15.1
			c-20.5,17.1,0,19.7,0,19.7c10.2,0,6.8-7.2,6.8-7.2s0,6.6-6.8,3.2c-6.8-3.4,3.4-13.7,10.2-10.3c6.8,3.4,3.4,6.8,3.4,20.4
			c0,13.6,54.6,27.3,54.6,27.3s-13.7-54.6-27.3-54.6c-13.7,0-17.1,3.4-20.5-3.4c-3.4-6.8,6.8-17.1,10.2-10.2
			c3.4,6.8-3.4,6.8-3.4,6.8s6.8,3.4,6.8-6.8c0,0-3.4-20.5-20.5,0c0,0,13.7-23.9,13.7-40.9"/>
	</g>
</g>
<g id="Layer_3" class="st0">
	<g class="st1">
		<g>
			<g>
				<path d="M256,199.1c-26.1-1.1-52.3,1.1-78.4,2.8c-7.1,0.4-14.1,0.9-21.2,1.3c-1.9,0.1-3.8,0.2-5.7,0.3c-0.8,0-1.5,0.1-2.3,0.1
					c2.9-0.2,0.3,0-0.4,0c-3.8,0.2-7.6,0.4-11.4,0.5c-3.6,0.1-7.2,0.3-10.8,0.4c-1.5,0-3,0.1-4.5,0.1c-0.9,0-1.9,0-2.8,0.1
					c-4,0.1,2.1,0-1,0c-3.3,0-6.6,0.1-9.9,0.1c-1.6,0-3.2,0-4.9,0c-2.3,0,3.8,0.1,0.3,0c-1.1,0-2.1,0-3.2-0.1
					c-1.6,0-3.1-0.1-4.7-0.2c-0.9,0-5.7-0.3-2-0.1c-3.3-0.2-6.5-0.4-9.8-0.7c2.8,0.3-1.8-0.2-2.6-0.3c-1.2-0.1-2.4-0.3-3.6-0.5
					c-2.9-0.4-3.3-0.4-7-1.2c-8.3-1.7-17-4-23.8-9.5c-16.1-13-2.1-35.7,9.6-46.4c13.1-12,29.8-20,46.2-26.4
					c22.5-8.8,46.1-14.3,69.9-18.3c0.9,0,1.5-0.3,2-0.9c0.3-35.6,22.3-67.3,55-80.9c3.9-1.6,7.9-3,12-4c2-0.5,4-0.9,6.1-1.3
					c0.5-0.1,5.4-0.7,3.9-0.5c-1.7,0.2,3.5,0-0.1,0c-2.6,0-0.2,0,0.3,0c-1.5-0.2,2.3,0.3,3.1,0.4c4.1,0.6,8.1,1.6,12,3
					c16.3,5.4,30.9,15.5,41.5,29c12.1,15.4,18.3,34.4,18.5,53.9c0,0.9,4.5,1.3,4.4,1.3c34.9,5.5,71.2,14.2,102.3,31.5
					c15.2,8.5,38.9,25.7,28.8,46.1c-7.5,15.2-30.6,19.5-44.6,21.7c-6.4,1-11.7,1.5-16.4,1.9c-3.2,0.3-6.3,0.5-9.5,0.7
					c-2.1,0.1,2.1-0.1-0.1,0c-0.8,0-1.6,0.1-2.4,0.1c-1.9,0.1-3.7,0.2-5.6,0.2c-1.7,0.1-3.3,0.1-5,0.1c-0.9,0-5.7,0.1-2.3,0.1
					c-3.8,0-7.7,0.1-11.5,0.1c-3.5,0-6.9,0-10.4-0.1c-0.6,0-3-0.1,0.1,0c-0.9,0-1.7,0-2.6-0.1c-2,0-3.9-0.1-5.9-0.1
					c-8.2-0.2-16.4-0.5-24.6-0.9c-4-0.2-8-0.4-12-0.6c-1.9-0.1-3.7-0.2-5.6-0.3c-2.2-0.1,2,0.1-0.1,0c-1-0.1-2-0.1-3-0.2
					C285.6,200.7,270.8,199.8,256,199.1c-3.8-0.2-7.7-0.1-11.6,0.2c-0.7,0-6.2,0.2-6.9,1.1c-1.5,1.9,9.7,2.2,10.5,2.3
					c3,0.1,6,0.3,9.1,0.4c-3.1-0.2,0.7,0,1.7,0.1c1.8,0.1,3.7,0.2,5.5,0.3c6.8,0.4,13.6,0.8,20.4,1.1c15.7,0.8,31.5,1.6,47.2,2.1
					c32.6,1,65.5,1.2,98-2.5c12.2-1.4,24.4-3.5,36.1-7.3c8.2-2.7,16.5-6.4,22.4-13c15.3-17.1-2.6-36.8-17-46.6
					c-15.3-10.4-33-17.4-50.5-23c-22.4-7.2-45.5-12.2-68.7-15.9c1.5,0.4,2.9,0.9,4.4,1.3c-0.3-39.4-26.7-73.7-64.3-84.9
					c-11.1-3.3-22.6-4.6-34.2-5c-13.5-0.5-27.4,0.1-40.7,3.1c-19.1,4.3-36.5,13.9-49.8,28.2c-14.9,16.1-23.1,37.1-23.3,59
					c0.7-0.3,1.4-0.6,2-0.9c-22.1,3.7-44.1,8.9-65.3,16.4c-16.4,5.8-32.7,13.1-46.7,23.4c-9.7,7.2-19.1,16.4-23.1,28.1
					c-2.6,7.5-2.9,15.9,2.4,22.3c5.6,6.7,14.2,9.9,22.4,12.2c12.4,3.5,25.4,4.9,38.1,5.8c32.7,2.3,65.5,0.8,98.1-1.1
					c15.9-0.9,31.8-2,47.7-2.9c0.7,0,1.3-0.1,2-0.1c0.6,0,1.3-0.1,1.9-0.1c-1.8,0.1-2.2,0.1-1.2,0.1c1.7-0.1,3.4-0.2,5.1-0.2
					c3.2-0.1,6.5-0.3,9.7-0.4c0.8,0,1.7,0,2.5-0.1c1.7,0,2.8,1-0.8,0c1.1,0.3,2.7,0,3.8,0c1.4,0,6.6,0.5,1,0c1.3,0.1,2.7,0.1,4,0.1
					c3.8,0.2,7.7,0.1,11.6-0.2c0.7,0,6.2-0.2,6.9-1.1C268,199.5,256.8,199.2,256,199.1z"/>
			</g>
		</g>
		<g>
			<g>
				<path d="M37.4,277.7c0-11.4,11.4-17.8,20.5-21.8c15.5-6.8,33-10,49.3-12.4c10.7-1.6,21.1-2.7,30.5-3.5
					c5.6-0.5,11.2-0.9,16.8-1.2c2.5-0.2,5-0.3,7.5-0.4c-2.6,0.1,1.4-0.1,2.1-0.1c1.5-0.1,2.9-0.1,4.4-0.2c5.6-0.2,11.2-0.4,16.8-0.6
					c2.6-0.1,5.3-0.1,7.9-0.2c0.7,0,3,0-0.4,0c0.6,0,1.2,0,1.8,0c1.4,0,2.8,0,4.2,0c5.2-0.1,10.4-0.1,15.7,0c2.4,0,4.8,0,7.2,0.1
					c1.1,0,2.2,0,3.3,0c2.7,0-0.4,0-0.8,0c0.7,0,1.4,0,2.1,0c35,0.7,70,0.8,105,1.3c0.6,0,1.1,0,1.7,0c-0.1,0-2.9-0.1-1.2,0
					c1.3,0,2.7,0,4,0.1c2.7,0.1,5.3,0.1,8,0.2c5.2,0.1,10.3,0.3,15.5,0.6c1.1,0.1,2.3,0.1,3.4,0.2c0.6,0,1.1,0.1,1.7,0.1
					c-0.5,0-2.8-0.2-0.2,0c2.6,0.2,5.3,0.3,7.9,0.5c2.2,0.2,4.5,0.3,6.7,0.5c1.3,0.1,2.6,0.2,3.9,0.3c0.6,0.1,3.9,0.4,1.9,0.2
					c17.2,1.6,33.2,3.6,49.8,9.4c10.5,3.7,23,9.3,27.6,20.3c3.8,9.1,0.5,17.5-7,23.3c-10,7.7-23,11.7-35.1,14.8
					c-17.5,4.5-33.7,7-51.2,9.2c-4.7,0.6-9.5,1.1-14.2,1.6c-2.1,0.2-4.2,0.4-6.3,0.6c-1.8,0.2,1.7-0.2-0.1,0c-0.5,0-1.1,0.1-1.6,0.1
					c-1.2,0.1-2.5,0.2-3.7,0.3c-9.3,0.8-18.5,1.5-27.8,2.1c-2.1,0.1-4.3,0.3-6.4,0.4c-1,0.1-1.9,0.1-2.9,0.2c-2.5,0.1,0.3,0,0.7,0
					c-0.6,0-1.3,0.1-1.9,0.1c-4.1,0.2-8.2,0.4-12.4,0.6c-7.2,0.3-14.5,0.5-21.7,0.7c-3,0.1-6,0.1-9,0.2c3.9-0.1,2.3,0-0.1,0
					c-1.2,0-2.4,0-3.6,0c-4.6,0-9.2,0-13.9,0.1c-10.9,0.2-21.9,0.7-32.8,0.9c-1.6,0-3.3,0.1-4.9,0.1c-1,0-2,0-3,0.1
					c-1.7,0,2,0,1.8,0c-0.6,0-1.2,0-1.7,0c-4.1,0.1-8.1,0.1-12.2,0.1c-4.3,0-8.6,0-12.9,0c-2.1,0-4.3-0.1-6.4-0.1
					c-1.7,0,1.5,0,1.5,0c-0.7,0-1.3,0-2,0c-1.2,0-2.4-0.1-3.5-0.1c-4.6-0.1-9.2-0.3-13.8-0.5c-1,0-2.1-0.1-3.1-0.1
					c-0.7,0-1.4-0.1-2.1-0.1c0.1,0,2.6,0.1,1,0.1c-2.4-0.1-4.8-0.3-7.2-0.4c-4.6-0.3-9.3-0.7-13.9-1.1c-2.3-0.2,1.2,0.1-1-0.1
					c-1-0.1-2-0.2-3-0.3c-2.3-0.3-4.7-0.5-7-0.8c-15.2-1.9-31.1-4.6-46.4-10.3c-11-4.1-23-9.9-29.5-20.3
					C39,287.8,37.5,282.9,37.4,277.7c-0.1-2.9-30.1-2.6-30,0C8.1,306.3,46,316,68.1,320.7c39.6,8.4,80.8,9.4,121.2,9.3
					c16,0,32.1-0.4,48.1-0.9c2.7-0.1,5.3-0.2,8-0.2c1,0,2.1-0.1,3.1-0.1c0.9,0,5-0.1,1.3,0c-3.4,0.1-0.5,0,0.4,0c0.8,0,1.7,0,2.5,0
					c2.1,0,4.1,0,6.2,0c34.1-0.4,68.2-1.8,102.2-4.9c20.7-1.9,41.3-4.3,61.7-8c16.1-2.9,32.5-6.5,47.6-13
					c8.7-3.8,20.2-9.7,22.9-19.7c2.9-10.8-5.2-20.5-13.6-26c-13.2-8.6-29.9-12.2-45.2-14.8c-22-3.8-44.3-5.4-66.5-6.4
					c-21.9-1-43.7-1.2-65.6-1.2c-9.2,0-18.3,0-27.5,0c-4,0-8,0-11.9-0.1c-3.4,0,1,0,0.5,0c-0.9,0-1.8,0-2.6-0.1
					c-1.6,0-3.3-0.1-4.9-0.1c-45.6-1.6-91.4-1.4-136.9,2.7c-22.1,2-44.3,4.6-65.9,10c-13.7,3.4-29.8,7.7-40,18.1
					c-3.3,3.4-5.5,7.6-5.5,12.4C7.4,280.4,37.4,280.5,37.4,277.7z"/>
			</g>
		</g>
		<g>
			<g>
				<path d="M64,398.2c-0.3-28.9,40.6-36,61.4-39c4.5-0.7,9-1.2,13.6-1.7c0.8-0.1,1.5-0.2,2.3-0.2c3.8-0.4-2.2,0.2,1.6-0.2
					c2.8-0.2,5.5-0.5,8.3-0.7c2.4-0.2,4.8-0.3,7.2-0.5c1.2-0.1,2.4-0.1,3.6-0.2c4-0.2-2.8,0.1,1.3-0.1c5.3-0.2,10.5-0.5,15.8-0.6
					c4.8-0.1,9.6-0.2,14.4-0.3c-3.9,0.1,0.1,0,0.8,0c1.2,0,2.4,0,3.5,0c2.3,0,4.6,0,7-0.1c9.1-0.1,18.2-0.1,27.3-0.1
					c16.2-0.1,32.4-0.6,48.6-1.5c8.2-0.5,16.4-1.1,24.6-1.5c2.1-0.1,4.2-0.2,6.3-0.4c0.7,0,6.4-0.3,2.8-0.2
					c4.7-0.2,9.5-0.5,14.2-0.6c2.2-0.1,4.4-0.1,6.7-0.2c1.1,0,2.2-0.1,3.3-0.1c3.8-0.1-3.4,0,0.5,0c2.2,0,4.5,0,6.7,0
					c1.1,0,2.2,0,3.3,0c0.8,0,5.9,0.1,1.6,0c2.2,0,4.4,0.1,6.6,0.2c1.1,0,2.2,0.1,3.3,0.1c0.6,0,4.3,0.2,0.8,0
					c1.8,0.1,3.6,0.2,5.4,0.3c1.1,0.1,2.1,0.2,3.2,0.3c0.7,0.1,1.4,0.1,2.1,0.2c-1.3-0.1-1.2-0.1,0.1,0c14.2,1.5,29.1,4.1,42.6,11.1
					c11.5,5.9,20.7,15.3,23.6,28.3c2.6,11.8-0.1,23-7.5,32.4c-8.4,10.7-20.4,18.2-32.3,24.3c-14.7,7.6-30.4,13.4-46.2,18.3
					c-16.1,5-32.4,9-48.9,12.4c-14.8,3-26.1,5-40.4,6.8c-2.6,0.3-5.2,0.6-7.9,0.9c-0.6,0.1-1.2,0.1-1.8,0.2c-2.2,0.3,3-0.2,0.8-0.1
					c-1.2,0.1-2.4,0.2-3.6,0.3c-0.9,0.1-1.8,0.1-2.7,0.2c5.3-0.7,2.3-0.1,0.9-0.1c6.2-0.1,3.5-0.1,2.1-0.1c-3.3,0,4.7,0.1,1.2,0
					c-1.8-0.1-3.6-0.1-5.4-0.2c-3.1-0.1,3.9,0.2-0.2,0c-1.4-0.1-2.8-0.2-4.2-0.3c-2.7-0.2-5.4-0.4-8-0.6c-1.5-0.1-2.9-0.3-4.4-0.4
					c-2.6-0.2,2.1,0.2,0.4,0c-0.9-0.1-1.8-0.2-2.7-0.3c-15.5-1.6-29.2-3.6-43.8-6.4c-16.2-3.1-32.2-7-47.8-12.3
					c-25.7-8.8-56.8-22.5-68.2-49.2C65.5,410.6,64.2,404.5,64,398.2c-0.1-3-30.1-2.5-30,0c0.9,30.4,28.6,49.5,53.8,60.8
					c31.7,14.2,66.6,21.1,100.9,25.8c25.2,3.4,51.2,6.2,76.7,4.4c29.6-2.1,59.2-7.8,87.9-14.9c32.3-8.1,67.6-18.1,94.4-38.7
					c9.5-7.3,18.6-16.9,21-29.1c2.5-12.7-2.1-26.3-11.2-35.3c-10.6-10.5-25.2-15.5-39.4-18.7c-19.5-4.4-39.7-5.7-59.6-6
					c-21.7-0.4-43.3,0.4-64.9,1.6c-8.5,0.5-17,1.1-25.4,1.6c-3.9,0.2-7.7,0.5-11.6,0.7c4-0.2-0.8,0-2.2,0.1
					c-1.8,0.1-3.6,0.1-5.4,0.2c-1.6,0-3.2,0.1-4.8,0.1c-2.8,0.1,3.2,0,0.4,0c-1.1,0-2.2,0-3.3,0c-4.3,0-8.7,0.1-13,0.1
					c-9.6,0-19.3,0.1-28.9,0.2c-22.3,0.2-44.7,0.8-67,2.5c-19.7,1.6-39.7,3.8-58.7,9.2c-12.8,3.7-27.2,8.9-35.2,20.2
					c-3.2,4.5-4.7,9.7-4.6,15.2C34,401,64,400.9,64,398.2z"/>
			</g>
		</g>
	</g>
</g>
<g id="Layer_4" class="st0">
	<g class="st1">
		<path class="st68" d="M256.5,446.7c-106.5,0-175.8-39.1-175.8-39.1s-58.6-154-61.3-185.8c-2-24.4,93.2-105.1,101.2-110
			c8-4.9,79.9-14.7,79.9-14.7s2.7-44,55.9-44s55.9,44,55.9,44s55.9,4.9,82.6,22c26.6,17.1,85.2,78.2,87.9,102.7
			s-55.9,171.2-61.3,178.5C416.3,407.6,379,446.7,256.5,446.7z"/>
		<g>
			<path class="st69" d="M256.4,441.8c-56.1-0.1-114-10.2-165.1-34c-3.3-1.5-6.5-3.1-9.7-4.8c0.8,0.9,1.5,1.7,2.3,2.6
				c-7.8-20.5-15.4-41.2-22.8-61.9c-12-33.4-24.2-66.9-33.5-101.2c-1.5-5.5-2.9-11-3.9-16.5c-0.2-1-0.4-2-0.5-3.1
				c0.1,0.8-0.1-1.6-0.1-1.5c0.1-1.4,0.8-3.5,1.6-5.3c6-13.5,17.5-25.1,27.5-35.8c12.8-13.6,26.4-26.4,40.3-38.8
				c9.1-8.1,18.3-16.4,28.1-23.7c2.9-2.1,5.1-2.7,8.9-3.6c7.8-1.9,15.7-3.3,23.6-4.7c15.1-2.6,30.4-4.9,45.6-7
				c0.9-0.1,1.9-0.3,2.8-0.4c2-0.3,2.6-2.7,2.8-4.4c0-0.2-0.3,1.6,0,0c0.2-1,0.3-2,0.5-3c0.7-3.4,1.6-6.3,3.1-9.5
				c4.3-9.7,12-17.3,21.6-21.9c23.8-11.1,61-6.8,74.2,18.3c2,3.8,3.2,6.9,4.1,10.8c0.3,1.3,0.5,2.6,0.7,3.9c0.2,1.1-0.1-1.2,0,0.3
				c0.1,2.1,1.3,5.2,3.9,5.5c18,1.6,36.1,4.8,53.5,9.8c11.2,3.2,22.3,7.5,31.8,14.4c9,6.5,17.2,14,25.2,21.6
				c17.9,17.1,35.5,35.9,48.6,57c2.3,3.8,4.5,7.7,6.1,11.9c1.1,2.9,1.4,4.4,1.4,6.8c-0.1,4.7-1.7,11.4-3,16.9
				c-9.9,40-25.5,79-40.8,117.2c-5,12.6-9.9,25.3-15.9,37.5c-0.3,0.5-0.5,1.1-0.8,1.6c0.7-1.1,0.2-0.3-0.2,0.2
				c-0.8,0.9-1.5,1.8-2.3,2.7c-2.9,3-5.2,4.9-8.8,7.6c-12.5,9.1-26.9,15.4-41.6,20.1c-26,8.4-53.5,12.1-80.7,13.7
				C275.5,441.5,266,441.7,256.4,441.8c-5.4,0-4.6,9.9,0.1,9.8c32.2-0.1,64.8-2.4,96.2-10.2c18-4.5,36-10.9,51.8-20.7
				c7-4.3,14.6-9.6,19.6-16.3c2.1-2.8,3.4-6.2,4.8-9.3c3-6.6,5.7-13.4,8.5-20.1c16.3-39.9,32.1-80.6,43.8-122.1
				c3.7-13.3,8.2-27.2,3-40.6c-3.9-9.8-10.2-18.8-16.5-27.2c-8.2-10.9-17.2-21.1-26.6-30.9c-15.7-16.5-33.2-34.9-54.1-44.6
				c-21.5-10-46.1-14.2-69.5-16.9c-1.7-0.2-3.4-0.4-5-0.5c1.3,1.8,2.6,3.6,3.9,5.5c-1.2-18.6-13.6-36-30.4-43.7
				c-27.7-12.6-67.3-6.4-82.8,21.7c-3.5,6.3-5.9,13.6-6.4,20.9c0.9-1.5,1.8-2.9,2.8-4.4c-18,2.5-36.1,5.2-54,8.4
				c-8.3,1.5-18.2,2.4-25.9,6.2c-4.3,2.1-8.1,5.9-11.7,8.9c-17.5,14.6-34.5,30-50.6,46.1c-8.6,8.6-17.1,17.5-24.8,26.9
				c-5.7,6.9-11.6,14.5-14.9,22.8c-2.6,6.4-1.9,12.3-0.6,18.9c1.8,8.7,4.2,17.2,6.8,25.7c7,23.7,15.1,47.1,23.3,70.5
				c7.5,21.2,15.1,42.3,23,63.3c2.1,5.6,4.2,11.2,6.3,16.9c1,2.6,1.9,4.6,4.5,6c14,7.8,29.6,13.3,44.7,18.3
				c32.2,10.5,65.7,16.9,99.4,19.4c10.5,0.8,21,1.1,31.5,1.1C261.9,451.6,261.2,441.8,256.4,441.8z"/>
		</g>
	</g>
	<g class="st1">
		<g>
			<path class="st69" d="M196.6,98.3c0.6,3.9,1.5,8.6,4.1,11.7c1.8,2.2,4.4,3.1,6.7,4.5c8.7,5.2,17.9,9.3,27.8,11.6
				c24.4,5.6,55,1.9,74.3-15.4c3.9-3.5,0.4-11.3-4.4-6.9c-8.3,7.4-20.2,11.1-30.8,13.4c-11.8,2.6-24,2.2-35.7-0.5
				c-8.7-2-17.1-5.4-24.8-9.9c-2-1.1-4.5-2.2-6.2-3.7c-2-1.7-2.7-4.9-3.1-7.5C203.5,89.3,195.9,93.1,196.6,98.3L196.6,98.3z"/>
		</g>
	</g>
	<g class="st1">
		<g>
			<path class="st69" d="M115.8,111c-1.4,9.8,7.4,17.3,15.1,21.4c16.8,9,37,11.8,55.7,13.9c35.4,4,71.3,4.1,106.9,3
				c25.7-0.8,51.8-2.1,77.1-7.3c7.1-1.5,14.3-3.2,20.8-6.4c3.3-1.6,7.2-3.9,8.3-7.6c1.4-4.8-8-8.1-9.4-3.4c-0.3,0.9-0.2,0.6-0.2,0.5
				c-0.4,0.5-0.8,1-1.3,1.4c0.8-0.8-0.8,0.5-1.1,0.8c-0.8,0.5-1.7,1-2.5,1.4c-4,2.1-10.1,3.7-15.1,4.9c-21.3,5-43.7,6.3-65.5,7.3
				c-34.3,1.6-69,1.7-103.3-1c-20-1.6-41.1-3.6-59.9-11c-5.3-2.1-10.1-4.4-13.6-8.4c0,0,0.1,0.1-0.4-0.6c-0.3-0.4-0.5-0.8-0.8-1.2
				c-0.5-0.9-0.4-0.5-0.8-1.9c-0.4-1.2-0.5-2.4-0.2-4.5C126.2,107.7,116.5,105.7,115.8,111L115.8,111z"/>
		</g>
	</g>
	<g class="st1">
		<g>
			<path class="st69" d="M20.3,206.7c-13.9,19.7,8.6,34.9,24.7,41.8c30.4,13.1,64.4,18.6,96.9,23.2c33.9,4.9,68.2,8.1,102.5,8.7
				c42.4,0.7,85.1-4.5,126.6-12.4c21.8-4.1,43.6-9.1,64.5-16.4c12.5-4.3,28.3-9.6,36.8-20.4c2.9-3.7-2.2-12-5.8-7.4
				c-6.8,8.6-19.6,13-29.5,16.7c-16.9,6.2-34.5,10.7-52,14.5c-41.1,8.9-83.4,14.6-125.4,15.5c-31.9,0.7-63.9-2-95.5-5.7
				c-33.3-3.9-67.1-9-99.2-19c-12-3.8-25.2-8.1-35.1-16.1c-1.7-1.4-2.8-2.4-4.1-4.1c-0.9-1.2-1.7-2.7-2-3.7c-0.3-1-0.5-1.5,0-3.3
				c0.3-1,1.3-3.2,2.3-4.6C28.8,210.3,23.6,202,20.3,206.7L20.3,206.7z"/>
		</g>
	</g>
</g>
<g id="Layer_5" class="st0">
	<g class="st1">
		<g>
			<g>
				<path class="st69" d="M199.6,24.4c-38.7,75.7-77.4,151.5-116.1,227.2c-0.7,1.3,1.3,2.4,1.9,1.1
					c38.7-75.7,77.4-151.5,116.1-227.2C202.2,24.3,200.3,23.1,199.6,24.4L199.6,24.4z"/>
			</g>
		</g>
		<g>
			<g>
				<path class="st69" d="M301.3,25.6c38.7,75.7,77.4,151.5,116.1,227.2c0.7,1.3,2.6,0.2,1.9-1.1c-38.7-75.7-77.4-151.5-116.1-227.2
					C302.6,23.1,300.6,24.3,301.3,25.6L301.3,25.6z"/>
			</g>
		</g>
		<path class="st70" d="M428,297.2c0,98.4-79.8,178.2-178.2,178.2S71.5,395.7,71.5,297.2"/>
		<path class="st70" d="M71.5,297.2c0-98.4,79.8-178.2,178.2-178.2S428,198.8,428,297.2"/>
		<circle class="st70" cx="249.8" cy="297.2" r="124.9"/>
		<circle class="st70" cx="249.8" cy="297.2" r="39.6"/>
		<g>
			<path class="st69" d="M281,296.9c0.2,4.1-0.5,8.2-1.9,12.1c-1.6,3.8-3.9,7.4-6.9,10.3c-5.9,5.9-14.1,9.3-22.4,9.3
				c-8.3,0-16.6-3.4-22.4-9.3c-2.9-2.9-5.3-6.5-6.9-10.3c-1.4-3.9-2.1-8.1-1.9-12.1c0.2,4.1,1.1,8.1,2.8,11.8
				c1.5,3.7,3.8,7.1,6.7,10c5.7,5.7,13.7,9,21.7,9c8.1,0,16.1-3.3,21.7-9c2.8-2.8,5.1-6.3,6.7-10C279.8,305,280.8,300.9,281,296.9z"
				/>
		</g>
		<g>
			<path class="st69" d="M419.5,289.2c0.4,22.6-3.3,45.4-11.1,66.8c-8.1,21.3-20.4,41-36.1,57.5c-7.9,8.2-16.6,15.7-26,22.1
				c-9.4,6.4-19.5,11.9-30,16.3c-21,8.8-43.9,13.1-66.6,13.1c-22.8,0-45.6-4.3-66.6-13.1c-10.5-4.4-20.6-9.8-30-16.3
				c-9.4-6.4-18.1-13.9-26-22.1c-15.8-16.5-28-36.2-36.1-57.5c-7.8-21.4-11.4-44.2-11.1-66.8c0.2,11.3,1.4,22.6,3.5,33.7
				c2.1,11.1,5.3,22,9.4,32.4c8,21,20.1,40.5,35.7,56.8c7.8,8.1,16.4,15.5,25.7,21.8c9.3,6.4,19.2,11.7,29.6,16.1
				c20.8,8.7,43.3,12.9,65.8,12.9c22.5,0,45.1-4.3,65.8-12.9c10.4-4.3,20.3-9.7,29.6-16.1c9.3-6.4,17.9-13.7,25.7-21.8
				c15.6-16.3,27.7-35.7,35.7-56.8c4.1-10.5,7.3-21.3,9.4-32.4C418.1,311.9,419.3,300.6,419.5,289.2z"/>
		</g>
		<path class="st71" d="M159.9,164.7"/>
	</g>
</g>
<g id="Layer_7" class="st0">
	
		<image style="display:inline;overflow:visible;opacity:0.61;" width="1920" height="1920" xlink:href="2CF39AE5.png"  transform="matrix(0.2781 0 0 0.2781 -28 0)">
	</image>
</g>
<g id="Layer_6">
	<path class="st2" d="M298.5,221.5c-2.9,8.5-0.1,48.7-4,59c-8,21-17,37-5,58c2.7,4.8-8.9,20.2-4,34c2.1,6,11,4.9,13.5,10.8
		c3.5,8.2,4.4,17.3,7.2,25.7c2.8,8.5,8.3,16.9,16.9,19.3c1.8,0.5,3.7,0.7,5.2,1.8c1.7,1.1,2.7,3,3.8,4.8c8.8,15.4,26.1,28,43.5,24.4
		c1.5,7,3.1,14.3,7.1,20.2c4,6,11.1,10.5,18.2,9.3c3-3.1,5.7-6.5,7.9-10.2c1.4-2.4,2.8-4.9,5-6.5c1.5-1.1,3.3-1.6,5-2.3
		c6.6-2.8,13.1-7.7,14.6-14.7c1.3-6.1,1.9-12.3,2-18.5c0-2.4-0.1-4.7-0.6-7c-0.4-1.6-1-3.2-1.6-4.7c-1.3-3.3-2.9-6.9-4.2-10.2
		c-3.7-9.7-7.4-19.4-11-29.1c-9-23.8-18.1-47.8-21.8-72.9c-3.1-20.5-2.8-42.2-12.5-60.5c-3.9-7.2-9.2-13.7-12.7-21.1
		c-5.4-11.8-5.8-25.2-6.8-38.1c-0.7-9.5-1.9-19-3.6-28.4c-7-39.3-22.7-76.9-45.8-109.5c-9.3-13.1-19.9-25.5-33.5-34.1
		c-13.5-8.6-30.4-12.9-45.9-8.9s-29,17.4-30.2,33.4c9.7,4.8,23.7,3,33.6-1.3c3-1.3,5.8-3,9-3.6c9.7-1.8,18.2,6.6,27.9,8.3
		c2.7,0.5,5.4,0.4,8,1.1c5.8,1.6,9.8,6.8,13.2,11.8c7.6,11.1,14.3,23.1,17.2,36.3c1.6,7.3,2,14.9,2.4,22.4c0.7,13.8,1.4,27.5,2,41.3
		c0.4,9.1,1,18.2-1.3,27.1c-1.2,4.7-3.2,9.3-5.4,13.7C307.9,209.8,301.1,213.6,298.5,221.5z"/>
	<path class="st2" d="M184.5,96.4c0.7-2.9,1.5-6,0.5-8.8c-1-2.8-4.4-5-7-3.5c2.8-20.9,24.7-21.7,27.5-42.6c0.2-1.3,13.6-20.8,13-22
		c-1.5-3.2-8.6,6-12,7C187,32,171.4,50.8,160.6,68c-16.6,26.7-19.1,45.5-23.1,64.5c-7.8,36.9-39.4,57.8-27,93c6,17-7,26.3-13,36
		c-8.1,13.1-26.5,9.9-29.9,32.3c9.8-2.8,19.7-8.8,29.6-11.2c3.1-0.7,6.4-1.4,9.3-0.3c4.3,1.7,9.6-3.1,12.7,8.9
		c2.5,9.4,5.2,11,2,22.3c-3.5,12.4,2.2,17.6,1.5,27.3c-1,13.4-7.4,22.4-6.3,36.2c1.4,17.2,13,33.3,9.9,50.3c-1.8,10-8.7,19-8.6,29.2
		c0,9.6,7.1,18.8,16.4,21.4s20-1.9,24.9-10.2c8,13.7,27.3,14,43,12.7c1.8-0.2,3.6-0.3,5-1.5c1.8-1.4,2.1-4,2.2-6.2
		c0.3-6.8-0.7-13.7-3-20.1c11.8,0.9,22.6-11.3,20.3-22.9c-1-5.2-3.3-12.3,1.5-14.5c5.7,7.9,17.3,10.9,26.1,6.7
		c8.8-4.2,13.7-15.2,11.1-24.5c-13.7,3.5-29.2-1.3-38.6-11.9c-9.3-10.6-13.5-22-8.2-35.1c-4.2-0.3,15.6,2.1,26.3,15.9
		c11.9,15.2,15.4-3.5,28.3,21c-0.6-21.8,0.4-37.8-11.6-45.8c-4.4-3-10.7-2.5-21-9c-11-7-16.5-22.2-15-29c2.5-11.4,1.3-16.3,1.9-27.6
		c0.6-11.2-5.4-24.5-14.4-31.2c-5.6-4.2-12.7-5.6-19.2-8c-6.5-2.4-12.1-0.5-10.8-10.2c1-7.6,4.5-16.4,2-19.4
		c-3.7-4.4-9.9-14.4-6.9-23.8c2.6-8.2-2.1-17.2,1.5-24.8c4-8.4-2.3-13.7-2.8-21.6C175.7,123.2,181.2,109.5,184.5,96.4z"/>
	<path class="st2" d="M264.5,190.5c0,0,10,5,20.7,1.8c-2.6,3-6,5.4-9.7,6.7c-1.8,0.6-3.7,1.1-5.6,1.1c-3.5,0.1-12-0.6-15.4-1.6
		c-1.9-0.6-7.2-7.6-4-6.6C255.5,193.5,264.5,190.5,264.5,190.5z"/>
	<path class="st2" d="M231.7,167.3c4.2-0.5,5.6,0.7,9.8,0.2c3.7-0.5,10.2-2.5,13.4-4.4c0.5-0.3,1.1-0.7,1.7-0.9
		c0.6-0.2,1.3-0.2,2-0.2c3.6,0.1,7.1,0.2,10.7,0.3c1.5,0,3,0.1,4.4,0.4c3.1,0.8,5.8,3.7,8.8,4.8c2.6,0.9,5.3,0.2,8.1,0.7
		s5.6,1.7,6.8,4.3s-0.6,6.3-3.4,6c-0.8-0.1-1.5-0.4-2.2-0.8c-17.9-8.5-39-7.9-58.2-3c-2.1,0.5-4.2,1.1-6.4,1.1
		c-3-0.1-6.9-1.5-4.7-4.6C224.3,168.7,228.8,167.7,231.7,167.3z"/>
	<path class="st2" d="M237.2,98.3c-1.8-1-3.8-1.3-5.9-1.5c-9.8-0.9-20.2,0.7-28.4,6.2c-1.6,1.1-3.3,3-2.4,4.7
		c0.9,1.6,3.3,1.4,5.1,0.9c8.1-2.1,16.5-4,24.9-3.3c2.1,0.2,6.6,1.9,8.6,0.6C242.1,104,239.5,99.6,237.2,98.3z"/>
	<path class="st2" d="M302.3,97.1c1.2,0.4,2.4,0.9,3.4,1.6c2.3,1.6,3.7,4.1,5,6.6c1.2,2.3,2.4,5,1.6,7.5c-0.1,0.3-0.3,0.7-0.6,0.8
		c-0.5,0.2-1.1-0.2-1.4-0.7c-1.9-2.2-3.9-4.5-6.5-5.9c-4.6-2.7-10.2-2.4-15.2-0.9c-2.4,0.8-10.2,5.8-11.5,0.7
		c-1-3.9,7.6-8.3,10.4-9.3C292.3,95.9,297.5,95.6,302.3,97.1z"/>
	<path class="st2" d="M205.5,240.5"/>
	<path class="st2" d="M219.6,221.9c2.2,0,6.4-0.8,8.7-1.3c6-1.4,11.8-3.9,16.9-7.4c0.5-0.3,1-0.7,1.6-0.8c0.9-0.2,1.9,0.2,2.8,0.5
		c5.7,2.5,11.3,5.4,17.4,6.7c6.1,1.3,13,0.7,17.8-3.3c1.1-0.9,2.1-2,3.4-2.6c2.5-1.2,5.8,0,7.3,2.3c1.6,2.3,1.6,5.4,0.5,8
		c-1.5,3.5-4.6,6-7.9,7.9c-10.6,6.2-23.2,8.5-35.4,7.2c-12.2-1.2-23.9-5.8-34.3-12.3C218.3,226.9,216.6,221.9,219.6,221.9z"/>
	<path class="st2" d="M183.5,221.5c6,6,10,7,17,6c4.2-0.6,10-8,6-14c-3.7-5.6-9-1-14,4c3-9,9.7-14.9,19-11c6.2,2.6,7.5,18.7,4,24
		c-4,6-5,12-5,12"/>
	<path class="st2" d="M173,50.7C89.2,82,29.6,162.7,29.6,257.3c0,74.5,36.9,140.3,93.5,180.2"/>
	<path class="st2" d="M421.6,395.7c30.6-37.8,48.9-86,48.9-138.4c0-102.3-69.6-188.2-164.1-213.1"/>
	<g>
		<path class="st72" d="M236,116.4c-1.3-0.6-2.5-1.2-3.9-1.5c-0.6-0.2-1.3-0.3-2-0.5c-0.7-0.1-1.3-0.2-2-0.3
			c-2.7-0.3-5.5-0.1-8.1,0.6c-2.6,0.6-5.1,1.8-7.4,3.4c-1.1,0.8-2.2,1.8-3.6,2.2c-0.7,0.2-1.5,0.3-2.2,0.1c-0.7-0.1-1.4-0.5-1.7-1.1
			c0.9,1.1,2.6,1.1,3.7,0.6c1.2-0.5,2.2-1.5,3.3-2.4c2.2-1.8,4.8-3,7.6-3.7c1.4-0.4,2.8-0.5,4.2-0.6c1.4,0,2.8,0,4.2,0.2
			C231,113.8,233.7,114.8,236,116.4z"/>
	</g>
	<g>
		<path class="st72" d="M209,122.6c2.9,0.4,5.8-0.2,8.2-1.6c2.4-1.4,4.6-3.5,7.4-4.4c1.4-0.5,3-0.6,4.5-0.1c0.8,0.3,1.3,0.6,2,0.9
			c0.7,0.3,1.3,0.6,2,0.8c0.7,0.3,1.3,0.5,2,0.8c0.6,0.2,1.4,0.5,2.1,0.8c0.7,0.3,1.3,0.7,1.9,1.1c0.3,0.2,0.6,0.4,0.9,0.7
			c0.1,0.1,0.3,0.2,0.4,0.4c0.1,0.1,0.3,0.2,0.4,0.5l0.4,0.6l-0.7,0.1c-2,0.4-4,0.7-6.1,0.9c-2,0.2-4.1,0.3-6.2,0.3
			c-2.1-0.1-4.1-0.2-6.1-0.7c-2-0.4-4-1-5.9-1.7c2,0.6,3.9,1,6,1.3c2,0.3,4,0.4,6.1,0.4c2,0,4-0.2,6.1-0.4c2-0.2,4-0.6,6-1l-0.3,0.7
			c-0.1-0.1-0.4-0.4-0.7-0.6c-0.3-0.2-0.5-0.4-0.8-0.6c-0.6-0.4-1.2-0.7-1.8-1c-0.6-0.3-1.3-0.5-2-0.8c-0.7-0.3-1.4-0.5-2-0.8
			c-0.7-0.3-1.3-0.6-2-0.9c-0.6-0.3-1.3-0.7-1.9-0.9c-1.2-0.4-2.7-0.3-4,0.1c-2.7,0.8-4.9,2.8-7.4,4.1
			C214.9,122.8,211.8,123.2,209,122.6z"/>
	</g>
	<g>
		<path class="st72" d="M227.9,122.8c0.5-0.9,0.9-1.6,1.2-2.4c0.3-0.8,0.5-1.6,0.7-2.5c0.6,0.8,0.6,2,0.2,2.9
			C229.6,121.7,228.9,122.6,227.9,122.8z"/>
	</g>
	<g>
		<path class="st72" d="M234,123c0.4-0.5,0.6-1.1,0.8-1.6c0.1-0.3,0.1-0.6,0.2-0.8c0.1-0.3,0.3-0.5,0.6-0.8l0.1,0
			c0.3,0.3,0.3,0.7,0.3,1.1c0,0.4-0.3,0.7-0.5,0.9C235.1,122.2,234.6,122.7,234,123L234,123z"/>
	</g>
	<path class="st72" d="M225.8,116.9c-0.5-0.4-1.2,0.4-1,1c0.2,0.6,0.9,0.8,1.5,1c0.1,0.4-0.1,0.8-0.5,1.1c-0.4,0.2-0.8,0.3-1.2,0.3
		c-0.5,0.1-1.1,0.1-1.6-0.1c-0.5-0.2-0.9-0.8-0.7-1.3c0.1-0.3,0.4-0.5,0.7-0.7c0.7-0.5,1.5-1.1,2.5-1.2"/>
	<g>
		<path class="st72" d="M293.5,117.5c-1.4-0.9-3-1.3-4.7-1.1c-1.6,0.1-3.2,0.6-4.7,1.1c-1.5,0.5-3.1,1-4.5,1.8
			c-0.3,0.2-0.7,0.4-1,0.6c-0.2,0.1-0.3,0.2-0.5,0.3c-0.1,0.1-0.3,0.3-0.3,0.3c0-0.1,0,0,0,0c0,0,0,0.1,0.1,0.1
			c0.1,0.1,0.2,0.1,0.3,0.2c0.3,0.1,0.7,0.2,1,0.1c1.6-0.2,3.3-0.2,4.9,0c1.6,0.2,3.2,0.5,4.8,0.6c1.6,0,3.2-0.2,4.9-0.3
			c0.8,0,1.7-0.1,2.5,0.1c0.4,0.1,0.8,0.2,1.2,0.2c0.4,0,0.7-0.2,1-0.5l0,0.1c-0.6-0.8-1.5-1.5-2.4-2.1
			C295.3,118.6,294.4,118.1,293.5,117.5z M293.5,117.5c0.9,0.6,1.8,1.1,2.7,1.7c0.9,0.6,1.8,1.2,2.5,2l0.1,0.1l-0.1,0.1
			c-0.3,0.3-0.7,0.5-1.1,0.6c-0.5,0.1-0.9-0.1-1.2-0.1c-0.8-0.1-1.6,0-2.4,0.1c-1.6,0.2-3.2,0.5-4.9,0.6c-1.7,0.1-3.3-0.2-4.9-0.4
			c-0.8-0.1-1.6-0.2-2.4-0.2c-0.8,0-1.5,0-2.4,0.1c-0.5,0-0.9,0-1.4-0.2c-0.4-0.2-1.1-0.7-0.9-1.5c0.2-0.4,0.4-0.5,0.5-0.6
			c0.2-0.1,0.4-0.3,0.5-0.4c0.4-0.2,0.7-0.4,1.1-0.6c1.5-0.7,3.1-1.2,4.7-1.6c1.6-0.4,3.2-0.7,4.8-0.8
			C290.5,116.2,292.1,116.6,293.5,117.5z"/>
	</g>
	<g>
		<path class="st72" d="M280.2,116c1-0.9,2.1-1.6,3.4-2.1c1.3-0.5,2.6-0.7,3.9-0.9c2.7-0.3,5.3,0,7.9,0.5c1.3,0.3,2.7,0.8,3.8,1.5
			c1.1,0.8,2.1,1.6,3.1,2.5c0.9,0.9,1.8,1.9,2.6,3c0.8,1.1,1.5,2.2,2.1,3.4c-0.8-1.1-1.6-2.1-2.4-3.1c-0.9-1-1.8-1.9-2.8-2.7
			c-1-0.8-2-1.6-3.1-2.3c-1.1-0.7-2.2-1.1-3.5-1.3c-2.5-0.5-5.1-0.8-7.7-0.7C284.9,113.9,282.4,114.5,280.2,116z"/>
	</g>
	<g>
		<path class="st72" d="M279.3,119.3c0,0.2-0.1,0.4-0.1,0.6c0,0.2,0.1,0.2,0.1,0.2c0.2,0.1,0.6,0.2,0.9,0.3c0.7,0.2,1.5,0.5,2.2,1
			c-0.9,0.2-1.7,0.1-2.5-0.1c-0.4-0.1-0.8-0.3-1.2-0.8c-0.2-0.3-0.2-0.7,0-0.9C278.9,119.6,279.1,119.4,279.3,119.3z"/>
	</g>
	<g>
		<path class="st72" d="M285,117c-0.5,0.9-0.6,1.8-0.4,2.6c0.2,0.8,0.7,1.5,1.5,2.1c-1,0-2-0.9-2.2-2
			C283.6,118.7,284.1,117.5,285,117z"/>
	</g>
	<path class="st72" d="M287.3,117.1c-0.3,1.2,0.6,2.6,1.9,2.9c1.3,0.2,2.6-0.8,2.8-2c-0.8,0.2-1.7-0.6-1.6-1.5
		c-0.1,0.3-0.2,0.6-0.3,0.9c-0.8,0.3-1.7,0-2.1-0.7c-0.1,0.2-0.2,0.5-0.3,0.7"/>
	<g>
		<path class="st72" d="M276,111.8c-1.2,0.5-2.1,1.4-2.8,2.5c-0.6,1.1-1,2.3-1.2,3.6c-0.4,2.5,0.2,5,0.6,7.6
			c0.2,1.3,0.4,2.6,0.4,3.9c0,1.3-0.2,2.6-0.1,3.8c0,2.5,1.1,4.8,2.4,7c0.6,1.1,1.3,2.2,1.9,3.4c0.6,1.2,1,2.5,1.3,3.7
			c0.7,2.4,2.7,4.1,4,6.4c0.6,1.2,1,2.6,0.6,4c-0.4,1.3-1.4,2.4-2.5,3.1c-1.1,0.7-2.3,1.3-3.6,1.5c-1.3,0.2-2.8-0.6-3.1-1.9
			c0.2,0.6,0.7,1.1,1.2,1.4c0.6,0.3,1.2,0.3,1.8,0.3c1.2-0.2,2.4-0.9,3.4-1.6c1-0.7,1.9-1.7,2.1-2.9c0.3-1.2,0-2.4-0.7-3.4
			c-0.6-1.1-1.5-2-2.2-3.1c-0.8-1-1.5-2.2-1.9-3.5c-0.4-1.3-0.8-2.4-1.3-3.5c-0.6-1.1-1.2-2.2-1.9-3.3c-0.6-1.1-1.3-2.3-1.7-3.5
			c-0.5-1.2-0.7-2.6-0.7-3.9c0-1.3,0.2-2.6,0.2-3.8c0-1.2-0.1-2.5-0.3-3.8c-0.3-2.5-0.8-5.1-0.3-7.7c0.3-1.3,0.7-2.5,1.4-3.6
			C273.7,113.1,274.8,112.2,276,111.8z"/>
	</g>
	<g>
		<path class="st72" d="M271.2,158.6c-0.1-1.2,0.6-2.4,1.6-3.1c1-0.7,2.5-0.8,3.7-0.4c0.6,0.3,1.1,0.6,1.6,1.2
			c0.1,0.2,0.2,0.5,0.2,0.7c-0.1,0.3-0.2,0.4-0.2,0.5c-0.2,0.3-0.4,0.5-0.7,0.7c-0.5,0.4-1.4,0.5-2,0.1c-0.5-0.4-0.8-1.2-0.4-1.7
			c-0.2,0.6,0.2,1.1,0.7,1.3c0.4,0.2,0.9,0,1.2-0.3c0.3-0.3,0.7-0.9,0.5-0.8c-0.3-0.3-0.7-0.6-1.2-0.8c-0.9-0.4-2-0.4-2.9,0.1
			C272.3,156.6,271.6,157.4,271.2,158.6z"/>
	</g>
	<g>
		<path class="st72" d="M250.3,156.2c0.8-0.8,1.7-1.5,2.9-1.9c1.2-0.4,2.4-0.3,3.6,0.2c0.6,0.3,1.1,0.6,1.5,1.1
			c0.4,0.5,0.6,1.1,0.8,1.6c0.2,0.5,0.4,1,0.7,1.4c0.3,0.4,0.7,0.8,1.3,0.8c-0.6,0.2-1.2-0.1-1.7-0.5c-0.5-0.4-0.8-0.9-1.1-1.4
			c-0.5-1-1.1-1.8-2-2.2c-0.9-0.4-2-0.5-3-0.3C252.4,155.2,251.4,155.8,250.3,156.2z"/>
	</g>
	<g>
		<path class="st72" d="M255.1,159.7c-1.4,1.2-3.3,1.6-5.2,1.4c-1.8-0.3-3.7-1.3-4.7-2.9c-1.1-1.6-1.2-3.7-0.7-5.5
			c0.5-1.8,1.8-3.4,3.6-4c-1.5,1-2.4,2.5-2.8,4.2c-0.3,1.6-0.1,3.4,0.8,4.8c0.9,1.4,2.4,2.3,4,2.7
			C251.7,160.7,253.5,160.6,255.1,159.7z"/>
	</g>
	<g>
		<path class="st72" d="M294.7,121.8c0.3-0.5,0.5-0.9,0.6-1.3c0.1-0.4,0.3-0.8,0.3-1.4c0.5,0.4,0.6,1.1,0.4,1.7
			C295.8,121.3,295.3,121.8,294.7,121.8z"/>
	</g>
	<g>
		<path class="st72" d="M226.7,178.4c5.2,1.6,10.6,1.9,15.9,1.9c2.7,0,5.4,0,8.1,0.1c2.7,0.1,5.4,0.3,8.1,0.6c2.7,0.2,5.4,0.5,8,0.6
			c2.7,0.1,5.3,0.1,8-0.2c5.3-0.5,10.6-1.5,16-2.3l0,0.4l-1.5-0.7l0.1-0.3c0.9,0.5,1.7,1.2,2.2,2l0.1,0.1l-0.1,0l-2.4,1.4l2.3-1.5
			l0,0.1c-0.6-0.8-1.4-1.4-2.2-1.8l0.1-0.3l1.6,0.6l0.7,0.3l-0.7,0.1c-2.6,0.5-5.3,1-7.9,1.5c-2.7,0.5-5.3,1-8,1.2
			c-5.4,0.6-10.9,0.2-16.2-0.4c-2.7-0.3-5.4-0.5-8-0.6l-8.1-0.3c-2.7-0.1-5.4-0.3-8.1-0.6C231.9,180,229.2,179.4,226.7,178.4z"/>
	</g>
	<g>
		<path class="st72" d="M229.5,177.6c-0.7,0.4-1.4,0.7-2.2,0.9c-0.8,0.2-1.6,0.3-2.4,0.3l0.3-0.9c0.7,0.5,1.3,1,2,1.5
			c0.7,0.5,1.4,1,2.1,1.5c-0.9-0.1-1.7-0.4-2.5-0.8c-0.8-0.4-1.5-0.9-2.2-1.4l-1.1-0.9l1.4,0c0.8,0,1.5,0,2.3-0.1
			C227.9,177.7,228.7,177.6,229.5,177.6z"/>
	</g>
	<g>
		<path class="st72" d="M233.5,177.5c4.5-0.9,9.1-1.3,13.6-2c1.1-0.1,2.3-0.3,3.4-0.5c1.2-0.2,2.3-0.3,3.4-0.4
			c1.2-0.1,2.3-0.2,3.5-0.2c1.3,0.1,2.4,0.5,3.5,0.9c2.1,1,4.1,1,6.1-0.6c1.2-0.4,2.4-0.4,3.6-0.4c1.2,0,2.3,0.1,3.5,0.2
			c4.6,0.5,9.1,1.6,13.5,3c-2.2-0.5-4.5-1-6.7-1.3c-2.3-0.4-4.5-0.7-6.8-0.8c-1.1-0.1-2.3-0.1-3.4-0.1c-1.1,0-2.3,0-3.2,0.4
			c-0.2,0.1-0.4,0.2-0.6,0.4c-0.3,0.2-0.5,0.4-0.8,0.5c-0.6,0.3-1.2,0.4-1.8,0.5c-1.3,0.2-2.5-0.2-3.6-0.7c-1-0.4-2.1-0.8-3.1-0.9
			c-1.1,0-2.3,0.1-3.4,0.2c-1.1,0.1-2.3,0.2-3.4,0.4c-1.1,0.2-2.3,0.3-3.4,0.4C242.6,176.8,238.1,177,233.5,177.5z"/>
	</g>
	<g>
		<path class="st72" d="M235.5,182.5c4.6-0.5,9.2,0.5,13.6,1.6c4.4,1.2,8.7,2.7,13.2,3.5c4.4,0.9,9,0.4,13.4-0.7
			c2.2-0.5,4.4-1.1,6.5-1.9c2.2-0.7,4.3-1.6,6.3-2.6c-3.9,2.3-8.2,4.1-12.7,5.3c-2.2,0.6-4.5,1-6.8,1.2c-2.3,0.2-4.7,0.1-6.9-0.4
			c-4.5-0.9-8.9-2.4-13.2-3.8c-2.2-0.7-4.4-1.3-6.6-1.7C240.1,182.7,237.8,182.4,235.5,182.5z"/>
	</g>
</g>
</svg>
