<svg xmlns="http://www.w3.org/2000/svg" xml:space="preserve" id="Layer_1" x="0" y="0" style="enable-background:new 0 0 497 496.9" version="1.1" viewBox="0 0 497 496.9"><style>.st0{fill:none;stroke:#f7931e;stroke-miterlimit:10}</style><path d="m171.5 170.1 18.4 17.9c34.7-34.6 83.8-35.3 118.5-.7l16.8-17.2.2.2c-19.3-19.2-61.4-30.9-61.4-30.9 42.4 3.8 23.2-23.1 23.2-23.1-11.5-11.5-15.4 0-15.4 0s7.7-7.7 11.6 3.8-19.2 11.5-23.1 0 3.9-11.5 19.3-26.9S248.8 1 248.8 1 202.6 77.8 218 93.1s23.1 15.4 19.3 26.9-27 11.5-23.1 0 11.6-3.8 11.6-3.8-3.9-11.5-15.4 0c0 0-19.3 26.9 23.1 23 0 0-42.4 11.5-61.6 30.7M326.3 171.8l-17 17.4c34.7 34.6 32.2 82.1-2.5 116.7l19.6 19.1-.2.2c19.3-19.2 31-61.3 31-61.3-3.9 42.3 23.2 23.1 23.2 23.1 11.6-11.5 0-15.3 0-15.3s7.7 7.7-3.8 11.5-11.5-19.2 0-23 11.6 3.9 27 19.2 92.5-30.7 92.5-30.7-77-46.1-92.5-30.7-15.4 23-27 19.2-11.6-26.9 0-23 3.9 11.5 3.9 11.5 11.5-3.8 0-15.4c0 0-27-19.2-23.1 23 0 0-11.6-42.2-30.8-61.4M325.4 326.8l-19.8-19.3c-34.7 34.6-80.6 34.8-115.2.3l-17.7 19.1-1.5 1.3c19.3 19.2 61.8 29.4 61.8 29.4-42.4-3.8-23.2 23.1-23.2 23.1 11.6 11.5 15.4 0 15.4 0s-7.7 7.7-11.6-3.8 19.3-11.5 23.1 0-3.9 11.5-19.3 26.9 30.8 92.2 30.8 92.2 46.2-76.8 30.8-92.2-23.1-15.4-19.3-26.9 27-11.5 23.1 0-11.6 3.8-11.6 3.8 3.9 11.5 15.4 0c0 0 19.3-26.9-23.1-23 0 0 42.4-11.5 61.6-30.7M169.2 326.2l18.4-18.8c-33.2-35.6-33.6-83.5 1-118l-17.9-17.5-.8-1.5c-19.3 19.2-30 62.5-30 62.5 3.9-42.3-23.2-23.1-23.2-23.1-11.6 11.5 0 15.3 0 15.3s-7.7-7.7 3.8-11.6 11.5 19.2 0 23-11.6-3.9-27-19.2S1 248.2 1 248.2s77.1 46.1 92.5 30.7 15.4-23 27-19.2 11.6 26.9 0 23-3.8-11.5-3.8-11.5-11.6 3.8 0 15.4c0 0 27 19.2 23.1-23 0 0 10 43.3 29.3 62.5" class="st0"/><path d="m249.6 138.8.3 21.7c49 0 86.9 38 86.9 86.9l21.5-.3v.3c0-27.2-21.5-65.2-21.5-65.2 27.3 32.6 32.8 0 32.8 0 0-16.3-10.8-10.9-10.8-10.9s10.9 0 5.5 10.9-21.8-5.4-16.3-16.3 10.9-5.4 32.7-5.4 43.6-86.9 43.6-86.9-87.2 21.7-87.2 43.4 5.5 27.1-5.4 32.6-27.3-10.9-16.4-16.3 10.9 5.4 10.9 5.4 5.4-10.9-10.9-10.9c0 0-32.7 5.4 0 32.6 0 0-38.1-21.7-65.4-21.7M357.9 249.1l-21.8.3c0 48.9-38.1 86.6-87.2 86.6l.3 21.4h-.3c27.2 0 65.4-21.4 65.4-21.4-32.7 27.2 0 32.7 0 32.7 16.4 0 10.9-10.8 10.9-10.8s0 10.9-10.9 5.5 5.4-21.7 16.3-16.3 5.4 10.9 5.4 32.6 87.2 43.5 87.2 43.5-21.8-86.9-43.6-86.9-27.2 5.4-32.7-5.4 10.9-27.2 16.4-16.3-5.5 10.9-5.5 10.9 10.9 5.4 10.9-10.9c0 0-5.4-32.6-32.7 0 0 0 21.8-38 21.8-65.2M247.8 359.2l-.8-22.9c-49 0-86.9-38-86.9-86.9l-21.5.3c0 27.2 21.5 64.9 21.5 64.9-27.2-32.6-32.8 0-32.8 0 0 16.3 10.8 10.9 10.8 10.9s-10.9 0-5.5-10.9 21.8 5.4 16.3 16.3-10.9 5.4-32.7 5.4-43.6 86.9-43.6 86.9 87.2-21.7 87.2-43.4-5.4-27.1 5.4-32.6 27.2 10.9 16.3 16.3-10.9-5.4-10.9-5.4-5.4 10.9 10.9 10.9c0 0 32.7-5.4 0-32.6 0 0 38.6 22.9 65.8 22.9M138.8 245.8l22.1 1.8c0-48.9 37.4-88.1 86.5-88.1l-.2-22.2h.3c-27.2 0-64.8 23.7-64.8 23.7 32.7-27.2 0-32.7 0-32.7-16.3 0-10.9 10.8-10.9 10.8s0-10.9 10.9-5.5-5.4 21.7-16.3 16.3-5.4-10.9-5.4-32.6-87.3-43.5-87.3-43.5 21.8 86.9 43.6 86.9 27.2-5.4 32.7 5.4-10.9 27.2-16.3 16.3 5.5-10.8 5.5-10.8-10.9-5.4-10.9 10.9c0 0 5.4 32.6 32.7 0 0 0-22.1 35.9-22.1 63.1" class="st0"/></svg>