<svg id="Layer_2" data-name="Layer 2" xmlns="http://www.w3.org/2000/svg" viewBox="0 0 467.11 496.27"><defs><style>.cls-1{fill:#9e5220;}.cls-2{fill:none;stroke:#9e5220;stroke-miterlimit:10;stroke-width:10px;}</style></defs><title>JourneyOfTaro_Logo_Portrait</title><path class="cls-1" d="M300.45,220c-3,8.85-5,21.69-8,30.54-3.63,10.81-7.28,21.68-9.16,32.93-3.9,23.4,0,47.32,4.32,70.64,1,5.6,2.11,11.23,4.26,16.5,2.47,6.09,6.31,11.53,8.87,17.58,3.61,8.52,4.55,17.91,7.47,26.68s8.64,17.53,17.53,20.05c1.85.52,3.82.77,5.42,1.82,1.79,1.18,2.85,3.16,3.92,5,9.17,16,27,29,45.08,25.28,1.56,7.3,3.2,14.8,7.36,21s11.51,10.85,18.87,9.61a58.15,58.15,0,0,0,8.18-10.56c1.48-2.44,2.86-5.08,5.19-6.72A27.16,27.16,0,0,1,425,478c6.88-2.94,13.55-7.95,15.09-15.28a95.49,95.49,0,0,0,2-19.14,30.6,30.6,0,0,0-.65-7.28,36.36,36.36,0,0,0-1.71-4.89c-1.39-3.45-3.05-7.11-4.37-10.59l-11.44-30.22c-9.34-24.66-18.74-49.55-22.64-75.63-3.18-21.26-2.87-43.79-13-62.74-4-7.51-9.55-14.17-13.13-21.9-5.65-12.22-6-26.11-7-39.54-.78-9.87-2-19.71-3.72-29.46a282.38,282.38,0,0,0-47.45-113.5c-9.61-13.57-20.66-26.49-34.71-35.38S250.7-1,234.6,3.12,204.54,21.2,203.23,37.78c10.09,5,24.55,3.14,34.88-1.34,3.09-1.34,6-3.09,9.35-3.72,10-1.9,18.88,6.89,28.94,8.63,2.76.47,5.61.41,8.31,1.16,6,1.69,10.2,7.08,13.71,12.27,7.84,11.56,14.83,24,17.83,37.63,1.67,7.61,2.05,15.44,2.44,23.22l2.1,42.84c.47,9.44,1,18.91-1.3,28.07a68.59,68.59,0,0,1-5.58,14.16C310,208.36,303.18,211.85,300.45,220Z" transform="translate(-16.44 -1.57)"/><path class="cls-1" d="M182.12,90.76c.77-3,1.53-6.23.52-9.16S178,76.42,175.33,78c2.95-21.63,30.88-27,33.75-48.67.18-1.37,9.35-16.77,8.75-18C216.25,8,208.47,17,205,18c-20.27,5.69-36.51,25.47-47.64,43.35C140.1,89,138.14,119.69,128.26,141c-16.47,35.51-21.48,47.49-17,86,1.37,11.73-6.11,27.1-12.34,37.13-8.43,13.61-34.55,8.08-38.11,31.33,10.14-2.93,20.41-9.13,30.68-11.57,3.18-.75,6.6-1.47,9.64-.27,4.49,1.76,9.93-3.21,13.22,9.27,2.57,9.78,5.36,11.38,2.06,23.17-3.6,12.86,2.29,18.27,1.54,28.31-1,13.9-7.67,23.27-6.52,37.58,1.42,17.82,13.43,34.57,10.26,52.16-1.88,10.41-9,19.69-8.94,30.26a23,23,0,0,0,42.86,11.59c8.28,14.16,28.26,14.53,44.61,13.13,1.83-.16,3.78-.36,5.19-1.52,1.83-1.5,2.22-4.12,2.32-6.48a55.63,55.63,0,0,0-3.09-20.82c12.19.92,23.42-11.7,21.09-23.71-1.05-5.4-3.48-12.73,1.51-15.07,5.89,8.21,17.94,11.28,27.06,6.9s14.23-15.71,11.5-25.44a40.9,40.9,0,0,1-40-12.39c-9.68-11-14-22.78-8.52-36.41-4.33-.28,16.13,2.14,27.28,16.47,12.32,15.81,16-3.6,29.37,21.82-4.38-21.46.91-34.52-18-45.5-4.77-2.76-13.87-3.25-19-5.15-15.44-5.66-14.91-22.81-13.38-29.85,2.57-11.84,2.44-23.34,3.09-35s-5.56-25.41-14.92-32.4c-5.79-4.32-13.15-5.77-19.93-8.27s-12.53-.56-11.22-10.55c1-7.91,4.63-17,2.06-20.07-3.85-4.61-10.3-14.93-7.21-24.71,2.69-8.51-2.16-17.88,1.54-25.74,4.12-8.75-2.34-14.25-2.91-22.42C173,118.58,178.66,104.32,182.12,90.76Z" transform="translate(-16.44 -1.57)"/><path class="cls-1" d="M266.28,191c6.79,0,13.68-2.64,20.23-.83a23.74,23.74,0,0,1-10.09,7,19.61,19.61,0,0,1-5.81,1.16c-3.63.12-7.17-1-10.63-2.06-2-.63-13.66-2.88-9.43-6.44C253.22,187.56,262.81,191,266.28,191Z" transform="translate(-16.44 -1.57)"/><path class="cls-1" d="M233.11,166.35c4.38-.52,8.83,0,13.21-.59a27.46,27.46,0,0,0,10.84-3.83,6.85,6.85,0,0,1,1.74-.9,6.31,6.31,0,0,1,2.08-.17l11.09.26a20.37,20.37,0,0,1,4.55.46c3.23.84,5.85,3.23,9,4.33,2.73,1,5.7.87,8.55,1.37s5.86,1.79,7.07,4.42-.62,6.51-3.5,6.26a6.83,6.83,0,0,1-2.3-.79c-18.58-8.84-40.46-8.2-60.37-3.07a25.34,25.34,0,0,1-6.65,1.14c-3.14-.06-7.15-1.54-4.88-4.78C225.4,167.78,230.12,166.7,233.11,166.35Z" transform="translate(-16.44 -1.57)"/><path class="cls-1" d="M236.73,92.73a15.23,15.23,0,0,0-6.08-1.51c-10.21-.89-20.94.76-29.47,6.45-1.67,1.11-3.43,3.11-2.47,4.88s3.4,1.44,5.27.94c8.39-2.2,17.12-4.18,25.85-3.42,2.23.2,6.82,2,8.87.63C241.86,98.57,239.16,94.08,236.73,92.73Z" transform="translate(-16.44 -1.57)"/><path class="cls-1" d="M304.25,91.5a13.09,13.09,0,0,1,3.58,1.65c2.38,1.64,3.83,4.3,5.15,6.87s2.48,5.18,1.66,7.77a1.27,1.27,0,0,1-.61.84c-.54.23-1.1-.25-1.48-.69a28.64,28.64,0,0,0-6.71-6.16c-4.75-2.79-10.62-2.54-15.71-.92-2.47.78-10.59,6-11.92.75-1-4,7.89-8.56,10.75-9.63A23.84,23.84,0,0,1,304.25,91.5Z" transform="translate(-16.44 -1.57)"/><path class="cls-1" d="M177.86,225.11a43.67,43.67,0,0,0,20.55,5.09c4.37,0,9.35-1.09,11.49-4.9a9.78,9.78,0,0,0,.5-7.53c-2.43-8.16-11.69-12.65-20.2-12.55,9.13-4.34,21.32-.34,26.1,8.56,1.11,2.06,2.22,4.89,1.27,7.18s-3.7,3-.48,5c10.79,6.73,22.95,11.49,35.6,12.77s25.8-1,36.75-7.48c3.39-2,6.69-4.56,8.2-8.2a8.89,8.89,0,0,0-.56-8.28,6.36,6.36,0,0,0-7.58-2.4,16,16,0,0,0-3.5,2.71c-4.94,4.16-12.08,4.79-18.41,3.45s-12.13-4.4-18.07-7a4.76,4.76,0,0,0-2.86-.57,5.3,5.3,0,0,0-1.69.86,53.22,53.22,0,0,1-17.56,7.63c-2.34.55-7,.18-9,1.35-1.69,1-2.51,4.69-3.75,6.4a41.57,41.57,0,0,1-37.17,16.63" transform="translate(-16.44 -1.57)"/><path class="cls-2" d="M363.43,456A228.46,228.46,0,0,0,478.56,257.58C478.56,131.35,376.23,29,250,29S21.44,131.35,21.44,257.58c0,105.67,71.71,194.59,169.12,220.75" transform="translate(-16.44 -1.57)"/></svg>